<?xml version="1.0" encoding="UTF-8" standalone="no"?>
<!-- Created with Inkscape (http://www.inkscape.org/) -->

<svg
   width="210mm"
   height="297mm"
   viewBox="0 0 210 297"
   version="1.1"
   id="svg2246"
   inkscape:version="1.1 (c4e8f9e, 2021-05-24)"
   sodipodi:docname="freehand.svg"
   xmlns:inkscape="http://www.inkscape.org/namespaces/inkscape"
   xmlns:sodipodi="http://sodipodi.sourceforge.net/DTD/sodipodi-0.dtd"
   xmlns="http://www.w3.org/2000/svg"
   xmlns:svg="http://www.w3.org/2000/svg">
  <sodipodi:namedview
     id="namedview2248"
     pagecolor="#ffffff"
     bordercolor="#666666"
     borderopacity="1.0"
     inkscape:pageshadow="2"
     inkscape:pageopacity="0.0"
     inkscape:pagecheckerboard="0"
     inkscape:document-units="mm"
     showgrid="false"
     inkscape:zoom="0.55411055"
     inkscape:cx="397.03269"
     inkscape:cy="561.25984"
     inkscape:window-width="1600"
     inkscape:window-height="832"
     inkscape:window-x="0"
     inkscape:window-y="0"
     inkscape:window-maximized="1"
     inkscape:current-layer="layer1" />
  <defs
     id="defs2243" />
  <g
     inkscape:label="Layer 1"
     inkscape:groupmode="layer"
     id="layer1">
    <path
       style="fill:#00f500;stroke:#000000;stroke-width:0.264583px;stroke-linecap:butt;stroke-linejoin:miter;stroke-opacity:1;fill-opacity:1"
       d="m 63.625891,55.630383 c 1.025234,-1.649933 2.091176,-3.30809 3.32146,-4.810728 1.607304,-1.963121 4.253677,-3.16548 6.331534,-4.437078 0.96755,-0.592119 1.786914,-1.466331 2.750577,-2.008365 1.529117,-0.860089 3.571174,-1.115637 5.241687,-1.728123 0.923602,-0.338638 1.750345,-0.902489 2.64678,-1.261068 6.856259,-2.742546 18.381341,-1.848273 25.014731,0.747297 0.73693,0.288351 1.21891,0.996331 1.9721,1.30777 0.99705,0.412271 2.17175,0.476424 3.11387,1.027538 0.87914,0.514273 1.32451,1.503495 2.1797,2.055066 1.38638,0.894181 2.78952,1.451639 3.94423,2.615541 5.17397,5.215139 8.04843,10.566713 8.35555,18.028555 0.0585,1.420479 0.34046,2.880495 0.0519,4.296963 -0.34216,1.679636 -1.11605,3.231584 -1.50504,4.904142 -0.93933,4.038865 -3.06185,8.366903 -7.16189,9.808271 -6.27234,2.205048 -13.47126,-2.249059 -13.85671,-9.014278 -0.17877,-3.137775 1.18951,-6.583851 -0.3114,-9.574741 -0.72562,-1.445967 -2.27376,-1.919266 -3.58093,-2.662256 -3.648224,-2.073656 -7.03326,-3.656462 -11.209922,-1.401178 -9.536743,5.149588 -0.09307,19.640055 -12.455478,22.325518 -1.46895,0.319098 -4.001397,0.719457 -5.397357,-0.140124 -3.310921,-2.038739 -4.309298,-4.396811 -6.43533,-7.426274 -2.130605,-3.03598 -4.199988,-5.865347 -3.632846,-9.948397 0.250836,-1.805855 2.089182,-3.150862 2.906279,-4.6706 1.74014,-3.236534 0.205168,-5.793739 -2.283505,-8.033451 z"
       id="path2302" />
  </g>
</svg>
