<?xml version="1.0" encoding="UTF-8" standalone="no"?>
<!-- Created with Inkscape (http://www.inkscape.org/) -->

<svg
   width="210mm"
   height="297mm"
   viewBox="0 0 210 297"
   version="1.1"
   id="svg970"
   inkscape:version="1.1 (c4e8f9e, 2021-05-24)"
   sodipodi:docname="jug02.svg"
   xmlns:inkscape="http://www.inkscape.org/namespaces/inkscape"
   xmlns:sodipodi="http://sodipodi.sourceforge.net/DTD/sodipodi-0.dtd"
   xmlns="http://www.w3.org/2000/svg"
   xmlns:svg="http://www.w3.org/2000/svg">
  <sodipodi:namedview
     id="namedview972"
     pagecolor="#ffffff"
     bordercolor="#666666"
     borderopacity="1.0"
     inkscape:pageshadow="2"
     inkscape:pageopacity="0.0"
     inkscape:pagecheckerboard="0"
     inkscape:document-units="mm"
     showgrid="false"
     inkscape:zoom="0.57905443"
     inkscape:cx="410.15142"
     inkscape:cy="193.41878"
     inkscape:window-width="1600"
     inkscape:window-height="832"
     inkscape:window-x="0"
     inkscape:window-y="0"
     inkscape:window-maximized="1"
     inkscape:current-layer="layer1" />
  <defs
     id="defs967" />
  <g
     inkscape:label="Layer 1"
     inkscape:groupmode="layer"
     id="layer1">
    <path
       style="fill:#000000;stroke-width:0.137165"
       d="m 70.95131,157.93413 c -0.04707,-0.11397 -0.02707,-0.26159 0.04446,-0.32804 0.07151,-0.0664 1.632821,-0.13683 3.469565,-0.15638 l 3.339535,-0.0356 -0.782628,-0.2529 c -0.694699,-0.22448 -1.390113,-0.26298 -6.189865,-0.34272 -2.973983,-0.0495 -5.427699,-0.0992 -5.452708,-0.11069 -0.02501,-0.0115 -0.02501,-0.15476 0,-0.31839 l 0.04548,-0.29749 4.116013,-0.0351 4.116011,-0.0351 -0.573442,-0.39186 -0.573442,-0.39184 -2.973387,-0.0358 c -2.865682,-0.0345 -2.973387,-0.0453 -2.973387,-0.30024 0,-0.25429 0.107725,-0.26581 2.810341,-0.30028 l 2.810341,-0.0359 v -0.56246 -0.56246 l -0.818199,0.003 c -0.724532,0.003 -0.818204,-0.0269 -0.818204,-0.26109 0,-0.21619 0.109362,-0.27182 0.599321,-0.30485 0.329629,-0.0222 0.729833,0.0245 0.889349,0.10382 0.23022,0.11448 0.29003,0.10445 0.29003,-0.0486 0,-0.32526 0.693664,-0.98091 1.433777,-1.3552 0.861157,-0.43552 1.137442,-1.03778 0.864449,-1.88441 -0.228325,-0.70811 -0.869301,-1.18489 -3.566549,-2.65295 -5.058482,-2.75328 -9.064147,-5.95395 -12.660581,-10.11636 -4.892036,-5.66188 -7.646932,-11.60943 -9.038497,-19.51321 -0.771547,-4.38223 -0.600915,-8.55184 0.573273,-14.0083 1.181674,-5.49128 2.923418,-9.582909 5.769667,-13.553872 3.224678,-4.498928 5.723253,-6.835095 12.012582,-11.231814 2.019513,-1.411787 4.796916,-3.960815 5.914121,-5.42782 2.25977,-2.967315 3.255411,-6.050592 3.457772,-10.707912 0.148148,-3.409713 -0.238898,-6.261409 -1.146736,-8.449001 -0.690529,-1.663927 -1.374616,-2.655297 -2.534851,-3.673436 l -1.007282,-0.883913 0.04697,-1.958766 c 0.05535,-2.30802 -0.124484,-3.219182 -0.963812,-4.883416 -1.643285,-3.258315 -4.730217,-5.900307 -7.727829,-6.613965 -0.767216,-0.182651 -1.046851,-0.188888 -2.039198,-0.04543 -1.357477,0.196178 -1.796806,0.07007 -2.244591,-0.644383 -1.237491,-1.974441 1.770912,-4.819481 6.406707,-6.058789 1.091583,-0.29182 1.593539,-0.342101 3.818136,-0.382492 2.350306,-0.04269 2.671609,-0.01985 3.900033,0.276694 3.064541,0.739863 4.948832,1.955404 7.022509,4.530202 1.91522,2.378029 3.53493,3.321112 6.550834,3.814226 1.745041,0.285317 8.974703,0.404975 11.44258,0.189376 2.726202,-0.23816 4.606592,-0.75096 6.027632,-1.643779 1.00132,-0.629103 1.51555,-1.08619 2.94211,-2.615188 2.23394,-2.394345 3.56774,-3.320538 5.7991,-4.026915 1.48791,-0.471024 4.19318,-0.597628 5.62633,-0.263305 2.21184,0.515966 4.32126,1.979942 4.69094,3.25562 0.30642,1.057341 -0.46347,2.364032 -1.53344,2.602637 -0.51736,0.115379 -0.49883,0.12426 0.73857,0.354275 2.91291,0.541427 5.06154,1.422096 7.12844,2.921732 2.96501,2.151274 5.12582,5.14133 6.3093,8.730597 0.74665,2.264429 0.87378,3.172913 0.8138,5.815547 -0.0605,2.662346 -0.27537,3.819051 -1.16019,6.243862 -1.03303,2.830915 -2.04093,4.565237 -5.39995,9.291736 -2.407,3.386904 -3.02555,4.316665 -3.7012,5.563305 -0.91189,1.682518 -1.36764,3.002265 -1.45283,4.207069 l -0.0785,1.11012 0.3937,-0.09182 c 0.95398,-0.222477 1.25551,-0.234883 1.86359,-0.07674 1.56084,0.406062 2.76308,2.112544 2.56904,3.646581 -0.17951,1.41917 -1.26955,2.758073 -2.6863,3.299594 -0.37031,0.141551 -0.67354,0.290058 -0.67383,0.330029 -2.8e-4,0.03995 0.50104,0.671385 1.11406,1.403138 2.00746,2.396223 3.84101,5.288114 5.14202,8.109986 1.63796,3.552734 2.61871,6.88436 3.19237,10.84465 0.51068,3.52551 0.59038,5.78212 0.3054,8.64794 -0.82438,8.2904 -3.99973,15.70747 -9.37211,21.89159 -1.33525,1.53698 -4.7084,4.66392 -6.35123,5.88761 -1.59392,1.1873 -4.55001,3.09188 -6.59908,4.25177 -2.05556,1.16355 -2.67983,1.67375 -2.92389,2.38956 -0.24538,0.71966 -0.0442,1.20929 0.7032,1.71079 0.34666,0.23264 0.80908,0.55986 1.02758,0.7272 0.49935,0.38238 0.85096,1.30015 0.72917,1.90332 l -0.0909,0.45028 2.47044,0.002 c 1.35874,0.002 2.55981,0.0547 2.66904,0.11888 0.10923,0.0642 0.15927,0.21211 0.1112,0.32851 -0.0759,0.18384 -0.44413,0.21168 -2.80055,0.21168 h -2.71312 l -0.74202,0.39541 -0.74201,0.39541 3.65248,0.002 c 2.00886,0.002 3.75376,0.0374 3.87755,0.0815 0.34192,0.12192 0.27651,0.56486 -0.0951,0.64396 -0.17608,0.0375 -2.52931,0.0899 -5.22937,0.11641 -3.71717,0.0365 -5.11652,0.0959 -5.76297,0.24444 l -0.85378,0.19619 2.2942,0.0987 c 1.26181,0.0542 2.81359,0.0803 3.4484,0.058 1.19789,-0.0422 1.5572,0.0789 1.39555,0.47033 -0.0772,0.18687 -2.22169,0.20719 -21.865766,0.20719 -19.644068,0 -21.788571,-0.0203 -21.865757,-0.2072 z m 33.03598,-2.20693 c 1.14788,-0.15815 -0.003,-0.18547 -11.099074,-0.26367 -6.808847,-0.048 -12.571826,-0.11989 -12.806617,-0.15981 -0.291785,-0.0496 -0.359336,-0.0345 -0.213441,0.0479 0.327697,0.18501 1.764096,0.40224 3.267351,0.49412 0.746494,0.0456 1.389278,0.11083 1.428408,0.14491 0.03912,0.0341 4.137252,0.0284 9.106928,-0.0126 6.422055,-0.053 9.406235,-0.12551 10.316445,-0.25091 z m -3.2728,-0.92394 2.27673,-0.1657 -2.06329,-0.0826 c -3.188113,-0.12754 -19.093905,-0.13003 -19.00939,-0.003 0.132008,0.19845 2.168796,0.31498 6.985397,0.39963 5.840038,0.10263 8.886715,0.0643 11.810553,-0.14843 z m 1.42296,-1.42547 c 2.68955,-0.1444 4.88657,-0.39375 4.59892,-0.52192 -0.10327,-0.046 -3.03723,-0.0311 -6.51991,0.0332 -5.398149,0.0997 -15.334593,-0.0115 -21.305833,-0.23848 -1.514014,-0.0576 -0.293024,0.31384 2.024749,0.61586 2.686227,0.35001 15.503305,0.41732 21.202074,0.11131 z m 5.29754,-0.60505 c -0.0472,-0.044 -0.17001,-0.0486 -0.27272,-0.0104 -0.11352,0.0423 -0.0798,0.0735 0.086,0.0799 0.15,0.005 0.23404,-0.0256 0.18675,-0.0695 z m -3.30541,-0.5661 c 1.96538,-0.1726 3.63842,-0.42218 3.56546,-0.53185 -0.0307,-0.0461 -0.84545,-0.0341 -1.81062,0.0267 -1.87933,0.11845 -25.752042,0.02 -27.296298,-0.11262 -0.508361,-0.0436 -0.885932,-0.0437 -0.83905,0 0.180152,0.1674 2.428338,0.49298 4.609262,0.6675 2.692597,0.21548 19.180546,0.17789 21.771246,-0.0496 z m 4.2333,-0.63155 c -0.0978,-0.0367 -0.25791,-0.0367 -0.35573,0 -0.0978,0.0367 -0.0178,0.0667 0.17786,0.0667 0.19566,0 0.2757,-0.03 0.17787,-0.0667 z m -7.19713,-2.09752 c 1.47359,-0.111 2.83932,-0.23055 3.03498,-0.26565 0.19565,-0.0351 0.80013,-0.12419 1.34327,-0.19792 1.51671,-0.20593 1.30237,-0.27626 -0.4985,-0.16361 -2.05317,0.12846 -21.629589,0.13432 -23.540942,0.007 -3.264321,-0.21735 -3.861105,-0.23605 -3.343952,-0.10484 0.924001,0.23444 2.043457,0.38297 4.980356,0.6608 2.142098,0.20264 2.552297,0.2133 9.273605,0.24098 4.393161,0.0181 6.812715,-0.0308 8.751183,-0.17682 z m 5.93739,-0.70165 c 0.0403,-0.0607 -0.02,-0.1102 -0.1339,-0.1102 -0.11395,0 -0.20719,0.0496 -0.20719,0.1102 0,0.0606 0.0603,0.11017 0.1339,0.11017 0.0737,0 0.16688,-0.0496 0.20719,-0.11017 z m -3.82733,-0.47365 c 2.45547,-0.24257 5.80357,-0.71145 6.59255,-0.92325 0.1307,-0.0351 0.51625,-0.13076 0.85677,-0.21258 0.99987,-0.24028 0.59952,-0.27492 -0.71438,-0.0619 -3.08754,0.50077 -5.82772,0.62097 -15.628423,0.68558 -10.490893,0.0692 -14.086157,-0.0329 -17.644675,-0.50128 -0.586971,-0.0773 -1.211293,-0.1671 -1.387387,-0.19968 -0.624286,-0.11548 -0.30823,0.0625 0.498038,0.28044 2.233516,0.60377 5.891526,1.04672 9.141443,1.10692 0.977704,0.0181 1.810134,0.0645 1.849848,0.10315 0.03969,0.0386 3.273861,0.0394 7.186992,0.002 5.063882,-0.0487 7.730054,-0.12918 9.249224,-0.27926 z m -15.864402,-4.35271 c -1.040597,-1.9118 -1.286628,-2.46727 -2.21092,-4.99173 -1.363661,-3.72449 -2.433492,-9.76971 -2.310129,-13.05369 0.055,-1.46411 0.04985,-1.49459 -0.237905,-1.40736 -0.161766,0.049 -0.713044,0.11865 -1.225062,0.15468 l -0.930939,0.0654 -0.519549,-0.53434 c -0.599987,-0.61708 -0.777804,-1.25662 -0.537503,-1.93316 0.334723,-0.94238 1.04744,-1.48957 2.441067,-1.87412 1.217173,-0.33585 2.382495,0.059 3.500935,1.1865 1.768749,1.78296 2.834929,5.75225 3.308576,12.31752 0.210267,2.9145 0.7951,6.54779 1.095952,6.80862 0.07708,0.0668 0.02101,-0.54295 -0.243127,-2.64375 -0.381738,-3.03626 -0.42831,-3.47905 -0.371477,-3.53186 0.09451,-0.0878 0.189236,0.46614 0.592662,3.46575 0.205383,1.52712 0.459433,3.19306 0.564556,3.70211 l 0.191127,0.92551 -0.0602,-0.92551 c -0.03311,-0.50905 -0.08888,-1.05972 -0.123936,-1.22372 -0.07298,-0.34142 -0.335694,-2.59902 -0.399957,-3.43697 -0.07721,-1.00675 0.135819,-0.59101 0.237126,0.46276 0.116413,1.21092 0.598361,4.02953 0.78562,4.59457 0.09768,0.29477 0.113772,0.15892 0.06262,-0.52887 -0.03787,-0.50904 -0.09903,-1.06072 -0.135927,-1.22594 -0.03691,-0.16524 -0.0987,-0.73047 -0.137331,-1.25608 -0.03864,-0.5256 -0.175518,-2.2646 -0.304189,-3.86443 -0.162767,-2.02383 -0.262821,-5.6039 -0.328859,-11.76739 -0.102864,-9.60047 -0.100693,-9.57369 -0.932793,-11.50631 -0.862956,-2.00428 -2.123604,-3.46235 -3.526843,-4.07918 -2.395123,-1.05283 -4.698694,-0.7194 -6.479226,0.93781 -1.351979,1.25834 -2.032033,2.83509 -1.952717,4.52749 0.04817,1.02768 0.405549,1.84034 1.136268,2.58378 l 0.519828,0.52886 -0.421631,-0.64104 c -0.481819,-0.73255 -0.810269,-1.90975 -0.589959,-2.11445 0.0937,-0.0871 0.171077,-0.0459 0.229297,0.12208 0.342737,0.98867 1.127386,2.28416 1.29125,2.1319 0.0332,-0.0308 -0.113698,-0.3679 -0.326478,-0.74898 -0.962453,-1.72369 -0.410513,-3.82158 1.417311,-5.38709 1.105896,-0.94717 1.680887,-1.15337 3.231202,-1.15866 1.195984,-0.004 1.434849,0.0361 2.072224,0.34868 0.868188,0.42574 1.169714,0.71991 0.948561,0.9254 -0.111234,0.10336 -0.259416,0.067 -0.528512,-0.12968 -1.088954,-0.79591 -3.182044,-0.90092 -4.428497,-0.22218 -1.460995,0.79556 -2.425526,2.07912 -2.575249,3.42704 -0.112105,1.00925 0.153571,1.79953 0.787828,2.34344 0.283758,0.24335 0.409041,0.32269 0.278414,0.17631 -0.438733,-0.49163 -0.613786,-1.42698 -0.441734,-2.36026 0.297735,-1.61507 1.583968,-2.91184 3.226934,-3.25341 0.799407,-0.1662 2.0756,0.0713 2.8871,0.53733 1.035626,0.59473 2.06711,2.11048 2.555911,3.75587 0.194782,0.65567 0.254019,1.83707 0.341439,6.80922 0.05817,3.30875 0.05513,6.06725 -0.0068,6.13 -0.293137,0.29721 -0.387765,-0.23839 -0.480803,-2.72125 -0.172053,-4.59167 -0.5649,-6.35907 -1.963859,-8.83541 -0.829442,-1.46823 -1.066559,-1.79546 -1.206674,-1.66527 -0.05602,0.052 -0.126553,0.6427 -0.156744,1.31253 -0.06209,1.37781 0.150117,2.26232 1.036864,4.3217 0.287792,0.66837 0.494888,1.24159 0.460212,1.27382 -0.03469,0.0323 -0.376213,-0.1821 -0.758955,-0.47627 -1.291569,-0.99266 -2.75684,-1.28067 -4.320446,-0.8492 -2.0751,0.57259 -3.507034,2.15806 -4.069068,4.50539 -0.387091,1.61667 -0.228047,4.79992 0.339647,6.79801 1.612429,5.67518 3.85207,10.21958 6.820803,13.83988 0.432331,0.52723 0.804174,0.95858 0.826319,0.95858 0.02214,0 -0.491694,-0.79122 -1.141859,-1.75829 -1.708779,-2.54164 -2.901786,-4.8592 -4.076494,-7.91905 -1.547665,-4.03131 -2.188311,-7.09397 -2.0828,-9.95701 0.06657,-1.80652 0.149532,-2.18159 0.482516,-2.18159 0.164345,0 0.181811,0.13251 0.0915,0.69414 -0.332234,2.06606 0.08155,5.62554 0.979865,8.4289 1.246821,3.89095 3.689945,8.80961 5.253869,10.57742 0.388837,0.43953 0.336312,0.31898 -0.61354,-1.40818 -2.500949,-4.54758 -4.414702,-9.82357 -4.622456,-12.74352 -0.125307,-1.76119 0.409659,-3.10349 1.511964,-3.79373 0.743732,-0.46571 0.896355,-0.38621 0.505625,0.26339 -0.574277,0.95471 -0.702097,2.22545 -0.419791,4.17336 0.566759,3.91067 2.011568,7.86376 4.36814,11.95152 0.856142,1.48509 2.531442,3.80487 2.7478,3.80487 0.01747,0 -0.400164,-0.7935 -0.928039,-1.7633 z m 12.662752,1.30054 c 0.26549,-0.25452 0.45069,-0.46276 0.41156,-0.46276 -0.0391,0 -0.28837,0.20824 -0.553858,0.46276 -0.2655,0.25452 -0.450697,0.46276 -0.411574,0.46276 0.0391,0 0.288375,-0.20824 0.553872,-0.46276 z m -1.767237,-1.16603 c 2.251407,-2.78292 4.468757,-7.32566 5.659837,-11.59548 0.76645,-2.74758 0.86438,-5.24889 0.25556,-6.52772 -0.1684,-0.35375 -0.30618,-0.69663 -0.30618,-0.76197 0,-0.22134 0.82574,0.27638 1.24773,0.75208 0.5143,0.57975 0.74745,1.2704 0.84269,2.49623 0.21176,2.72575 -2.26794,9.52642 -5.18669,14.22464 -0.14173,0.22816 -0.067,0.1872 0.24114,-0.13222 1.76433,-1.8287 4.68819,-8.1259 5.55582,-11.96571 0.25632,-1.13439 0.35658,-1.67296 0.50455,-2.71047 0.10149,-0.71165 0.0926,-3.3553 -0.0121,-3.60888 -0.0686,-0.16612 -0.0183,-0.22543 0.19149,-0.22543 0.15652,0 0.32475,0.0973 0.37385,0.21612 0.15982,0.38702 -0.0265,4.18617 -0.2569,5.23914 -1.0749,4.91162 -3.27874,10.00737 -6.00358,13.8816 -0.89764,1.27626 -1.05896,1.6284 -0.42399,0.92552 2.17953,-2.41268 4.51221,-6.48285 5.89157,-10.27994 0.37765,-1.03959 1.37861,-4.41204 1.60895,-5.42093 0.26899,-1.17811 0.22483,-3.77325 -0.0832,-4.89206 -0.52428,-1.90407 -1.6735,-3.29092 -3.32194,-4.00883 -0.68251,-0.29723 -1.00862,-0.35436 -2.02317,-0.35436 -1.3621,0 -2.05053,0.23767 -3.05228,1.05373 -0.30916,0.25184 -0.582471,0.43899 -0.607352,0.41586 -0.02486,-0.0231 0.153799,-0.48224 0.397076,-1.02025 0.923376,-2.042 1.277476,-3.90375 0.988496,-5.1972 -0.12914,-0.57799 -0.2098,-0.72157 -0.34626,-0.61633 -0.0978,0.0755 -0.603877,0.92651 -1.12452,1.89126 -0.773926,1.4341 -1.001066,2.00738 -1.245037,3.14239 -0.307221,1.42926 -0.546794,4.32581 -0.554999,6.71006 -0.0043,1.28196 -0.02058,1.35523 -0.299891,1.35523 h -0.295217 l 0.09096,-6.11508 c 0.04999,-3.36329 0.14808,-6.38852 0.217872,-6.72274 0.369322,-1.76844 1.471852,-3.24186 3.006632,-4.01801 1.48592,-0.75148 3.2073,-0.42479 4.40246,0.8355 0.91721,0.96718 1.04227,1.26957 1.04802,2.53412 0.004,0.85497 -0.059,1.23455 -0.26268,1.58661 l -0.26778,0.46276 0.29089,-0.24082 c 0.16,-0.13243 0.43282,-0.54732 0.60627,-0.92196 0.85673,-1.85048 -0.49658,-4.42756 -2.72017,-5.17998 -1.41993,-0.48047 -2.64146,-0.32404 -4.006313,0.51303 -0.358622,0.21996 -0.397111,0.22156 -0.480312,0.0202 -0.102313,-0.24774 0.121415,-0.43188 1.083616,-0.89182 0.537109,-0.25676 0.858269,-0.30611 1.992149,-0.30611 1.23157,0 1.41938,0.0348 2.11157,0.39105 1.02591,0.52802 2.06323,1.60972 2.44656,2.55124 0.40495,0.99462 0.34242,2.71116 -0.13011,3.5718 -0.16898,0.30776 -0.2506,0.55957 -0.18139,0.55957 0.15923,0 0.87601,-0.95243 0.87601,-1.16402 0,-0.087 0.0517,-0.15816 0.11483,-0.15816 0.0632,0 0.18441,-0.16362 0.26946,-0.3636 0.15398,-0.36209 0.15469,-0.36152 0.16976,0.13748 0.015,0.498 -0.37507,1.38569 -0.81964,1.86503 -0.22213,0.2395 -0.2178,0.24348 0.0973,0.0898 0.4592,-0.22403 1.10706,-1.21987 1.3133,-2.01872 0.33734,-1.30658 -0.10362,-3.32171 -0.98832,-4.51653 -0.6574,-0.88781 -1.78491,-1.75749 -2.68929,-2.07433 -1.22161,-0.42796 -2.93843,-0.32991 -4.17331,0.23834 -2.195467,1.01029 -3.598153,2.86876 -4.314942,5.71705 -0.175697,0.69817 -0.217324,1.95091 -0.221868,6.677 -0.006,6.55168 -0.168212,11.08173 -0.48675,13.61843 -0.118715,0.94536 -0.253729,2.13532 -0.300037,2.64436 -0.0463,0.50903 -0.143021,1.22302 -0.214914,1.58661 -0.07185,0.3636 -0.160058,0.98833 -0.195922,1.38829 -0.19366,2.15976 -0.247813,3.0996 -0.174883,3.03545 0.100847,-0.0887 0.354361,-1.63956 0.442166,-2.7049 0.102381,-1.24239 0.218327,-1.83694 0.386487,-1.98185 0.110107,-0.0949 0.131653,-0.0378 0.07425,0.1969 -0.133041,0.54421 -0.241784,1.70125 -0.298235,3.17323 l -0.05324,1.38829 0.340488,-0.92552 c 0.538837,-1.46471 1.158312,-4.68384 1.768304,-9.18914 0.723314,-5.3423 1.339908,-7.8808 2.311145,-9.51498 1.065091,-1.79208 2.153991,-2.57447 3.588431,-2.57833 1.16805,-0.003 2.07412,0.34488 2.74711,1.0553 1.04703,1.10524 1.07805,2.15609 0.0875,2.96421 -0.66196,0.54004 -1.08968,0.61746 -1.97642,0.35773 -1.14215,-0.33454 -1.10143,-0.37671 -0.99059,1.0262 0.23059,2.91894 -0.87765,8.71435 -2.505,13.09961 -0.678946,1.82957 -1.502137,3.58395 -2.451854,5.22543 -0.778581,1.34568 -0.636443,1.37728 0.404955,0.09 z m -3.201883,-2.81152 c 0.0069,-0.15403 0.04055,-0.18536 0.08596,-0.0799 0.04107,0.0954 0.0361,0.20948 -0.01123,0.25342 -0.04724,0.044 -0.08094,-0.0341 -0.07476,-0.17354 z m 0.191182,-0.98062 c 0.0421,-0.25451 0.143553,-0.99824 0.225545,-1.65272 0.204231,-1.63011 0.447302,-2.45904 0.348951,-1.18996 -0.03944,0.50904 -0.09655,1.07427 -0.126886,1.25606 -0.03035,0.18181 -0.101609,0.62804 -0.158395,0.99164 -0.05676,0.3636 -0.162287,0.75034 -0.234462,0.85942 -0.08881,0.13423 -0.106514,0.0488 -0.05479,-0.26444 z m -0.04887,-2.98591 c 0.0069,-0.15403 0.04055,-0.18536 0.08597,-0.0799 0.04107,0.0954 0.0361,0.20949 -0.01123,0.25342 -0.04724,0.044 -0.08094,-0.0341 -0.07476,-0.17353 z m 0.164071,-0.98063 c 0,-0.25452 0.02932,-0.35863 0.06508,-0.23137 0.03575,0.12725 0.03575,0.3355 0,0.46276 -0.03575,0.12726 -0.06508,0.0231 -0.06508,-0.23139 z m 0.393878,-0.0661 c 0,-0.10908 0.06405,-0.19832 0.142293,-0.19832 0.07828,0 0.142293,0.0892 0.142293,0.19832 0,0.10907 -0.06405,0.19833 -0.142293,0.19833 -0.07828,0 -0.142293,-0.0893 -0.142293,-0.19833 z m -17.44952,7.56948 c -2.055622,-2.71921 -3.507781,-5.19219 -5.158076,-8.78407 -2.376364,-5.17217 -4.998522,-13.19752 -5.499965,-16.83314 -0.05517,-0.39997 -0.133633,-0.8462 -0.174379,-0.99163 -0.165272,-0.58994 -0.200563,-8.51781 -0.04473,-10.04857 0.211614,-2.07865 0.216168,-2.10752 0.635878,-4.03263 0.553142,-2.53714 1.71309,-5.878323 2.160547,-6.223375 0.431719,-0.332921 0.339955,0.280133 -0.300134,2.005077 -0.857624,2.311188 -1.72981,6.233758 -1.935719,8.705698 -0.155217,1.86337 -0.09403,7.99731 0.0924,9.26325 0.555375,3.77129 1.345614,6.72939 3.037625,11.37073 2.541531,6.97166 4.207271,10.19942 7.462222,14.45979 1.421837,1.86103 1.40822,1.67683 -0.03001,-0.40599 -1.672032,-2.42139 -2.53175,-3.88311 -3.702985,-6.29594 -2.662047,-5.48402 -4.113624,-10.32934 -5.077037,-16.947 -0.342656,-2.35368 -0.423735,-9.16384 -0.141675,-11.89961 0.397139,-3.8519 1.382905,-7.719126 2.781784,-10.91312 0.232152,-0.530065 0.389014,-1.013485 0.348581,-1.074281 -0.181192,-0.272416 -0.507109,-0.05869 -0.839344,0.550573 -0.336207,0.616475 -0.658272,0.822792 -0.845349,0.541529 -0.04374,-0.06579 0.14458,-0.487963 0.418489,-0.938231 0.273903,-0.450268 0.498009,-0.835762 0.498009,-0.856646 0,-0.02088 -0.128772,-0.0693 -0.286158,-0.107526 -0.22338,-0.05424 -0.366835,0.05835 -0.653852,0.513451 -0.230575,0.365576 -0.468779,0.582981 -0.638766,0.582981 -0.422224,0 -0.335627,-0.539229 0.155817,-0.970212 0.721249,-0.632526 0.491517,-0.875169 -0.832269,-0.879036 -0.839174,-0.0026 -1.437326,0.288398 -2.261911,1.099811 -2.435109,2.396235 -4.47548,7.894937 -5.086092,13.706787 -0.04966,0.47268 -0.193741,1.04717 -0.320178,1.27667 -0.208681,0.37879 -0.209431,0.44626 -0.0081,0.7317 0.178986,0.25382 0.223548,0.77236 0.231156,2.68986 0.01529,3.85386 0.370231,6.3227 1.472536,10.24239 0.952817,3.3881 2.852117,8.01258 4.534274,11.04018 1.026877,1.84821 2.139863,3.51277 2.290816,3.42608 0.06992,-0.0401 0.238054,0.15615 0.373634,0.43623 0.365156,0.75432 1.531829,2.24938 2.418333,3.09905 0.42873,0.41091 0.742063,0.80342 0.69629,0.87223 -0.04577,0.0688 0.116505,0.29785 0.360614,0.50895 0.244108,0.21111 0.398139,0.30947 0.342282,0.21857 -0.05585,-0.0909 -0.0406,-0.16527 0.03393,-0.16527 0.113699,0 0.310816,0.28115 0.370791,0.52886 0.05878,0.2428 0.351737,0.55056 0.549777,0.57757 0.129414,0.0176 0.40926,0.17753 0.621873,0.35529 0.212618,0.17778 -0.0213,-0.10134 -0.519816,-0.62024 -0.498509,-0.51889 -0.920119,-1.02462 -0.936904,-1.12385 -0.02892,-0.17107 -1.161597,-1.8251 -1.34584,-1.96534 -0.557207,-0.42415 -3.764219,-6.24089 -4.836562,-8.77236 -2.127657,-5.02276 -3.451366,-10.00793 -3.990067,-15.02685 -0.166619,-1.55234 -0.202752,-6.52316 -0.05539,-7.61911 0.07364,-0.54767 0.151345,-0.71061 0.338865,-0.71061 0.2234,0 0.239833,0.23535 0.200764,2.87573 -0.04415,2.98406 0.189788,6.35766 0.593658,8.56111 0.285054,1.55517 0.32288,1.65272 0.6409,1.65272 0.297327,0 0.244596,-0.13903 1.128229,2.9749 0.786581,2.77192 1.518816,4.79481 2.706045,7.47576 1.703962,3.84781 3.068095,6.1784 5.407225,9.23816 1.161675,1.51957 3.154942,3.71374 3.373696,3.71374 0.03791,0 -0.302132,-0.49085 -0.755668,-1.09079 z m -2.841146,-0.26444 -0.271073,-0.2975 0.320165,0.25188 c 0.300877,0.2367 0.384946,0.34311 0.271073,0.34311 -0.02703,0 -0.171076,-0.13387 -0.320165,-0.29749 z m -1.138365,-1.05775 -0.271074,-0.29749 0.320165,0.25188 c 0.300878,0.23669 0.384946,0.34311 0.271074,0.34311 -0.02699,0 -0.171076,-0.13387 -0.320165,-0.2975 z m -0.487717,-0.92552 c -1.343416,-1.49105 -2.467313,-3.14519 -3.610519,-5.31393 -3.568928,-6.77054 -5.894066,-13.97212 -6.427149,-19.90662 -0.163162,-1.81641 -0.170325,-2.11548 -0.05066,-2.11548 0.119826,0 0.159585,0.25347 0.404424,2.57824 0.596712,5.66579 2.778685,12.64299 5.681395,18.16711 1.185732,2.25657 2.379966,4.23414 3.0057,4.97721 0.823548,0.97802 2.023894,2.57204 1.9368,2.57204 -0.04197,0 -0.464966,-0.43136 -0.939985,-0.95857 z m -4.14926,-5.23281 c -2.565334,-4.48703 -5.539253,-12.19766 -6.153729,-15.9551 -0.04757,-0.29088 -0.146487,-0.85611 -0.219822,-1.25607 -0.07333,-0.39996 -0.173267,-1.14368 -0.222081,-1.65273 -0.04881,-0.50903 -0.113324,-1.07426 -0.143362,-1.25606 -0.138214,-0.8366 -0.211028,-3.56988 -0.0951,-3.56988 0.07049,0 0.172226,0.72885 0.226091,1.61967 0.05387,0.89081 0.122499,1.79816 0.152521,2.01631 0.03001,0.21817 0.09042,0.75575 0.134226,1.19461 0.125965,1.26215 0.890626,4.88157 1.367742,6.47403 1.025821,3.42383 2.663475,7.4345 4.638857,11.36063 0.655787,1.30341 1.176386,2.38465 1.156884,2.40277 -0.01949,0.0181 -0.398506,-0.60207 -0.842228,-1.37818 z M 66.3655,118.64126 c -0.364744,-2.13341 -0.442923,-3.62245 -0.390482,-7.43725 0.03049,-2.21795 0.09005,-4.18139 0.132369,-4.36319 0.04232,-0.18179 0.115417,-0.68753 0.162449,-1.12384 0.04703,-0.43632 0.181458,-1.19471 0.298744,-1.68532 0.117276,-0.49059 0.306007,-1.28408 0.419395,-1.76332 0.298924,-1.26338 0.869765,-2.962534 1.528771,-4.550547 0.625403,-1.507027 0.755086,-1.718828 1.052406,-1.718828 0.284964,0 0.240309,0.458747 -0.106071,1.089621 -0.662488,1.20661 -1.741063,4.470944 -2.261161,6.843454 -0.76665,3.4972 -0.92707,10.42203 -0.34381,14.84144 0.08421,0.63814 0.06497,0.76026 -0.119846,0.76026 -0.161892,0 -0.26057,-0.23627 -0.372764,-0.89248 z m -2.719045,-4.85899 c 0,-0.10909 0.06403,-0.19833 0.142298,-0.19833 0.07826,0 0.142296,0.0892 0.142296,0.19833 0,0.10907 -0.06403,0.19831 -0.142296,0.19831 -0.07826,0 -0.142298,-0.0892 -0.142298,-0.19831 z m 44.337745,28.60259 c 2.23407,-2.17402 4.52264,-5.30328 6.22025,-8.5052 0.67658,-1.27611 2.37603,-5.12943 2.37603,-5.38737 0,-0.0694 0.0904,-0.31358 0.20093,-0.54274 0.29655,-0.61492 1.18485,-3.40176 1.43927,-4.51539 0.0333,-0.14544 0.12843,-0.53217 0.21156,-0.85942 0.0831,-0.32723 0.30744,-1.69569 0.49849,-3.041 0.32092,-2.25992 0.34365,-2.78304 0.29877,-6.87533 -0.0412,-3.75471 -0.0961,-4.71121 -0.36065,-6.28035 -0.5678,-3.36809 -1.19606,-5.7301 -2.08155,-7.825908 -0.26473,-0.626572 -0.4478,-1.18961 -0.40683,-1.251218 0.19251,-0.289424 0.52773,-0.05433 0.83099,0.582853 0.59037,1.240403 1.6231,4.573673 1.85342,5.982133 0.0476,0.29088 0.21862,1.18335 0.38015,1.98328 0.5423,2.68566 0.58635,12.28761 0.0735,16.00638 -0.39518,2.8651 -1.44381,6.75587 -2.49305,9.25007 -1.37979,3.2799 -3.9301,7.52602 -5.90447,9.83058 -0.53748,0.62736 -0.75738,0.94624 -0.48868,0.70861 0.26869,-0.23762 0.54261,-0.38637 0.60871,-0.33054 0.0661,0.0559 0.0794,0.0351 0.0296,-0.0461 -0.0498,-0.0812 0.0421,-0.25921 0.20436,-0.39563 0.5252,-0.44163 2.43052,-3.24268 3.49416,-5.13682 1.75407,-3.12367 2.83798,-5.45747 3.31845,-7.14507 0.0622,-0.21815 0.33772,-1.17012 0.61246,-2.11548 1.09083,-3.75339 1.41372,-5.86856 1.67527,-10.97408 0.15726,-3.06954 0.17885,-3.23934 0.41193,-3.23934 0.18875,0 0.19218,2.10365 0.007,4.03264 -0.077,0.79993 -0.17546,1.84113 -0.21885,2.31382 -0.30102,3.27908 -1.06422,6.51319 -2.52734,10.70964 -0.97119,2.78554 -2.93828,6.75837 -4.41897,8.92471 -0.95378,1.39545 -2.64576,3.50603 -2.78009,3.46789 -0.14139,-0.0402 -0.90731,0.54932 -2.25586,1.73618 -0.60811,0.5352 -0.89613,0.84256 -0.64005,0.68303 0.25609,-0.1595 1.00848,-0.76749 1.67198,-1.35106 0.66349,-0.58359 1.20636,-1.01447 1.20636,-0.95751 0,0.33461 2.82398,-2.75363 3.9373,-4.30573 1.48254,-2.06682 3.74667,-5.93996 3.74667,-6.40922 0,-0.0526 0.0874,-0.28307 0.19412,-0.51224 0.4722,-1.01349 0.69169,-1.57569 1.22088,-3.1271 0.56688,-1.66192 1.34741,-4.2521 1.49744,-4.96929 0.28687,-1.37119 0.64841,-3.58492 0.73236,-4.48428 0.0689,-0.73818 0.16735,-1.10295 0.32583,-1.20736 0.19982,-0.13165 0.22541,-0.62393 0.21307,-4.09876 -0.0145,-4.07726 -0.13337,-5.56184 -0.63805,-7.96734 -0.9975,-4.754555 -2.7047,-8.268653 -4.99156,-10.274612 -1.11069,-0.974267 -1.9336,-1.163053 -3.15631,-0.724121 l -0.40449,0.145204 0.32252,0.494431 c 0.74648,1.144394 1.14562,1.906775 1.81637,3.469336 1.14117,2.658432 1.73502,4.865192 2.29494,8.528052 0.33487,2.19065 0.38791,2.99437 0.41442,6.28034 0.0214,2.65996 -0.0346,4.34112 -0.19034,5.71618 -0.39771,3.50988 -0.5974,4.58109 -1.34089,7.19304 -0.61833,2.17224 -0.921,2.95692 -1.14056,2.95692 -0.27778,0 -0.27701,-0.22202 0.003,-0.99771 0.33418,-0.92425 1.184,-4.30242 1.34554,-5.34874 0.0617,-0.39997 0.12003,-0.75694 0.12952,-0.79331 0.01,-0.0364 0.0688,-0.45284 0.13189,-0.92552 0.063,-0.47268 0.13635,-0.96766 0.16291,-1.09992 0.16674,-0.83043 0.36464,-6.14947 0.28622,-7.69257 -0.32172,-6.33027 -1.15084,-10.35063 -2.95849,-14.345638 -0.44536,-0.98426 -1.4208,-2.656887 -1.76516,-3.026793 -0.0266,-0.02858 -0.14443,0.02224 -0.26192,0.11283 -0.18606,0.143476 -0.12964,0.316921 0.43728,1.344412 0.373,0.676057 0.61388,1.269253 0.56422,1.389509 -0.13346,0.32315 -0.43423,0.0225 -1.02831,-1.028013 -0.28226,-0.499085 -0.56929,-0.907423 -0.63785,-0.907423 -0.18943,0 -0.17699,0.03328 0.60617,1.623331 1.25187,2.541602 1.96613,4.803725 2.63939,8.359105 0.39727,2.09791 0.4006,2.16219 0.4006,7.73475 0,4.69209 -0.0419,5.89195 -0.25436,7.27198 -0.28828,1.87318 -0.7277,3.98035 -1.03395,4.95817 -0.11388,0.3636 -0.46799,1.49407 -0.78691,2.51214 -1.14343,3.65014 -2.86252,7.49312 -4.65466,10.40541 -0.99626,1.61896 -2.13232,3.26805 -2.55501,3.70884 -0.12204,0.12726 -0.18267,0.23138 -0.13475,0.23138 0.15268,0 1.6069,-1.7621 2.51828,-3.05144 1.76445,-2.49616 4.87426,-8.97707 5.68256,-11.84252 0.0851,-0.30158 0.23982,-0.5787 0.3439,-0.6158 0.47375,-0.16892 0.46281,0.15368 -0.0574,1.693 -2.14087,6.33537 -5.4785,12.21157 -8.81721,15.52351 -0.4698,0.46604 -0.93363,0.94203 -1.03074,1.05774 -0.28831,0.34359 2.03873,-1.62597 2.82427,-2.39039 z m 8.30872,-7.85954 c 0.70211,-1.31727 1.47554,-2.89397 1.71872,-3.50377 0.81998,-2.05616 1.93797,-5.46336 2.2076,-6.72797 0.1473,-0.69085 0.30131,-1.28582 0.34224,-1.32218 0.0409,-0.0364 0.0756,-0.12561 0.0771,-0.19833 0.002,-0.0727 0.0808,-0.51895 0.17641,-0.99163 0.18867,-0.93308 0.21006,-1.08163 0.52369,-3.63599 0.11607,-0.94536 0.2542,-2.05951 0.30694,-2.47587 0.0527,-0.41636 0.15131,-0.72523 0.21902,-0.68635 0.14578,0.0838 0.16563,0.76482 0.0261,0.89451 -0.0534,0.0496 -0.10723,0.55037 -0.11967,1.11283 -0.0182,0.82286 -0.35055,3.59381 -0.54291,4.52643 -0.21837,1.05878 -1.08618,4.23212 -1.51864,5.55315 -1.16526,3.55964 -1.80458,5.04048 -3.29426,7.63038 -1.50433,2.61539 -1.56406,2.52981 -0.12227,-0.17521 z m -0.88123,-9.64299 c -0.0428,-0.0398 0.0425,-0.43184 0.18973,-0.87119 0.14716,-0.43938 0.26758,-0.90904 0.26758,-1.04372 0,-0.28819 0.25675,-0.4715 0.432,-0.30844 0.17029,0.15845 -0.42491,2.29569 -0.63933,2.29569 -0.0947,0 -0.20716,-0.0325 -0.24998,-0.0724 z m -0.31255,-29.89176 c -0.0489,-0.118288 -0.017,-0.295541 0.0709,-0.39387 0.21613,-0.241984 0.69899,-7.52e-4 0.69899,0.349176 0,0.326615 -0.63812,0.363661 -0.76985,0.04466 z m -5.3307,49.56539 c 0.17699,-0.20971 0.17196,-0.21438 -0.0538,-0.0499 -0.13696,0.0998 -0.24902,0.20394 -0.24902,0.23139 0,0.10882 0.11685,0.0388 0.30275,-0.18146 z m -27.141315,-0.0661 c -0.05708,-0.0909 -0.276252,-0.40328 -0.487072,-0.69415 -0.547275,-0.7551 -2.677571,-4.52168 -3.439866,-6.08201 -1.657551,-3.39285 -3.006913,-6.87767 -3.666133,-9.46802 -0.792583,-3.11442 -1.520584,-7.62609 -1.853781,-11.48851 -0.08469,-0.98172 -0.220681,-2.2672 -0.302205,-2.85659 -0.104167,-0.75311 -0.102166,-1.59814 0.0068,-2.84269 0.08523,-0.97407 0.190607,-2.21727 0.234178,-2.76266 0.113903,-1.42582 0.544368,-4.08431 1.115252,-6.88773 0.27257,-1.3385 0.53084,-2.620624 0.573931,-2.849167 0.06876,-0.364661 0.03284,-0.426133 -0.293524,-0.502243 -0.204527,-0.04765 -0.388394,-0.06896 -0.408594,-0.04723 -0.128446,0.13812 -0.840308,2.28711 -1.137087,3.43265 -1.108246,4.27777 -1.640486,11.03918 -1.210808,15.38178 0.378672,3.82711 1.149554,8.73825 1.78281,11.35792 0.90057,3.7255 3.510986,9.68968 5.463309,12.48235 0.28924,0.41373 0.86749,1.245 1.284997,1.84725 0.417509,0.60224 0.820116,1.13004 0.894686,1.17286 0.169252,0.0972 -0.0084,-0.21193 -1.03455,-1.80038 -0.867462,-1.34279 -2.31814,-3.98326 -2.479022,-4.51225 -0.05327,-0.17514 0.259565,0.29445 0.695183,1.04352 1.392933,2.39523 3.309381,5.26647 3.966801,5.94309 0.318116,0.32741 0.456198,0.38934 0.294766,0.13222 z m 21.059705,-1.28913 c 0.77228,-0.94814 1.64503,-2.24441 2.20454,-3.27428 0.24635,-0.45346 0.47992,-0.82448 0.51906,-0.82448 0.10923,0 -0.75847,1.55153 -1.37489,2.45843 -0.75841,1.11583 -0.68882,1.19304 0.15932,0.17673 2.1654,-2.59481 4.31696,-6.64426 6.07172,-11.42764 0.77889,-2.12322 1.71034,-5.84655 1.96802,-7.86696 0.051,-0.39996 0.15127,-1.12321 0.2228,-1.60721 0.29031,-1.96463 0.3483,-3.30524 0.34794,-8.04469 -4.1e-4,-5.09048 -0.10981,-6.45314 -0.71942,-8.95807 -0.11065,-0.45466 -0.23644,-1.01989 -0.27953,-1.25606 -0.1083,-0.59358 -0.70178,-2.657892 -1.01673,-3.536526 -0.24374,-0.679958 -0.28841,-0.725259 -0.68757,-0.697274 -0.3985,0.02789 -0.40499,0.02147 -0.0976,-0.09805 0.43303,-0.16827 0.25659,-0.42017 -0.21696,-0.309735 -0.25816,0.06014 -0.33811,0.04055 -0.26747,-0.06562 0.0554,-0.08333 0.0317,-0.151501 -0.0526,-0.151501 -0.16826,0 -0.12585,0.236243 0.28485,1.586611 0.69494,2.284955 1.32062,5.470025 1.63632,8.329735 0.10838,0.98172 0.26041,2.35017 0.33785,3.041 0.20017,1.7856 0.20637,2.67525 0.0281,4.03265 -0.0859,0.65448 -0.31802,2.64766 -0.51573,4.4293 -0.7053,6.35551 -1.80498,10.55673 -4.14988,15.8542 -1.25553,2.83643 -3.78054,7.1544 -5.22584,8.93664 -0.33502,0.41312 -0.35664,0.471 -0.0987,0.26443 0.18158,-0.14544 0.59668,-0.59167 0.92245,-0.99163 z m 9.85587,-1.75625 c 2.96623,-2.84523 5.6571,-6.25662 7.23991,-9.17845 1.11349,-2.05548 1.34404,-2.29069 0.64685,-0.65993 -0.57959,1.35571 -1.29558,2.56107 -2.5284,4.25654 -0.58164,0.79992 -0.89255,1.2759 -0.69093,1.05774 0.74004,-0.80069 2.30348,-3.0943 3.02473,-4.43731 0.65462,-1.21895 1.71149,-4.05758 2.72912,-7.33007 0.39444,-1.26846 0.94694,-3.86253 1.29789,-6.09388 1.37042,-8.71295 -0.10025,-17.5716 -3.8675,-23.295991 -2.24786,-3.415676 -5.6769,-6.025012 -8.16122,-6.210304 -1.58837,-0.118468 -2.22176,0.224895 -0.90052,0.488174 1.16509,0.232179 2.94561,1.083726 4.1442,1.982003 2.85312,2.138279 5.17627,5.767029 6.41629,10.022238 0.63657,2.18442 0.89296,3.57062 1.156,6.24999 0.56714,5.777 -0.0847,11.92219 -1.87111,17.6392 -2.27053,7.26637 -5.39531,12.37962 -10.20713,16.70246 -1.53458,1.37863 -1.75161,1.60957 -0.92182,0.98082 0.59693,-0.45231 1.71907,-1.43025 2.49364,-2.17323 z m 4.20896,-5.18518 c 0.19257,-0.29088 0.66955,-1.00486 1.05996,-1.58662 0.39041,-0.58175 0.98495,-1.55075 1.32118,-2.15334 0.33625,-0.60258 0.64098,-1.06807 0.67721,-1.0344 0.15511,0.14413 -2.62686,4.5979 -3.18869,5.1049 -0.12088,0.10908 -0.0622,-0.0397 0.13034,-0.33054 z m -2.09826,5.41007 c 5.5171,-5.09596 9.22436,-10.67628 11.67527,-17.57411 1.58377,-4.45734 2.23367,-9.77161 1.75437,-14.34564 -0.23396,-2.23269 -0.23601,-2.18159 0.0882,-2.18159 0.21488,0 0.31001,0.12612 0.39892,0.52887 0.20998,0.95129 0.28846,7.06181 0.11221,8.73888 -0.34167,3.25134 -1.40393,7.26846 -2.84248,10.7493 -0.40254,0.97404 -0.70908,1.79221 -0.68119,1.81813 0.0606,0.0563 0.9639,-1.76237 1.51993,-3.06025 0.69117,-1.61332 1.72917,-4.99378 2.21264,-7.20587 0.14228,-0.65101 0.34279,-2.33139 0.39443,-3.30545 0.042,-0.79333 0.0997,-1.00019 0.28845,-1.03438 0.28745,-0.0521 0.3028,0.33648 0.0868,2.19649 -0.63409,5.45979 -3.20214,12.12866 -6.3667,16.53349 -0.50485,0.70271 -0.7833,1.16531 -0.61877,1.02799 0.53455,-0.44614 2.23584,-3.00727 3.3912,-5.10515 1.12312,-2.03935 2.13125,-4.37982 2.83445,-6.58047 0.52198,-1.63354 0.56577,-1.81113 0.98011,-3.97468 0.11603,-0.60587 0.24101,-1.14675 0.27773,-1.20196 0.0367,-0.0552 0.10625,-0.95771 0.15449,-2.00555 0.0994,-2.15837 0.11411,-2.2357 0.42578,-2.2357 0.18355,0 0.21234,0.10683 0.15149,0.56193 -0.0413,0.30906 -0.11139,1.2164 -0.15572,2.01632 -0.0708,1.27872 -0.1608,1.96358 -0.42546,3.23933 -0.0377,0.1818 -0.13563,0.65779 -0.21757,1.05775 -0.55711,2.71911 -1.89351,6.20945 -3.49482,9.12755 -1.59858,2.91313 -5.01069,7.25749 -7.52523,9.58127 -1.72891,1.59775 -3.94726,3.44468 -5.18464,4.31657 -1.11416,0.78506 -1.0059,0.84082 0.18184,0.0937 2.9967,-1.88511 7.28986,-6.03943 10.09138,-9.76505 2.56656,-3.41314 4.1239,-6.27886 5.46076,-10.04856 0.76367,-2.15338 1.23177,-3.99959 1.55886,-6.14813 0.0443,-0.29088 0.11131,-0.67761 0.14898,-0.85941 0.0376,-0.1818 0.0949,-1.54672 0.12715,-3.03316 0.0322,-1.48642 0.11773,-2.75748 0.18991,-2.82455 0.34668,-0.32211 0.44063,0.12399 0.44063,2.09211 0,5.28292 -1.08736,9.99286 -3.49744,15.14935 -2.0171,4.31568 -4.74893,8.20617 -8.01418,11.4133 -0.69705,0.68462 -0.7256,0.73181 -0.22779,0.37629 1.28338,-0.91653 3.97604,-3.9544 5.82634,-6.57332 2.53499,-3.58802 4.47401,-7.78415 5.74624,-12.43516 2.52098,-9.21617 0.86179,-18.80849 -4.64257,-26.840218 -1.54424,-2.253299 -3.59461,-4.443745 -5.06659,-5.412734 -0.94697,-0.623371 -2.07685,-1.191799 -2.07685,-1.044816 0,0.05091 0.88418,0.929736 1.96486,1.952898 2.8411,2.689891 4.40501,4.707631 6.2072,8.008423 1.04035,1.905458 1.73262,3.569057 2.43641,5.854967 0.58905,1.9132 1.06368,4.23822 0.9118,4.46656 -0.22157,0.33313 -0.50303,-0.003 -0.6864,-0.81893 -0.27447,-1.2217 -0.82483,-3.15955 -1.32714,-4.67288 -2.02948,-6.11436 -6.7439,-12.172944 -11.05882,-14.211881 -0.66631,-0.314843 -1.9966,-0.71856 -2.08798,-0.633655 -0.03,0.02789 0.33357,0.305081 0.80798,0.615945 1.96609,1.288332 4.00965,3.101189 5.37954,4.772251 1.84882,2.255292 2.83291,4.024315 2.11497,3.801957 -0.0965,-0.02986 -0.81375,-0.942184 -1.59388,-2.027313 -2.20723,-3.070179 -4.74651,-5.249811 -7.36757,-6.324126 -0.87307,-0.35786 -1.67962,-0.544079 -1.67236,-0.386136 0.003,0.06032 0.51868,0.396813 1.14645,0.747768 5.68261,3.17688 9.74923,9.537764 11.21482,17.54184 0.4777,2.60888 0.50553,3.00731 0.48511,6.94145 -0.0207,3.99303 -0.14028,5.12707 -0.91065,8.63757 -1.26876,5.78166 -4.31338,11.75914 -8.35058,16.39461 -1.15523,1.32643 -4.03672,4.09933 -5.65348,5.44044 l -0.99607,0.82624 1.19916,-0.84104 c 0.65954,-0.46258 1.71978,-1.3219 2.35608,-1.90963 z m 16.75748,-32.40456 c -0.23673,-0.088 -0.2267,-0.5029 0.0166,-0.6906 0.1477,-0.11391 0.23621,-0.1034 0.36749,0.0435 0.32332,0.36199 0.0568,0.81094 -0.38419,0.64704 z m -6.11471,-11.430855 c -0.21961,-0.204057 -0.0659,-0.512757 0.25523,-0.512757 0.27428,0 0.61686,0.431009 0.45909,0.577599 -0.14307,0.132945 -0.54026,0.09688 -0.71432,-0.06485 z M 71.899609,143.91729 c 0,-0.0423 -0.826682,-0.86937 -1.837074,-1.83813 -3.53025,-3.38478 -6.228223,-6.96395 -8.473299,-11.24081 -2.177267,-4.14768 -3.381166,-7.6752 -4.233179,-12.40353 -0.430521,-2.38923 -0.470937,-8.62954 -0.06996,-10.80069 0.791288,-4.2845 1.950576,-7.770714 3.671248,-11.040185 1.839749,-3.495738 5.420984,-7.000721 8.594381,-8.411388 0.841973,-0.374286 1.040381,-0.50699 0.762039,-0.509677 -0.459279,-0.0051 -2.141158,0.467054 -2.833904,0.794448 -0.782617,0.36988 -2.68182,1.723598 -3.533269,2.518456 -0.925114,0.863627 -2.868574,3.096067 -3.529762,4.054601 -0.492916,0.71459 -0.896955,0.903983 -0.896955,0.420469 0,-0.319497 0.485691,-1.0073 2.000865,-2.833456 1.710807,-2.061938 3.577028,-3.674999 5.554512,-4.801023 l 0.768925,-0.437837 -0.640331,0.08102 c -0.865998,0.109561 -2.412646,0.819746 -3.725771,1.710793 -1.265979,0.859055 -2.902899,2.54639 -4.1455,4.2732 -0.854022,1.186803 -1.377956,1.558189 -1.377956,0.976739 0,-0.494508 2.335274,-3.377021 4.11157,-5.075064 0.970032,-0.92728 1.683359,-1.685974 1.585173,-1.685974 -0.09819,0 -0.562813,0.190317 -1.032512,0.422933 -1.779128,0.881106 -4.164612,3.384564 -6.04113,6.339885 -2.868457,4.51754 -4.546806,9.65711 -5.036774,15.42399 -0.537224,6.32313 1.411653,13.90977 5.322061,20.71787 0.726992,1.2657 2.54623,3.97495 2.796671,4.16486 0.04795,0.0364 0.54647,0.63134 1.107823,1.32218 0.56135,0.69084 1.383619,1.61306 1.827261,2.04938 0.951183,0.93547 0.915869,0.88021 -0.760314,-1.18996 -4.549953,-5.61943 -7.70763,-12.27604 -8.874867,-18.70883 -0.426914,-2.35277 -0.472934,-8.45064 -0.08132,-10.77575 0.640376,-3.80213 2.00333,-7.986105 3.514024,-10.787324 0.567283,-1.051883 0.677767,-1.181071 0.932411,-1.090272 0.227341,0.08102 0.270742,0.453554 0.07523,0.645693 -0.23646,0.232385 -1.68707,3.550074 -2.193897,5.017663 -1.352936,3.91763 -1.846267,6.63195 -1.994549,10.97408 -0.140248,4.10677 0.356706,7.11245 1.912805,11.56906 0.728279,2.08576 2.472444,5.60459 3.70801,7.48088 0.934169,1.41859 3.423696,4.77057 4.273576,5.75407 1.948215,2.25456 5.161496,5.39563 6.445861,6.301 0.622067,0.4385 0.192179,-0.0227 -1.584012,-1.69926 -2.281813,-2.15387 -2.91208,-2.78127 -3.764747,-3.74767 -0.188691,-0.21386 -0.492235,-0.52254 -0.67454,-0.68598 -0.182305,-0.16344 -0.348494,-0.40495 -0.369304,-0.53669 -0.02081,-0.13175 -0.122446,-0.23954 -0.225859,-0.23954 -0.103409,0 -0.217672,-0.0827 -0.253914,-0.18369 -0.04291,-0.11961 -0.0044,-0.14832 0.110625,-0.0823 0.09708,0.0558 -0.05312,-0.21859 -0.333783,-0.60962 -0.280665,-0.39106 -0.681127,-1.0085 -0.889917,-1.3721 -0.20879,-0.36359 -0.766925,-1.28582 -1.240302,-2.04938 -3.553323,-5.7315 -5.705703,-12.36659 -5.790222,-17.8494 -0.02763,-1.79241 -0.03909,-1.71883 0.267462,-1.71883 0.237885,0 0.260715,0.10677 0.23325,1.0908 -0.01674,0.59993 0.02045,1.56677 0.08263,2.14853 0.06219,0.58177 0.154378,1.44448 0.204862,1.91716 0.123642,1.15766 0.952026,4.48246 1.575634,6.32398 0.495264,1.46251 1.47231,3.77758 1.559923,3.69617 0.02416,-0.0224 -0.334036,-1.1837 -0.796007,-2.58056 -1.072694,-3.24347 -1.938023,-7.2976 -1.980876,-9.28055 -0.01166,-0.53985 -0.02509,-1.01583 -0.02981,-1.05775 -0.04122,-0.36474 0.05929,-0.67117 0.220157,-0.67117 0.141728,0 0.22127,0.2983 0.290874,1.0908 0.0527,0.59993 0.129486,1.47753 0.170656,1.95021 0.08478,0.97337 0.737723,3.84086 1.279533,5.61926 1.129495,3.70737 3.698733,8.83254 6.296654,12.5607 1.64043,2.35409 5.169753,6.34264 6.907759,7.80658 1.042358,0.87798 1.081173,0.90588 1.081173,0.77694 z M 60.761096,133.58187 c -1.956194,-2.76492 -2.586985,-3.79368 -3.627847,-5.91675 -0.854671,-1.74328 -2.157224,-5.2274 -2.570363,-6.87531 -0.620773,-2.47611 -1.080577,-6.41258 -0.749033,-6.41258 0.230665,0 0.268855,0.16686 0.348042,1.52051 0.222924,3.81081 1.837925,8.85884 4.295091,13.42525 1.069867,1.98824 2.624179,4.51402 3.617218,5.87801 0.516226,0.70906 0.60693,0.85996 0.516908,0.85996 -0.04182,0 -0.865336,-1.11559 -1.830016,-2.47909 z M 58.465411,96.841619 c -0.111286,-0.269473 0.152652,-0.578224 0.494292,-0.578224 0.353277,0 0.461663,0.205768 0.277139,0.526138 -0.184786,0.320831 -0.647539,0.352076 -0.771431,0.0521 z m 38.390237,46.418351 c 0.04861,-0.11767 0.02469,-0.17074 -0.0559,-0.12442 -0.07734,0.0444 -0.140664,0.13677 -0.140664,0.20519 0,0.19018 0.101987,0.14828 0.196592,-0.0808 z m -24.017546,-0.47632 c 0.06291,-0.0946 0.03905,-0.11678 -0.06274,-0.0583 -0.09036,0.0518 -0.164283,0.0214 -0.164283,-0.0677 0,-0.0891 -0.03845,-0.12635 -0.0854,-0.0827 -0.0814,0.0756 0.04238,0.36138 0.156543,0.36138 0.02989,0 0.100041,-0.0687 0.155881,-0.15265 z m 15.275875,-1.70777 c -0.236857,-0.97657 -0.52086,-2.10282 -0.631123,-2.50278 -0.442121,-1.60372 -0.999582,-5.32646 -1.574008,-10.51132 -0.12891,-1.16351 -0.391665,-2.67898 -0.58391,-3.36769 -0.486289,-1.74214 -0.520049,-1.75119 -0.753638,-0.2022 -0.41443,2.74824 0.318637,9.32633 1.421878,12.75903 0.840743,2.61596 1.33307,3.9906 1.507764,4.20988 0.126188,0.15838 0.120537,0.0539 -0.02033,-0.37556 -0.539342,-1.6445 -1.06551,-3.56369 -1.054628,-3.84676 0.01105,-0.28671 0.02513,-0.27897 0.142798,0.0785 0.07181,0.21815 0.155502,0.51564 0.185988,0.66109 0.250586,1.19551 1.60739,5.04288 1.736202,4.92319 0.02948,-0.0275 -0.140143,-0.84886 -0.377003,-1.82543 z m 6.89182,1.65522 c 0.04861,-0.11768 0.02469,-0.17074 -0.0559,-0.12442 -0.07734,0.0444 -0.140664,0.13677 -0.140664,0.20519 0,0.19018 0.101995,0.14829 0.196592,-0.0808 z m 2.46383,-0.59428 c 0.477028,-0.83727 1.377693,-3.0865 2.088849,-5.21644 0.867364,-2.59782 1.476524,-6.23512 1.605524,-9.58666 0.0917,-2.38289 -0.0208,-4.21856 -0.24581,-4.0095 -0.4315,0.40094 -1.113805,3.44302 -1.344307,5.99363 -0.248361,2.74832 -1.244745,8.04293 -2.015413,10.70965 -0.483835,1.67419 -0.607514,2.16634 -0.556354,2.21388 0.12151,0.11289 1.649084,-4.60295 1.649084,-5.09097 0,-0.16288 0.05839,-0.29614 0.129672,-0.29614 0.243774,0 -1.039666,4.48664 -1.548589,5.41357 -0.158746,0.28912 -0.288632,0.56774 -0.288632,0.61911 0,0.14697 0.07931,0.0339 0.525976,-0.75013 z m -9.473242,0.31357 c -0.167744,-0.26804 -0.208249,-0.18224 -0.07093,0.15023 0.0488,0.11817 0.118704,0.18701 0.155342,0.15296 0.03663,-0.034 -0.0012,-0.17047 -0.0844,-0.30319 z m 22.821105,-0.17519 c 0.14165,-0.14545 0.22553,-0.26444 0.1864,-0.26444 -0.0391,0 -0.18705,0.11899 -0.3287,0.26444 -0.14166,0.14544 -0.22553,0.26443 -0.1864,0.26443 0.0391,0 0.18704,-0.11899 0.3287,-0.26443 z m -39.506219,-1.16028 c -0.549878,-0.63445 -1.202745,-1.46034 -1.450815,-1.83534 -0.248069,-0.37498 -0.831966,-1.2377 -1.297546,-1.91716 -2.040126,-2.97725 -4.712248,-8.53326 -5.903848,-12.27554 -0.614097,-1.92859 -1.295611,-4.92173 -1.62567,-7.13976 -0.292282,-1.96414 -0.303677,-7.63029 -0.01969,-9.78412 1.041745,-7.90049 4.100139,-14.061334 8.265429,-16.64994 1.183771,-0.735689 2.932615,-1.405576 4.019028,-1.539487 0.631711,-0.07785 0.714307,-0.119777 0.565145,-0.286769 -0.13809,-0.154606 -0.444097,-0.183687 -1.46052,-0.138804 -2.14085,0.09454 -3.769099,0.886407 -5.916944,2.877607 -2.591088,2.402105 -4.529983,5.952256 -5.84645,10.704963 -1.08017,3.89963 -1.321942,5.80825 -1.29904,10.25503 0.01884,3.65787 0.30648,5.92897 1.230812,9.71801 1.120109,4.59159 1.518122,5.70318 3.077231,8.59416 1.460693,2.7085 3.57487,5.7745 5.060018,7.33809 l 0.376752,0.39666 -0.351485,-0.46276 c -1.283308,-1.68959 -1.759735,-2.3647 -2.705795,-3.83433 -1.757996,-2.73087 -4.003462,-7.1311 -3.756264,-7.36079 0.04809,-0.0447 0.129199,0.0314 0.180236,0.16906 0.314535,0.84847 1.353029,2.99806 2.133006,4.41516 1.027306,1.86645 3.200582,5.09039 3.431452,5.09039 0.08366,0 0.691683,0.74373 1.351145,1.65272 0.659458,0.909 1.272547,1.63856 1.362415,1.62126 0.08987,-0.0173 0.131583,0.0455 0.0927,0.1397 -0.03888,0.0941 0.219556,0.42394 0.574305,0.7329 0.354745,0.30893 0.644994,0.62144 0.644994,0.69445 0,0.073 0.06057,0.098 0.13458,0.0554 0.07402,-0.0425 -0.315321,-0.59637 -0.865199,-1.23081 z m -4.14978,-4.94364 c -1.432882,-2.2752 -2.206498,-3.60306 -3.068455,-5.26682 -0.900336,-1.73781 -1.617817,-3.43766 -1.450993,-3.43766 0.05426,0 0.209893,0.32792 0.345861,0.7287 0.33849,0.99777 2.354889,4.73717 3.842942,7.12674 0.675326,1.08444 1.200874,1.99682 1.167883,2.02746 -0.03299,0.0307 -0.409747,-0.49964 -0.837238,-1.17842 z m 22.809667,4.78174 c 0,-0.0727 -0.06782,-0.13222 -0.150694,-0.13222 -0.08288,0 -0.111122,0.0595 -0.06275,0.13222 0.04837,0.0727 0.116183,0.13222 0.150695,0.13222 0.03453,0 0.06275,-0.0595 0.06275,-0.13222 z m 3.483847,-4.16487 c 0.05161,-0.65447 0.124939,-5.59189 0.162921,-10.97204 l 0.06902,-9.78211 0.416555,-1.94832 c 1.142176,-5.34218 2.779308,-7.68294 6.048049,-8.64744 2.6346,-0.77739 5.27161,-0.11127 7.3931,1.86753 1.62732,1.51785 2.49018,3.45265 2.49018,5.58371 0,2.75258 -2.0985,5.02976 -4.29169,4.6571 -1.83599,-0.31195 -2.94084,-2.44117 -1.57595,-3.03713 0.77735,-0.3394 0.56971,-1.18996 -0.29048,-1.18996 -0.53255,0 -1.16212,0.5833 -1.389,1.28692 -0.64279,1.99347 1.61593,4.1982 4.06079,3.96375 2.02254,-0.19397 3.82594,-1.92102 4.41016,-4.22344 1.05702,-4.16573 -2.17056,-8.9991 -6.68681,-10.01369 -0.39132,-0.0879 -1.25675,-0.18233 -1.92319,-0.20982 -2.27899,-0.094 -4.06638,0.55188 -5.691182,2.05652 -0.510432,0.47268 -1.075634,1.14215 -1.256004,1.48771 -0.387464,0.74231 -0.883818,2.24835 -0.925907,2.80937 -0.02255,0.30068 -0.107603,0.40703 -0.35148,0.43955 -0.393363,0.0525 -0.439414,0.27338 0.904601,-4.33998 1.184857,-4.06707 3.840983,-8.976119 5.998782,-11.086959 0.56348,-0.551215 0.98991,-1.033925 0.94764,-1.072699 -0.14492,-0.132875 -3.021388,-0.05792 -3.350662,0.08724 -0.180961,0.07982 -0.684782,0.29881 -1.119609,0.48668 -2.496754,1.078721 -4.132317,3.79495 -4.110196,6.825898 l 0.006,0.85941 0.550112,-1.43078 c 1.214282,-3.158247 2.379394,-4.644398 4.380849,-5.587968 0.371268,-0.17502 0.755063,-0.318471 0.852891,-0.318779 0.365216,-7.87e-4 0.152616,0.338388 -0.359239,0.57369 -2.416553,1.110933 -3.970466,3.543709 -4.866647,7.619137 -0.794572,3.61336 -0.75689,2.68845 -0.800248,19.63847 -0.03687,14.4048 0.02178,17.09909 0.296332,13.61843 z m 1.069614,-33.08947 c 0,-0.20616 0.05462,-0.43138 0.121313,-0.50046 0.0667,-0.0691 0.205003,-0.4231 0.307272,-0.7867 0.493653,-1.75501 1.941164,-4.189744 3.216116,-5.409554 0.788501,-0.75439 1.09537,-0.571414 0.361245,0.215411 -1.348088,1.444854 -3.054762,4.533533 -3.371269,6.101203 -0.05504,0.27258 -0.217058,0.5473 -0.366647,0.62168 -0.233211,0.11598 -0.26803,0.0846 -0.26803,-0.24158 z m -1.994393,19.76853 c -0.0012,-8.54914 -0.06175,-15.64087 -0.140926,-16.52872 -0.222964,-2.50023 -0.878455,-5.11324 -1.699471,-6.77467 -0.856954,-1.734145 -2.325609,-3.383202 -3.671309,-4.122278 -0.579553,-0.318299 -0.809112,-0.703665 -0.419173,-0.703665 0.267256,0 1.339983,0.663745 2.133957,1.320372 1.261648,1.043421 2.576547,3.198665 3.247866,5.323561 0.178055,0.56358 0.383498,1.02469 0.456546,1.02469 0.07818,0 0.102497,-0.5303 0.05912,-1.28912 -0.193705,-3.388369 -2.149582,-6.078811 -5.106278,-7.024015 -0.975381,-0.311823 -2.354006,-0.466002 -3.108141,-0.347611 l -0.576374,0.09047 0.96255,0.962726 c 0.959314,0.959483 2.198386,2.839068 4.056322,6.15315 1.068681,1.90626 2.515244,5.82189 2.930735,7.93308 0.320918,1.63064 0.319745,1.58661 0.04229,1.58661 -0.208342,0 -0.293253,-0.18201 -0.439406,-0.94193 -0.412994,-2.1473 -2.138952,-4.40264 -4.031427,-5.26795 -1.839607,-0.84113 -4.198713,-0.96911 -6.317596,-0.34273 -2.847358,0.84175 -5.334299,3.32635 -6.090305,6.08457 -0.24613,0.89799 -0.280959,3.02076 -0.06392,3.8957 0.440249,1.77479 1.996764,3.51642 3.507332,3.92447 2.173911,0.5872 4.289883,-0.35039 4.948434,-2.19268 0.440668,-1.23276 -0.08899,-2.52932 -1.17725,-2.88182 -0.440744,-0.14277 -1.026284,0.007 -1.02922,0.26331 -0.0012,0.0932 -0.04055,0.3034 -0.08774,0.46702 -0.0753,0.26106 -0.03247,0.29748 0.349611,0.29748 0.554767,0 0.878442,0.40975 0.878442,1.11204 0,1.29617 -1.760764,2.36391 -3.382352,2.05107 -1.670798,-0.32234 -3.005837,-2.31029 -3.104151,-4.62224 -0.09008,-2.11825 0.758257,-4.0783 2.436932,-5.63044 2.352961,-2.17561 5.616705,-2.78384 8.391938,-1.56393 2.13245,0.93736 3.393174,2.62522 4.401711,5.89302 1.03932,3.36756 0.96703,2.42983 1.084265,14.06511 0.05862,5.81758 0.136222,10.72617 0.172455,10.90797 0.03622,0.1818 0.07405,0.67266 0.08404,1.0908 0.01001,0.41814 0.08219,0.76025 0.160455,0.76025 0.09404,0 0.14153,-5.07797 0.140043,-14.97367 z m -1.774835,-19.70045 c -0.03332,-0.0909 -0.194919,-0.54496 -0.359082,-1.00901 -0.518299,-1.46513 -1.712262,-3.496505 -2.91953,-4.967223 -0.250743,-0.305448 -0.314668,-0.474959 -0.203247,-0.538945 0.280797,-0.161246 1.778268,1.689396 2.623925,3.242778 0.579758,1.06495 1.383271,3.15502 1.275321,3.31731 -0.11511,0.17307 -0.346585,0.14815 -0.417387,-0.0449 z m -13.022308,12.30751 c -0.581037,-0.74529 -0.995431,-2.05303 -0.995431,-3.14136 0,-2.68613 1.981509,-5.20208 4.783048,-6.07311 2.513676,-0.78153 4.479555,-0.31301 6.42274,1.53072 0.567408,0.53836 1.031045,0.93052 1.03031,0.87147 -0.0036,-0.28922 -0.946475,-1.58382 -1.535363,-2.1081 -2.282495,-2.03213 -5.808837,-2.00117 -8.475234,0.0744 -1.835445,1.42873 -2.794785,3.3578 -2.794575,5.6194 1.01e-4,1.04573 0.05234,1.30162 0.408715,2.00156 0.40485,0.79516 1.209219,1.77571 1.456651,1.77571 0.07065,0 -0.06473,-0.24781 -0.300861,-0.55067 z m 30.595257,-0.19782 c 0.68655,-0.72656 1.01426,-1.52712 1.0998,-2.68675 0.19106,-2.59014 -1.14604,-5.12898 -3.42161,-6.49675 -2.07178,-1.2453 -4.32704,-1.40428 -6.356879,-0.4481 -0.835589,0.39362 -2.077154,1.5537 -2.508045,2.34347 -0.463953,0.85034 -0.427497,0.90832 0.139437,0.22172 2.239931,-2.71269 6.200387,-3.06278 9.162017,-0.8099 2.24394,1.70695 3.06134,5.01238 1.81276,7.33048 -0.20718,0.38463 -0.51597,0.84129 -0.68621,1.01478 -0.30766,0.31353 -0.30772,0.31457 -0.009,0.17032 0.16535,-0.0798 0.51077,-0.36747 0.76759,-0.63927 z m -33.648476,-8.89137 c 1.015522,-1.61549 3.228401,-3.2807 5.273383,-3.96827 0.665746,-0.22383 1.399201,-0.40696 1.629898,-0.40696 0.230696,0 0.419447,-0.058 0.419447,-0.12892 0,-0.0709 -0.176089,-0.10345 -0.391313,-0.0724 -0.21522,0.0311 -0.679461,0.0908 -1.031642,0.13257 -1.119371,0.1329 -2.392655,0.60094 -3.272997,1.20312 -0.978941,0.66961 -1.134517,0.58658 -0.266381,-0.14219 0.837771,-0.70327 2.153554,-1.24086 3.147097,-1.2858 0.948787,-0.0429 1.1041,-0.22666 0.214409,-0.25365 -1.614033,-0.0489 -2.313263,0.17343 -3.4382,1.09351 -0.419746,0.3433 -0.652804,0.46311 -0.652804,0.33559 0,-0.22893 1.149728,-1.20679 1.778697,-1.51281 0.23479,-0.11423 0.77907,-0.3133 1.209518,-0.44237 l 0.782623,-0.23466 -0.782623,-0.004 c -0.983508,-0.005 -1.863987,0.35188 -2.668049,1.0823 -0.80359,0.72998 -0.775492,0.43492 0.03872,-0.40653 0.659857,-0.68195 1.617958,-1.21465 2.184619,-1.21465 0.176575,0 0.279915,-0.059 0.23127,-0.13222 -0.307404,-0.46216 -2.038387,0.23628 -2.968881,1.19791 -0.800848,0.82766 -1.290435,1.9698 -1.6523,3.85462 -0.157572,0.82074 -0.326337,1.67075 -0.375031,1.88892 -0.112294,0.5031 -0.05923,0.45072 0.590545,-0.58294 z m 36.693596,0.0871 c -0.53137,-3.52142 -1.48338,-5.61441 -2.975,-6.54051 -0.53138,-0.32991 -1.41038,-0.601523 -1.74198,-0.538263 -0.1616,0.0308 0.0292,0.167793 0.53896,0.386873 0.83983,0.36094 1.75331,1.03289 2.01001,1.47856 0.1174,0.20384 -0.0154,0.15458 -0.53905,-0.19986 -0.96208,-0.65123 -1.82014,-1.03427 -2.28999,-1.02225 -0.3563,0.009 -0.33864,0.028 0.1722,0.18447 l 0.56919,0.1743 -0.88095,0.0139 c -1.07174,0.0168 -1.29261,0.19975 -0.29472,0.24403 0.97303,0.0432 2.10172,0.55025 2.87899,1.29336 0.79391,0.75902 0.85286,1.06203 0.0805,0.41365 -0.63676,-0.53453 -1.69142,-1.06412 -2.40468,-1.20748 -0.26323,-0.0529 -0.90357,-0.0512 -1.42297,0.004 l -0.94437,0.10012 1.17231,0.16185 c 0.64864,0.0896 1.50675,0.31402 1.921,0.50251 0.70988,0.32301 2.18648,1.54291 1.86759,1.54291 -0.0824,0 -0.2702,-0.12354 -0.41726,-0.27454 -0.81469,-0.83645 -3.36101,-1.66759 -4.62158,-1.5085 -1.09048,0.13763 -1.07094,0.28474 0.0483,0.36339 2.45632,0.17262 4.73349,1.58137 6.83635,4.22928 0.45964,0.57878 0.49719,0.59581 0.43721,0.19832 z m -11.08783,-6.24728 c 1.73075,-1.593464 2.33295,-2.074686 2.48615,-1.986709 0.2636,0.151372 0.16325,0.302043 -0.72261,1.084873 -0.82098,0.725496 -2.225648,2.290126 -2.055987,2.290126 0.181237,0 2.934017,-2.252208 3.832407,-3.135522 0.84949,-0.835223 1.22944,-1.059112 1.22872,-0.724053 -1.1e-4,0.05022 -0.25992,0.359101 -0.57737,0.68634 -1.53727,1.584715 -1.99715,2.115495 -1.8329,2.115495 0.31786,0 1.63016,-1.01002 2.43198,-1.871774 0.4292,-0.461287 1.29719,-1.463428 1.92888,-2.226982 1.96788,-2.378722 3.97748,-3.953167 5.68354,-4.452868 0.41883,-0.122686 0.76152,-0.263946 0.76152,-0.313936 0,-0.214555 -1.33635,-0.420837 -2.31295,-0.35703 -1.88362,0.123054 -4.10293,1.145471 -6.2113,2.86151 -1.27348,1.036508 -3.60534,3.447527 -4.41476,4.564629 -1.229146,1.696381 -2.462197,3.876351 -1.614407,2.854191 0.211099,-0.25452 0.83619,-0.87925 1.389087,-1.38829 z m 4.07983,-4.205854 c -0.3245,-0.363301 3.93863,-3.770815 4.29888,-3.436089 0.18196,0.169074 0.0634,0.284659 -1.2322,1.201475 -0.72714,0.514554 -1.65925,1.266798 -2.07135,1.671678 -0.41211,0.404881 -0.76984,0.736151 -0.79495,0.736151 -0.0251,0 -0.11529,-0.07794 -0.20038,-0.173215 z m -19.238307,5.253904 c -0.348912,-0.33256 -1.210683,-0.93434 -1.915047,-1.33728 -1.550597,-0.88705 -3.201631,-1.917578 -3.293531,-2.055758 -0.03699,-0.05561 -0.02855,-0.159184 0.01872,-0.230238 0.04794,-0.07212 0.44477,0.09687 0.897745,0.382243 0.446502,0.28128 1.484165,0.85343 2.305925,1.271426 1.545145,0.785957 2.913367,1.638657 3.592965,2.239187 0.780256,0.68949 0.367794,0.0525 -0.553746,-0.85525 -1.166423,-1.1489 -2.356095,-1.989941 -3.750697,-2.651581 -0.586971,-0.278473 -1.387387,-0.779689 -1.778701,-1.113816 -1.119173,-0.955625 -2.859511,-2.198945 -4.446741,-3.176814 -1.270627,-0.782821 -1.769717,-1.254905 -1.326681,-1.254905 0.353785,0 4.206836,2.571709 5.84457,3.900944 0.508708,0.412889 1.245091,0.90217 1.636404,1.087277 1.019552,0.482308 2.623034,1.457148 3.187449,1.937815 0.266107,0.22663 0.431048,0.3228 0.366535,0.21372 -0.578108,-0.977463 -1.587496,-2.097696 -3.470062,-3.851147 -2.167045,-2.018407 -3.248169,-2.803683 -4.970743,-3.610493 -0.920556,-0.431181 -2.926653,-0.861309 -4.035234,-0.865219 -0.880805,-0.0034 -2.248165,0.226336 -2.248165,0.37723 0,0.05159 0.380067,0.255852 0.844591,0.453963 1.66292,0.709244 4.326629,2.782551 5.870672,4.569455 1.844694,2.134873 3.376951,3.326481 5.032348,3.913601 0.3868,0.13718 1.151502,0.474 1.69934,0.74847 0.54784,0.27447 1.025412,0.50192 1.061272,0.50544 0.03586,0.003 -0.22027,-0.2657 -0.569185,-0.59827 z m -4.76096,-6.024054 C 79.818352,95.4132 78.809831,94.72147 78.125034,94.311721 c -0.684797,-0.409749 -1.245089,-0.78922 -1.245089,-0.843257 0,-0.308118 0.410142,-0.152468 1.729542,0.656353 1.748731,1.072005 3.103757,2.18731 2.895071,2.382897 -0.09537,0.08938 -0.470788,-0.127887 -1.138365,-0.658808 z m -5.347948,2.085807 c -0.03259,-0.02609 -0.251393,-0.08743 -0.48618,-0.136229 -0.311759,-0.06485 -0.369322,-0.05253 -0.213445,0.04543 0.192152,0.120829 0.842413,0.205169 0.699625,0.09075 z m 36.116445,-0.296799 c -0.0473,-0.04397 -0.17002,-0.04859 -0.27274,-0.01044 -0.11351,0.04226 -0.0798,0.07358 0.086,0.07991 0.15,0.0051 0.23405,-0.02558 0.18677,-0.06947 z m -0.4595,-0.316776 c 0.18765,-0.07495 0.21189,-0.116107 0.0712,-0.120898 -0.1174,-0.0043 -0.3095,0.05048 -0.42689,0.120898 -0.26012,0.156189 -0.0355,0.156189 0.35573,0 z M 91.45736,93.552299 c -0.382949,-1.075846 -0.686763,-2.203 -0.733539,-2.721447 -0.141318,-1.566228 0.241264,-2.156652 0.527943,-0.81475 0.215881,1.010483 0.75022,2.646493 1.263134,3.867373 0.485277,1.155087 0.375591,1.274445 1.275819,-1.388286 0.31961,-0.945366 0.624576,-2.063092 0.6777,-2.483852 0.121321,-0.960892 0.39561,-0.932992 0.456116,0.04646 0.0493,0.797185 -0.232079,2.377191 -0.734185,4.123217 -0.182985,0.636298 -0.317321,1.15691 -0.298527,1.15691 0.08818,0 1.367841,-2.008723 1.648175,-2.587195 0.253111,-0.522314 0.317166,-0.902221 0.321711,-1.90822 0.0077,-1.678588 -0.312426,-2.43007 -1.574037,-3.696216 -1.298838,-1.303509 -1.33959,-1.317112 -2.174315,-0.725636 -1.55166,1.099511 -2.295094,2.310561 -2.3967,3.904218 -0.08574,1.344866 0.219992,2.292876 1.168984,3.624755 0.414515,0.581757 0.837291,1.206327 0.939502,1.387934 0.410883,0.730042 0.250613,-0.04791 -0.367781,-1.785218 z m 0.152618,-4.021778 c -0.100711,-0.426048 0.02513,-0.767891 0.214844,-0.583674 0.188496,0.183019 0.221778,0.877107 0.04472,0.932504 -0.0907,0.0284 -0.207504,-0.128598 -0.259561,-0.34883 z m 1.019736,0.168261 c -0.160613,-0.149234 -0.111731,-2.27005 0.05453,-2.365521 0.275882,-0.15844 0.333387,0.06956 0.294402,1.167185 -0.03695,1.040897 -0.139481,1.392945 -0.348932,1.198336 z m 1.041131,-0.69635 c 0,-0.442371 0.06285,-0.804321 0.139583,-0.804321 0.337865,0 0.373635,1.452101 0.03824,1.554388 -0.129201,0.03936 -0.177866,-0.165811 -0.177866,-0.750067 z m 36.769075,5.654931 c -0.74117,-1.351274 -2.6575,-4.2439 -3.5215,-5.315585 -1.46931,-1.822461 -5.15955,-5.110206 -5.73583,-5.110206 -0.0624,0 0.14121,0.190181 0.45253,0.422608 0.81039,0.605063 3.37738,3.061914 4.25538,4.072807 1.09677,1.262781 2.29143,2.873946 3.64516,4.915984 0.65953,0.994886 1.22014,1.789376 1.2458,1.765523 0.0256,-0.02378 -0.12803,-0.361855 -0.34154,-0.751131 z m -24.10119,-1.831632 c 0.60885,-0.472674 1.58293,-1.365151 2.16463,-1.983269 1.90622,-2.025591 3.91353,-3.612432 5.51578,-4.360406 0.88333,-0.412358 2.19101,-0.790178 2.79667,-0.808008 0.39171,-0.01155 0.38866,-0.01626 -0.0931,-0.145965 -0.83085,-0.223633 -1.8269,-0.03747 -3.61492,0.675594 -0.93166,0.37154 -1.71943,0.651836 -1.75061,0.622858 -0.19642,-0.182498 1.14169,-0.812893 3.2311,-1.522196 0.67066,-0.227671 0.72114,-0.266667 0.35287,-0.272562 -0.59952,-0.0097 -2.40589,0.470203 -3.34109,0.887463 -0.43044,0.192063 -1.19238,0.634631 -1.69319,0.98349 -0.87034,0.606269 -1.29502,0.774762 -1.29502,0.513784 0,-0.211295 2.10269,-1.599811 2.95214,-1.949458 1.58137,-0.650912 3.64102,-0.836925 5.44331,-0.491625 0.24052,0.04611 0.30965,0.02455 0.21345,-0.06656 -0.25184,-0.238493 -1.8109,-0.545046 -2.77196,-0.545046 -3.20785,0 -7.45464,2.483878 -9.88623,5.782272 l -0.6596,0.894726 1.1583,-1.156901 c 0.63706,-0.636296 1.21352,-1.156907 1.28102,-1.156907 0.10927,0 -0.90135,1.383063 -1.69981,2.326248 -0.38607,0.456034 -0.38417,0.755212 0.002,0.318102 0.8337,-0.94363 2.15944,-2.252816 2.22223,-2.194484 0.0394,0.03662 -0.18002,0.41152 -0.48766,0.833063 -0.8288,1.135676 -0.83414,1.145771 -0.52357,0.989017 0.1464,-0.07383 0.81056,-0.630182 1.47591,-1.236202 1.64904,-1.502002 2.51245,-2.139131 2.77297,-2.046235 0.32713,0.116637 0.26111,0.252909 -0.2922,0.603069 -1.24707,0.789203 -4.61557,4.161062 -5.88214,5.888009 -0.39898,0.543994 -0.72541,1.026986 -0.72541,1.073314 0,0.04637 0.45608,-0.29377 1.01353,-0.755759 0.55744,-0.46198 1.51169,-1.226715 2.12053,-1.699389 z m -50.644727,0.727202 c 1.859286,-3.020198 3.993701,-5.617835 6.444294,-7.842849 0.899986,-0.817145 1.433738,-1.379978 1.186112,-1.25073 -0.779965,0.407088 -3.868616,3.352374 -4.961503,4.731214 -1.208796,1.525075 -2.939908,4.163937 -3.4771,5.300416 -0.511603,1.082323 -0.24531,0.773239 0.808197,-0.938051 z m 26.012158,0.637325 c -0.712097,-0.973566 -3.045972,-3.679425 -4.237245,-4.912604 -0.841832,-0.871447 -1.022284,-1.127898 -0.862359,-1.225559 0.152791,-0.09331 0.46318,0.143398 1.26946,0.968149 0.586971,0.600409 1.375737,1.389899 1.752813,1.754432 0.662826,0.640757 0.677682,0.647396 0.447288,0.200011 -0.131067,-0.254526 -0.466249,-0.775146 -0.744846,-1.156944 -0.524913,-0.719353 -0.546203,-1.103084 -0.03037,-0.547566 0.161496,0.173924 0.650874,0.78025 1.087513,1.347386 0.43664,0.567145 0.822843,1.004271 0.85823,0.971393 0.0945,-0.0878 -0.46959,-1.083367 -1.18219,-2.086455 -0.342746,-0.482445 -0.623172,-0.925483 -0.623172,-0.984508 0,-0.204348 1.020734,0.807974 1.743866,1.729493 0.399449,0.509036 0.782833,0.985021 0.851965,1.057743 0.182939,0.192431 -0.09403,-0.44848 -0.54906,-1.270536 -0.216986,-0.392001 -0.521219,-0.950727 -0.67608,-1.241606 -0.446763,-0.839167 -1.6311,-2.439646 -2.465797,-3.332199 -2.138641,-2.286888 -4.969316,-3.364925 -7.932304,-3.020951 -1.058008,0.122832 -0.903151,0.257684 0.251248,0.218799 1.905509,-0.06425 4.324887,0.798931 6.119774,2.183255 0.904869,0.697881 1.131855,0.9762 0.796156,0.9762 -0.08397,0 -0.61137,-0.333485 -1.171985,-0.741069 -1.915902,-1.392914 -3.408299,-1.912191 -5.424635,-1.887465 l -1.290407,0.01583 1.067218,0.162119 c 1.268431,0.192695 3.241458,0.921026 4.377117,1.615793 1.214342,0.742909 3.418383,2.762993 3.219185,2.950496 -0.117611,0.110708 -0.376064,-0.06211 -0.996073,-0.666149 -1.753002,-1.707783 -3.910855,-2.878014 -6.018288,-3.263799 -1.014305,-0.185671 -1.322963,-0.191215 -2.333947,-0.04192 -2.210818,0.326504 -2.189707,0.467833 0.06996,0.468337 1.966932,4.11e-4 2.077355,0.01532 3.176147,0.428075 1.669232,0.627042 3.770838,1.894079 3.770838,2.273396 0,0.241094 -0.259238,0.157241 -0.96017,-0.310574 -1.030677,-0.687897 -2.419717,-1.38589 -3.316818,-1.666698 -1.584843,-0.496083 -3.778643,-0.472051 -5.130747,0.05621 -0.365286,0.142706 -0.252874,0.162367 0.975618,0.170589 2.185165,0.01463 3.527843,0.401877 5.470081,1.577678 1.37808,0.834256 2.514849,1.863681 4.134924,3.744452 0.998759,1.159477 1.712683,1.847015 2.369443,2.281883 0.516992,0.342331 1.292166,0.916312 1.722609,1.275523 0.430447,0.359212 0.804808,0.633673 0.831918,0.609905 0.02711,-0.02378 -0.160483,-0.33002 -0.41687,-0.680539 z m 6.146229,-4.657051 c 0.328314,-0.942304 0.977664,-1.972096 1.718419,-2.725195 0.743958,-0.756358 3.014354,-2.444223 3.287802,-2.444223 0.239238,0 2.04321,1.417887 2.689067,2.113561 1.363109,1.468254 2.053447,2.871289 2.245349,4.563437 l 0.104953,0.925526 0.02083,-0.871318 c 0.02504,-1.04414 -0.389085,-2.646892 -0.930331,-3.600882 -0.226378,-0.399012 -1.023273,-1.27661 -1.911489,-2.105066 -0.837793,-0.781435 -1.466571,-1.453341 -1.397276,-1.493133 0.223514,-0.12835 2.451766,1.841616 3.132545,2.769427 0.808778,1.102274 1.420091,2.774526 1.54792,4.234391 0.08981,1.025678 0.09742,1.043764 0.19822,0.471597 0.128626,-0.730041 0.06216,-3.03467 -0.08514,-2.952622 -0.05873,0.03268 -0.106771,-0.04817 -0.106831,-0.179743 -1.46e-4,-0.397369 -0.771842,-1.774182 -1.487105,-2.653354 -0.908554,-1.116742 -4.003716,-3.669689 -4.160473,-3.431623 -0.06341,0.09629 -0.531507,0.491146 -1.040213,0.877444 -2.971168,2.256242 -4.297651,3.879008 -4.925844,6.026098 -0.214047,0.73157 -0.267161,2.578242 -0.07416,2.578242 0.06745,0 0.166095,-0.401612 0.219192,-0.892468 0.271363,-2.508437 1.762009,-4.701667 4.502073,-6.624048 0.637503,-0.447264 1.217149,-0.813209 1.288099,-0.813209 0.364726,0 0.01291,0.398541 -0.852241,0.965429 -1.228767,0.805133 -2.756473,2.226999 -3.382118,3.147811 -0.760354,1.119078 -1.047206,2.164929 -1.024308,3.734596 l 0.01957,1.341307 0.118841,-1.243158 c 0.06537,-0.683731 0.193423,-1.4572 0.284577,-1.718824 z m 13.93811,2.069514 c 2.2589,-3.014572 4.21587,-4.931092 6.53681,-6.40169 1.38009,-0.874458 3.87745,-1.881622 4.69576,-1.893753 0.19566,-0.0034 0.45178,-0.06861 0.56918,-0.146009 0.15447,-0.101861 -0.14043,-0.121454 -1.06722,-0.07093 -1.46513,0.07991 -2.65213,0.414942 -3.85563,1.088321 -0.45174,0.252764 -0.91961,0.441995 -1.03968,0.420503 -0.37262,-0.06665 0.37288,-0.602573 1.62251,-1.166355 1.29161,-0.582707 2.77888,-0.914798 4.17146,-0.931438 0.82757,-0.0098 0.89571,-0.02832 0.5243,-0.14162 -0.74529,-0.227414 -2.76628,-0.189128 -3.69968,0.07007 -0.98355,0.273143 -2.32536,0.878146 -2.98603,1.346372 -0.45847,0.324938 -0.92711,0.427133 -0.92711,0.202183 0,-0.182215 1.23662,-0.983147 2.24085,-1.451339 0.48897,-0.22797 1.3214,-0.498812 1.84984,-0.601863 1.12432,-0.219278 3.79126,-0.313705 4.30476,-0.152425 0.19566,0.06143 0.31434,0.07084 0.26373,0.02088 -0.2747,-0.271398 -1.70722,-0.452193 -3.37376,-0.4258 -1.57676,0.02498 -1.90962,0.07127 -2.69262,0.374561 -1.26307,0.489221 -2.36197,1.131739 -3.18316,1.861165 -0.38887,0.34542 -0.76731,0.628034 -0.84097,0.628034 -0.30553,0 -0.0915,-0.351066 0.5816,-0.953879 1.34002,-1.200124 3.12281,-2.042114 5.00577,-2.364161 1.18053,-0.201918 1.1199,-0.439916 -0.0809,-0.317666 -3.25835,0.33174 -6.71003,2.337048 -8.20681,4.767874 -0.42847,0.695837 -1.03075,2.048163 -0.94688,2.126087 0.0213,0.01985 0.38833,-0.418912 0.81556,-0.974969 0.83391,-1.085378 1.43952,-1.524215 0.85098,-0.616647 -0.69524,1.072125 -1.02996,1.654242 -0.97863,1.701939 0.0292,0.02712 0.42661,-0.362702 0.88312,-0.866305 0.4565,-0.503612 0.90417,-0.910957 0.99483,-0.905216 0.11117,0.0068 0.10693,0.03208 -0.013,0.07708 -0.0978,0.0367 -0.17786,0.173446 -0.17786,0.303918 0,0.13048 -0.10074,0.314911 -0.22385,0.409843 -0.25912,0.199822 -0.82521,1.181943 -0.68126,1.181943 0.0532,0 0.47496,-0.335205 0.93721,-0.744902 0.59816,-0.530125 0.88448,-0.704016 0.99308,-0.603104 0.10861,0.100904 -0.0708,0.382389 -0.62219,0.976278 -1.30043,1.400622 -1.65745,1.882024 -2.24948,3.033061 -0.52036,1.011689 -0.8515,1.966287 -0.6821,1.966287 0.0375,0 0.34697,-0.371865 0.68753,-0.826359 z m 3.69003,-5.983822 c -0.15745,-0.176286 -0.15131,-0.24485 0.0376,-0.420409 0.30516,-0.283538 0.70748,-0.126005 0.64912,0.254159 -0.0556,0.362146 -0.43068,0.452945 -0.68675,0.16625 z m -19.223611,3.11033 c 0.07542,-0.328472 0.151736,-1.386378 0.1696,-2.3509 0.04731,-2.553862 0.41923,-4.923327 0.772778,-4.923327 0.312526,0 0.33217,0.15002 0.138485,1.057743 -0.211452,0.990984 -0.386111,3.232314 -0.260948,3.348617 0.04657,0.04329 0.252602,-0.153006 0.457851,-0.436151 0.205253,-0.283144 0.887146,-1.039409 1.51532,-1.680584 0.628174,-0.641176 1.340178,-1.403762 1.582237,-1.694641 0.467976,-0.562371 1.251245,-1.917161 1.108404,-1.917161 -0.04683,0 0.05466,-0.223119 0.225536,-0.495818 l 0.310691,-0.495817 -0.477862,0.462767 c -0.262823,0.25451 -0.645086,0.663163 -0.849471,0.908099 -0.504086,0.604096 -0.621806,0.336369 -0.186324,-0.423746 0.194286,-0.339123 0.308505,-0.616578 0.253825,-0.616578 -0.05468,0 0.05073,-0.148515 0.23425,-0.33002 0.18352,-0.181514 0.295319,-0.365663 0.248437,-0.409227 -0.04687,-0.04355 -0.201877,0.05322 -0.34444,0.215102 -0.846564,0.961186 -1.381315,1.521247 -1.489682,1.5602 -0.22987,0.08265 0.178595,-0.697924 0.870176,-1.66284 0.378367,-0.527901 0.639973,-0.959834 0.581352,-0.959834 -0.181494,0 -1.629869,1.506308 -1.897472,1.973371 -0.139405,0.243301 -0.292096,0.406481 -0.339322,0.362599 -0.182257,-0.169356 0.765271,-1.876231 1.424899,-2.566823 0.546829,-0.572501 0.104268,-0.45079 -0.60621,0.166712 -0.495364,0.430539 -0.92795,1.007805 -1.396693,1.863835 -0.630222,1.150921 -1.034799,1.549642 -1.034799,1.019799 0,-0.12183 0.236372,-0.672189 0.52527,-1.22301 0.407068,-0.776121 0.82195,-1.279613 1.843649,-2.237402 1.0576,-0.991429 1.242201,-1.218484 0.933261,-1.147858 -0.211815,0.04842 -0.669228,0.241735 -1.01647,0.429597 -1.947429,1.053543 -3.342858,3.190966 -3.915978,5.998233 -0.334259,1.637277 -0.317899,7.146058 0.02585,8.707811 l 0.248945,1.130995 0.103865,-1.51826 c 0.05712,-0.835043 0.165566,-1.787003 0.240973,-2.115483 z m -1.850235,2.496597 c -0.0631,-0.370916 -0.189074,-0.891527 -0.279939,-1.156911 -0.276317,-0.807029 -1.70973,-3.291138 -2.216598,-3.841351 -0.513959,-0.557931 -0.597233,-0.806032 -0.270532,-0.806032 0.203586,0 0.308359,0.114362 1.493377,1.629944 0.331358,0.423798 0.633769,0.741455 0.672022,0.705898 0.03828,-0.03559 -0.161851,-0.553669 -0.444682,-1.151391 -0.28283,-0.597714 -0.487632,-1.111481 -0.455109,-1.141699 0.07702,-0.07161 0.791998,0.773461 1.356162,1.602806 0.504977,0.742345 0.567445,0.578045 0.17904,-0.470929 -1.035889,-2.797609 -3.399313,-4.945384 -6.550472,-5.952752 -1.363605,-0.435929 -1.404949,-0.256674 -0.08509,0.368871 1.689135,0.800547 3.343952,1.981207 3.343952,2.385823 0,0.286926 -0.241018,0.196743 -0.810282,-0.303182 C 78.82303,81.764035 76.4224,80.669135 74.82903,80.582092 l -1.008447,-0.0551 0.980337,0.25468 c 0.539189,0.140071 1.448124,0.469493 2.019861,0.732053 1.073077,0.49278 2.478192,1.435794 2.478192,1.663173 0,0.22957 -0.302794,0.137967 -0.833302,-0.252113 -1.36133,-1.000961 -3.617296,-1.865923 -4.858529,-1.862826 l -0.640331,0.0017 1.138364,0.373328 c 2.169305,0.711433 3.253786,1.4001 5.274344,3.349336 1.464553,1.412865 2.137951,2.321418 4.093149,5.522518 0.534619,0.875297 0.989297,1.591453 1.010392,1.591453 0.02109,0 -0.01327,-0.303473 -0.07638,-0.67438 z m 14.693919,-0.874108 c -0.08248,-0.569592 -0.219176,-1.183035 -0.303715,-1.363232 l -0.153722,-0.327616 0.07305,0.330551 c 0.04013,0.181796 0.14784,0.82219 0.23929,1.423094 0.09145,0.600896 0.195263,1.065606 0.230699,1.032684 0.0355,-0.03285 -0.0034,-0.525898 -0.08557,-1.095481 z m 1.445657,-2.351932 c 0.1146,-3.13307 -0.0646,-5.757797 -0.47835,-7.007543 -0.700452,-2.115624 -1.984921,-3.704707 -3.668455,-4.538475 -1.080418,-0.535079 -1.559023,-0.561498 -0.78959,-0.04355 0.944692,0.635871 2.365975,2.369286 2.911586,3.551015 0.623762,1.350984 0.839456,2.629228 0.984758,5.835662 0.07691,1.697182 0.167552,3.127449 0.201428,3.178371 0.03387,0.05091 0.07545,0.566272 0.09243,1.145194 0.03978,1.357409 0.113073,1.516858 0.411763,0.895805 0.18739,-0.389635 0.26342,-1.075419 0.33442,-3.01643 z m -1.656276,-3.503027 c -0.08488,-1.893026 -0.189655,-2.70337 -0.396441,-3.066124 -0.06979,-0.122472 -0.126937,-0.322209 -0.126937,-0.443851 0,-0.791333 -1.656046,-2.997226 -2.585349,-3.443755 -0.628477,-0.301975 -0.620538,-0.223187 0.04441,0.441251 1.629304,1.627993 1.931578,2.394729 0.412423,1.046133 -0.627663,-0.557194 -1.207012,-1.013075 -1.287452,-1.013075 -0.08042,0 0.165983,0.371865 0.5476,0.82636 0.620178,0.738614 1.018488,1.308017 1.018488,1.455959 0,0.02866 -0.437185,-0.354215 -0.971529,-0.850717 -0.534344,-0.496502 -1.045616,-0.902726 -1.136166,-0.902726 -0.09054,0 0.154554,0.406455 0.544651,0.903257 0.969171,1.234234 0.890702,1.45607 -0.155429,0.43941 -0.474772,-0.461415 -0.895315,-0.80912 -0.934524,-0.772682 -0.03918,0.03645 0.167183,0.39997 0.458654,0.807863 0.291471,0.407892 0.486879,0.781631 0.434235,0.830543 -0.05264,0.04894 -0.390662,-0.175106 -0.75117,-0.497811 -0.548011,-0.49053 -0.612419,-0.521698 -0.392823,-0.190078 0.524373,0.79189 1.362371,1.798497 2.472112,2.969515 1.217592,1.284815 2.077866,2.398117 2.507248,3.244719 0.358459,0.706754 0.398825,0.465095 0.29797,-1.784191 z M 127.25538,83.83363 c 0.6475,-0.306938 0.99334,-0.838183 0.99334,-1.525867 0,-0.69931 -0.75193,-1.381637 -1.52257,-1.381637 -0.56549,0 -0.89646,0.180624 -0.89646,0.489212 0,0.114627 0.2057,0.17188 0.61748,0.17188 0.52362,0 0.6426,0.05125 0.78263,0.336771 0.24133,0.492113 0.20599,0.695041 -0.18413,1.057529 -1.10622,1.027876 -2.83329,-0.417183 -3.36631,-2.816644 -0.25529,-1.149262 -0.007,-3.141455 0.58893,-4.727458 0.80424,-2.139981 1.9005,-3.991864 4.77337,-8.063618 2.71566,-3.848893 3.74667,-5.582068 4.69928,-7.899653 1.1278,-2.743785 1.56669,-5.088534 1.42944,-7.636655 -0.24641,-4.574751 -2.06385,-8.399499 -5.3671,-11.294923 -1.71512,-1.503366 -3.66732,-2.534886 -6.03688,-3.18981 -1.0876,-0.300598 -1.55953,-0.355525 -3.13051,-0.36438 -3.36078,-0.01891 -5.4636,0.782333 -7.61435,2.90137 -1.99415,1.964747 -2.98779,4.875956 -2.34775,6.878552 0.42988,1.345046 1.53648,2.308833 2.97223,2.588658 0.70933,0.138248 0.9096,0.127716 1.55418,-0.0817 1.32055,-0.429025 2.09174,-1.386498 2.09174,-2.596965 0,-0.768191 -0.13759,-1.074786 -0.75387,-1.679857 -1.04526,-1.026276 -2.91216,-0.845712 -3.29148,0.31835 -0.19961,0.612566 0.47591,1.497154 1.14331,1.497154 0.71877,0 1.0375,-0.949156 0.40819,-1.215583 -0.42174,-0.178537 -0.3924,-0.418912 0.0586,-0.480392 0.4132,-0.05629 0.9556,0.2811 1.30313,0.810677 0.69656,1.061499 -0.0479,2.300765 -1.57358,2.619278 -1.2559,0.2622 -2.75686,-0.823605 -3.12853,-2.263163 -0.51202,-1.983184 0.95835,-5.123578 3.12386,-6.671877 1.9304,-1.380209 3.71941,-1.862338 6.53967,-1.762392 1.42168,0.05039 1.85042,0.123088 3.10937,0.527259 3.11352,0.999574 5.87045,3.10683 7.57745,5.791831 0.59583,0.937205 1.60173,3.261343 1.88842,4.36319 0.681,2.617438 0.64493,5.453187 -0.10595,8.32972 -0.74094,2.838436 -2.01239,5.363474 -4.57662,9.088945 -0.83877,1.218621 -2.03467,2.959402 -2.65754,3.868399 -2.80316,4.090808 -3.99756,7.515604 -3.55261,10.186642 0.35037,2.103235 2.03815,4.078839 3.49403,4.089884 0.21835,0.0017 0.64925,-0.116568 0.95757,-0.262722 z m -22.95556,-2.153276 c 1.13329,-0.805313 3.21769,-1.735751 4.66782,-2.083643 0.62611,-0.150201 1.74668,-0.309359 2.49018,-0.353685 1.10725,-0.06605 1.27458,-0.102144 0.92491,-0.199668 -0.73083,-0.203861 -3.4822,-0.150612 -4.47905,0.08667 -1.87226,0.445683 -3.57566,1.318712 -4.99985,2.562555 -0.77521,0.677032 -0.87259,0.820978 -0.94189,1.392272 l -0.0772,0.637163 0.76673,-0.707566 c 0.4217,-0.389156 1.1635,-0.989513 1.64844,-1.334103 z m -20.162789,1.160289 c 0,-0.400902 -0.142982,-0.599082 -1.031645,-1.429968 -0.783382,-0.732454 -1.347579,-1.11474 -2.344515,-1.588578 -1.944014,-0.924003 -3.122944,-1.182192 -5.446178,-1.19274 -2.137903,-0.0098 -2.991094,0.132995 -4.448556,0.744046 -0.970597,0.406943 -1.267561,0.673695 -0.356012,0.319797 0.938529,-0.364371 2.040848,-0.500882 3.974804,-0.492241 1.634045,0.0068 2.141266,0.06151 3.172573,0.339226 2.182366,0.587635 4.294054,1.756292 5.832502,3.227839 0.309368,0.295918 0.581509,0.538022 0.604759,0.538022 0.02323,0 0.04227,-0.209431 0.04227,-0.465403 z M 120.4445,80.127195 c -0.027,-0.730435 0.0239,-1.727092 0.11314,-2.214782 0.51735,-2.827484 2.12303,-6.208655 4.56513,-9.613089 3.67982,-5.129857 5.16817,-7.634012 6.01167,-10.114656 0.73657,-2.166187 0.95626,-3.441368 0.95626,-5.550438 0,-2.787479 -0.45698,-4.701586 -1.64207,-6.878039 -1.93202,-3.548175 -5.755,-5.976262 -9.68836,-6.153344 -2.23447,-0.100604 -4.05552,0.483959 -5.6682,1.819517 -1.22226,1.012228 -1.22953,1.09348 -0.0984,1.09964 1.66774,0.0091 3.0937,0.936948 3.89982,2.537581 0.38486,0.764169 0.42011,0.943356 0.35916,1.82572 -0.12142,1.757985 -1.11881,3.15492 -2.79511,3.914804 -0.48954,0.221912 -0.98586,0.312669 -1.92417,0.351862 -1.11072,0.04646 -1.37886,0.01061 -2.20557,-0.294429 -0.51763,-0.190993 -1.21995,-0.543891 -1.56074,-0.784232 l -0.61961,-0.43699 -0.76876,0.737348 c -1.2153,1.165628 -2.01567,2.733801 -2.79505,5.476321 -0.45658,1.606648 -0.45682,1.609206 -0.45937,4.979033 -0.003,3.631676 0.11053,4.552403 0.85391,6.941435 1.18634,3.812582 3.56588,6.951564 7.15417,9.437487 2.49546,1.728838 6.2137,4.236423 6.29011,4.242061 0.0391,0.0034 0.049,-0.592375 0.022,-1.32281 z M 84.617402,79.97003 c 0.237078,-0.3498 -0.19502,-0.710954 -0.606066,-0.506554 -0.339248,0.168697 -0.385554,0.405856 -0.126283,0.646762 0.225335,0.209379 0.535687,0.149961 0.732349,-0.140208 z m 17.568068,0.17887 c 0.10467,-0.06168 0.16871,-0.254107 0.14229,-0.427681 -0.0359,-0.236055 -0.13718,-0.315595 -0.40181,-0.315595 -0.40235,0 -0.55436,0.361247 -0.28087,0.66744 0.19678,0.220313 0.27617,0.231453 0.54039,0.0758 z M 85.77343,77.763856 c 0,-0.103052 -0.128066,-0.202236 -0.284589,-0.220416 -3.510708,-0.407773 -7.013244,-1.064399 -9.513177,-1.783439 -0.771277,-0.221835 -1.431715,-0.376031 -1.467648,-0.342639 -0.234064,0.217489 3.837607,1.56061 6.046658,1.994614 3.116062,0.612198 5.218756,0.75398 5.218756,0.35188 z m 16.50631,-0.01275 c 2.48832,-0.294061 5.35376,-1.18108 6.33216,-1.960178 0.31967,-0.254552 0.25475,-0.245441 -0.64033,0.08982 -1.70177,0.637428 -2.81764,0.874578 -7.29266,1.549882 -0.64949,0.09801 -0.64627,0.58926 0.003,0.51031 0.17425,-0.02122 0.89312,-0.106593 1.59748,-0.189838 z M 86.556058,76.761253 c 0,-0.114619 -0.135136,-0.202475 -0.320165,-0.208156 -0.176091,-0.0051 -0.448232,-0.029 -0.604756,-0.05244 -0.156527,-0.02353 -0.924924,-0.11313 -1.707552,-0.199301 -2.332297,-0.256802 -4.601908,-0.654881 -6.189864,-1.085677 -0.821758,-0.222931 -1.654188,-0.433721 -1.849845,-0.468422 l -0.355738,-0.06305 0.317515,0.217968 c 0.174638,0.11988 0.911017,0.423541 1.636405,0.674799 2.166759,0.750506 5.544693,1.334924 7.900058,1.366785 0.956238,0.01292 1.173942,-0.02087 1.173942,-0.182446 z m 14.798762,0.04226 c 1.64168,-0.148541 3.39793,-0.518567 4.67159,-0.984286 0.98528,-0.360255 1.92922,-0.835625 1.83435,-0.923772 -0.03,-0.02789 -0.52084,0.100578 -1.09065,0.285557 -1.21669,0.394982 -3.07165,0.756641 -5.05955,0.986442 -1.908481,0.220629 -2.268338,0.307698 -2.320956,0.561566 -0.05162,0.24894 0.01097,0.25131 1.965216,0.07452 z M 89.023847,74.983965 c 0.197602,-0.183609 -0.434961,-0.26392 -4.246486,-0.539151 -1.095678,-0.07914 -2.18424,-0.164898 -2.419027,-0.190591 -0.566088,-0.06203 -3.430508,-0.446683 -4.033863,-0.541786 -0.756313,-0.119212 -0.404093,0.145949 0.508183,0.38256 3.216643,0.834316 9.646406,1.395172 10.191193,0.888968 z m 11.307253,0.04911 c 0.49349,-0.04115 1.03778,-0.100159 1.20951,-0.131276 0.17173,-0.03114 0.69644,-0.119717 1.16602,-0.196879 0.86342,-0.141893 2.80388,-0.671068 2.72603,-0.743405 -0.0232,-0.02156 -0.51802,0.04338 -1.09954,0.144391 -0.58152,0.100998 -1.6016,0.219979 -2.26682,0.264399 -4.281427,0.2859 -5.031268,0.344882 -5.091072,0.400458 -0.0367,0.03405 -0.02872,0.154068 0.01775,0.26659 0.08676,0.210097 0.773763,0.209208 3.338112,-0.0043 z m -0.25229,-1.042728 c 1.05911,-0.104454 2.21929,-0.25107 2.57819,-0.325803 1.06798,-0.222383 3.0271,-0.818753 3.18013,-0.968047 0.0964,-0.09408 0.0876,-0.110263 -0.0273,-0.05022 -0.0933,0.04868 -1.11784,0.244962 -2.27673,0.436075 -2.04296,0.336916 -2.32061,0.349253 -9.124436,0.405274 -7.724421,0.06365 -10.380995,-0.04124 -14.323135,-0.565622 -1.391339,-0.185047 -2.559892,-0.308417 -2.596779,-0.274135 -0.21526,0.200002 3.649148,1.021981 5.936859,1.262793 2.146151,0.225908 2.181611,0.226935 8.60889,0.248794 4.467456,0.01514 6.6384,-0.03046 8.044371,-0.1691 z M 94.847351,66.28907 c -0.07811,-5.890031 -0.09043,-6.104372 -0.344158,-5.978204 -0.249973,0.124303 -0.263168,0.425996 -0.263168,6.018603 0,5.982252 0.05564,6.676899 0.500349,6.249372 0.152659,-0.146753 0.172747,-1.328234 0.106977,-6.289771 z m 1.140504,0.451115 c -0.02992,-3.214741 -0.08437,-5.978855 -0.121158,-6.142479 -0.07845,-0.349227 -0.486957,-0.404196 -0.491235,-0.06613 -0.0017,0.127263 -2.83e-4,2.739731 0.0026,5.805478 0.006,5.533848 0.07674,6.457458 0.485164,6.311835 0.140801,-0.05022 0.167175,-1.303004 0.124365,-5.908717 z m 2.23374,4.134946 c -0.348831,-1.874101 -0.563522,-4.978622 -0.565194,-8.172958 -7.88e-4,-1.880047 -0.04116,-2.411627 -0.179143,-2.368858 -0.136454,0.04235 -0.182196,0.976244 -0.196446,4.0106 -0.02838,6.040489 0.329222,8.879994 1.035619,8.223624 0.15542,-0.144408 0.139103,-0.435561 -0.09484,-1.692408 z m -11.518017,1.517165 c 0.319859,-0.358116 0.567251,-3.301981 0.659103,-7.843177 0.08864,-4.381943 0.08734,-4.410407 -0.195164,-4.269926 -0.27144,0.13498 -0.288346,0.320849 -0.371099,4.080807 -0.07377,3.351851 -0.362513,7.085672 -0.593488,7.674548 -0.07831,0.19966 0.05618,0.561926 0.208633,0.561926 0.06031,0 0.191712,-0.09189 0.292015,-0.204178 z m 1.239379,0.03893 c 0.329974,-0.386546 0.498433,-2.494607 0.56815,-7.109748 0.06312,-4.178117 0.0443,-4.851076 -0.139542,-4.992858 -0.458614,-0.35365 -0.525564,0.09518 -0.549281,3.682411 -0.01271,1.922295 -0.07574,3.971065 -0.140062,4.552823 -0.06432,0.581757 -0.161723,1.727092 -0.216439,2.545195 -0.08611,1.287484 -0.07021,1.487452 0.118302,1.487452 0.119785,0 0.281278,-0.07443 0.358872,-0.165275 z m 2.511012,-0.04389 c 0.138417,-0.335162 0.09998,-12.063704 -0.03981,-12.143971 -0.367645,-0.211125 -0.420114,0.498409 -0.466169,6.304195 -0.04396,5.540864 -0.02835,6.049001 0.185807,6.048967 0.128586,-3.4e-5 0.272658,-0.09416 0.320165,-0.209191 z m 1.335762,-5.79415 c 0.0409,-5.873168 -0.01629,-6.640332 -0.469123,-6.291156 -0.180898,0.139506 -0.211084,1.019235 -0.211084,6.151488 0,6.063477 0.02731,6.391932 0.498034,5.987709 0.08944,-0.07683 0.157108,-2.24926 0.182173,-5.848041 z m 1.169632,-0.178801 c 0,-5.836842 -0.0517,-6.458357 -0.507953,-6.10652 -0.170939,0.131823 -0.203523,1.102608 -0.203523,6.064119 0,4.515383 0.04146,5.945685 0.175969,6.070672 0.139759,0.129864 0.212957,0.116501 0.355737,-0.06494 0.138289,-0.17573 0.17977,-1.551747 0.17977,-5.963335 z m 6.68643,5.884607 c -7.8e-4,-0.163624 -0.132296,-0.981727 -0.292191,-1.818003 -0.41196,-2.154602 -0.652888,-4.832374 -0.689378,-7.662057 -0.01732,-1.3417 -0.06499,-2.489918 -0.10606,-2.551612 -0.04098,-0.06169 -0.174539,-0.03508 -0.296683,0.05903 -0.426442,0.328848 0.0026,9.390689 0.530366,11.204671 0.153473,0.527413 0.517651,1.065392 0.721196,1.065392 0.07382,0 0.133564,-0.133877 0.13275,-0.297492 z M 84.54333,72.100614 c 0.169631,-0.394786 0.377365,-1.24564 0.50842,-2.082428 0.04555,-0.290879 0.111061,-0.677622 0.145568,-0.859418 0.03448,-0.181796 0.104312,-0.862875 0.155123,-1.513496 0.05081,-0.65062 0.113058,-1.282676 0.13832,-1.404575 0.0986,-0.475712 0.134568,-5.791061 0.03977,-5.879422 -0.05533,-0.05159 -0.199396,-0.05852 -0.320165,-0.01549 -0.182021,0.06494 -0.219682,0.367374 -0.220162,1.768219 -7.83e-4,2.65616 -0.366383,6.08004 -0.945552,8.858177 -0.124549,0.597422 -0.188747,1.177529 -0.142664,1.289118 0.13266,0.321234 0.47063,0.236534 0.641319,-0.160707 z m 17.33457,0.152305 c 0.048,-0.116218 -0.11571,-1.057658 -0.36379,-2.092096 -0.58511,-2.4398 -0.85847,-4.483771 -0.98608,-7.372932 -0.0568,-1.28603 -0.14587,-2.377816 -0.19795,-2.426214 -0.052,-0.04842 -0.16299,-0.04877 -0.24646,-7.87e-4 -0.313617,0.180093 -0.107319,5.91195 0.28554,7.933557 0.29776,1.532292 0.88871,3.840551 1.02522,4.004535 0.18783,0.225634 0.37884,0.207462 0.48352,-0.04603 z m -18.617234,-0.09396 c 0.240732,-0.269524 0.845959,-3.384876 1.086054,-5.59034 0.119459,-1.097347 0.217197,-2.958752 0.217197,-4.136469 0,-2.100318 -0.0054,-2.138578 -0.28459,-1.999765 -0.267313,0.132927 -0.284593,0.276839 -0.284593,2.370449 0,2.660575 -0.29302,5.438275 -0.781668,7.409807 -0.373917,1.508635 -0.440721,2.119353 -0.231826,2.119353 0.06868,0 0.194423,-0.07785 0.279426,-0.173035 z m -1.886743,-0.50901 c 0.732494,-1.316162 1.246344,-4.463452 1.424354,-8.724035 0.09393,-2.248174 0.08713,-2.337562 -0.18828,-2.474519 -0.280157,-0.139317 -0.287279,-0.09383 -0.36522,2.332429 -0.1048,3.262318 -0.472389,5.770075 -1.18979,8.116936 -0.202965,0.663976 -0.196689,1.166792 0.01456,1.166792 0.03957,0 0.176541,-0.187913 0.30437,-0.417603 z m 21.314787,-0.873517 c -0.61624,-2.013514 -1.05783,-4.903556 -1.1361,-7.435251 -0.0824,-2.664202 -0.11907,-2.908796 -0.43629,-2.908796 -0.21022,0 -0.22401,0.213648 -0.14063,2.178104 0.11625,2.738918 0.30153,4.33097 0.74217,6.37714 0.50259,2.333866 0.85912,3.210839 1.22089,3.003095 0.0568,-0.03268 -0.0556,-0.579089 -0.25004,-1.214292 z m -22.334647,0.651827 c 0.11474,-0.206162 0.365314,-0.964762 0.556829,-1.685778 0.623543,-2.347503 0.855519,-4.081696 0.917284,-6.857445 0.05125,-2.302844 0.03226,-2.617379 -0.149274,-2.477359 -0.165409,0.127545 -0.22469,0.735029 -0.289668,2.968282 -0.09038,3.106514 -0.388252,4.846987 -1.255033,7.333235 -0.248053,0.71151 -0.264784,1.093924 -0.04785,1.093924 0.0325,0 0.152974,-0.16868 0.267717,-0.374859 z m 23.579477,-1.628884 c -0.78449,-2.52047 -1.29512,-5.677923 -1.29691,-8.019557 -7.9e-4,-1.014033 -0.0494,-1.467535 -0.15113,-1.409127 -0.32112,0.184406 -0.0287,4.209345 0.50871,7.003129 0.20586,1.070149 0.92991,3.65973 1.16449,4.164865 0.0702,0.151261 0.10498,0.130711 0.14634,-0.08658 0.0298,-0.156703 -0.13735,-0.900425 -0.3715,-1.652728 z M 79.162851,70.13316 c 0.172116,-0.480571 0.400825,-1.030289 0.508247,-1.221573 0.107418,-0.191292 0.195701,-0.516068 0.196181,-0.721717 4.03e-4,-0.205648 0.12294,-1.038621 0.272121,-1.851052 0.318831,-1.736298 0.514766,-5.478247 0.302342,-5.774216 -0.09973,-0.13895 -0.143028,0.197487 -0.144637,1.12386 -0.0056,3.17915 -0.643517,6.882753 -1.509688,8.763913 -0.230769,0.501181 -0.25658,0.737792 -0.06871,0.629916 0.07217,-0.04141 0.272029,-0.468551 0.444146,-0.949131 z m 26.158329,0.335966 c -0.34448,-0.842367 -1.05581,-3.566714 -1.27424,-4.88025 -0.0907,-0.545388 -0.24475,-1.943589 -0.34232,-3.107113 -0.13782,-1.64347 -0.18164,-1.88998 -0.19638,-1.104807 -0.0261,1.389825 0.20653,3.413332 0.63544,5.527235 0.37894,1.867539 1.12323,4.237843 1.33072,4.237843 0.067,0 -0.002,-0.302805 -0.15322,-0.672908 z M 78.207667,69.919652 c 0.421044,-1.118719 0.721171,-2.122382 0.939191,-3.140805 0.08562,-0.399961 0.194862,-0.875947 0.242757,-1.057743 0.04789,-0.181804 0.104897,-1.461007 0.12667,-2.842679 l 0.03961,-2.512145 -0.116566,2.224252 c -0.128809,2.457776 -0.428983,4.049528 -1.264597,6.705723 -0.575584,1.829638 -0.556553,2.189697 0.03296,0.623397 z M 102.84892,58.879854 c 1.25184,-0.202569 -4.588623,-0.358921 -13.518094,-0.361889 -7.330447,-0.0026 -10.344238,0.08162 -10.1281,0.282451 0.03764,0.03499 0.378846,0.11467 0.758245,0.177099 0.883173,0.145324 21.941609,0.05553 22.887949,-0.09766 z m -6.189864,-0.926852 3.343954,-0.09886 -2.063292,-0.08256 C 94.961804,57.652447 82.073285,57.640383 81.14882,57.75584 l -0.782627,0.09776 0.782627,0.07785 c 1.19171,0.118545 11.733086,0.133158 15.510236,0.02147 z m 0.782628,-0.900348 c 3.052246,-0.04218 5.837676,-0.119366 6.189866,-0.171623 l 0.64033,-0.09504 -0.78263,-0.09281 c -0.43044,-0.05099 -6.113379,-0.09332 -12.628744,-0.09395 -10.435572,-7.95e-4 -11.846123,0.02242 -11.846123,0.197171 0,0.15316 0.202542,0.202543 0.889348,0.216856 0.48914,0.01018 2.234043,0.05792 3.877562,0.106046 1.643515,0.04817 4.140806,0.07007 5.549533,0.04868 1.408729,-0.0213 5.058617,-0.07324 8.110858,-0.115371 z M 82.847127,55.416695 c 0.296674,-0.275658 0.576347,-1.053842 0.577629,-1.607237 0.0012,-0.460954 -0.347311,-1.509269 -0.639052,-1.922988 -0.324187,-0.45973 -0.383319,-0.340578 -0.142615,0.287362 0.110436,0.288099 0.197823,0.672558 0.1942,0.854362 -0.0061,0.306116 -0.01581,0.301231 -0.131155,-0.06613 -0.06851,-0.218157 -0.319226,-0.604892 -0.557139,-0.859409 l -0.432569,-0.462759 0.29229,0.715317 c 0.315418,0.771938 0.338635,1.603243 0.02546,0.910777 -0.216857,-0.479459 -0.892188,-1.465473 -0.960339,-1.402154 -0.02997,0.02781 0.0359,0.286327 0.146318,0.574426 0.110436,0.288098 0.203599,0.700619 0.207036,0.916731 0.0051,0.325323 -0.0756,0.234327 -0.469432,-0.528867 -0.6015,-1.165637 -1.116185,-1.640126 -0.597919,-0.551223 0.191931,0.403246 0.510317,1.250327 0.707527,1.882383 0.197205,0.632064 0.432122,1.231565 0.52203,1.332221 0.236775,0.265092 0.937771,0.224496 1.257755,-0.07281 z m 10.647609,0.05142 c 0.415244,-0.270251 0.981955,-1.184245 1.245432,-2.008628 0.228855,-0.716062 0.586122,-1.131107 0.697069,-0.809796 0.03421,0.09908 0.102167,0.458045 0.151004,0.79769 0.128292,0.892245 0.77366,2.015806 1.189273,2.07051 0.731047,0.09621 1.590523,-1.238393 1.699129,-2.638408 0.05942,-0.765624 0.02984,-0.911264 -0.234488,-1.156901 -0.166343,-0.154556 -0.394169,-0.281023 -0.50629,-0.281023 -0.265449,0 -0.439114,0.513202 -0.237172,0.70085 0.08604,0.07991 0.156439,0.314312 0.156439,0.520825 0,0.464915 -0.528325,1.45738 -0.740787,1.391571 -0.190701,-0.05903 -0.559389,-1.220452 -0.545653,-1.718819 0.01295,-0.468654 -0.452472,-0.894427 -0.977651,-0.894427 -0.538855,0 -1.046628,0.554431 -1.672062,1.825703 -0.261462,0.531451 -0.534147,0.932524 -0.605963,0.891287 -0.07185,-0.04124 -0.370548,-0.476063 -0.663846,-0.966276 -1.014896,-1.696258 -1.443495,-2.031985 -1.969813,-1.542935 -0.122984,0.114267 -0.22361,0.345463 -0.22361,0.513758 0,0.168287 -0.09565,0.476405 -0.212565,0.684698 -0.116913,0.208292 -0.212962,0.477962 -0.213445,0.599279 -0.0016,0.359451 -0.160379,0.638848 -0.363442,0.638848 -0.249312,0 -0.344262,-0.157318 -0.565694,-0.937281 -0.154933,-0.545739 -0.153146,-0.649338 0.01122,-0.649338 0.107556,0 0.268274,-0.126236 0.357145,-0.280544 0.132293,-0.229681 0.112134,-0.326495 -0.11121,-0.534017 -0.408029,-0.379129 -0.711249,-0.184662 -0.884851,0.567469 -0.215618,0.934211 -0.190444,1.330622 0.135989,2.141307 0.50112,1.24451 1.18899,1.484758 1.806702,0.631012 0.29823,-0.412179 0.416075,-0.723557 0.671308,-1.773754 0.145436,-0.598423 0.507163,-0.38747 0.789001,0.460124 0.281317,0.846037 0.762769,1.632708 1.116666,1.824574 0.316403,0.171555 0.338301,0.169458 0.70217,-0.06733 z m 6.899584,0.02036 c 0.13696,-0.0966 0.25169,-0.317837 0.25495,-0.491617 0.003,-0.173779 0.15429,-0.983626 0.33561,-1.799651 0.18132,-0.816033 0.2747,-1.452126 0.20751,-1.41355 -0.0672,0.03859 -0.12217,0.130395 -0.12217,0.204024 0,0.07358 -0.0964,0.223393 -0.21412,0.332809 -0.11777,0.109433 -0.28545,0.462169 -0.37263,0.783864 -0.24368,0.899218 -0.44695,0.718038 -0.34506,-0.307562 0.0488,-0.490855 0.12261,-0.996597 0.16409,-1.12386 0.12192,-0.373995 -0.0792,-0.264827 -0.24362,0.132225 -0.519875,1.255667 -0.880186,3.520139 -0.601336,3.779225 0.155805,0.144768 0.670226,0.09211 0.936776,-0.09591 z M 86.604175,55.144981 c 0.730788,-0.806981 0.809854,-2.777238 0.139085,-3.465931 -0.31802,-0.326521 -0.741428,-0.2978 -0.884568,0.05997 -0.157789,0.394418 -0.04731,0.628035 0.297009,0.628035 0.241107,0 0.267403,0.06057 0.186529,0.429709 -0.209848,0.95778 -0.373272,1.421335 -0.501088,1.421335 -0.205724,0 -0.945189,-1.4495 -1.05706,-2.072076 -0.106996,-0.595403 -0.381303,-0.803704 -0.654954,-0.497323 -0.32206,0.360572 0.252003,2.298275 1.025345,3.460943 0.382263,0.574716 0.94873,0.588508 1.449702,0.03533 z m -7.950592,-0.908065 c -0.244654,-0.85111 -0.896012,-2.338229 -0.983718,-2.245915 -0.02379,0.02498 0.220652,0.805014 0.543195,1.733295 0.604265,1.739078 0.88796,2.06921 0.440523,0.51262 z m 1.356868,0.934493 c 0,-0.625947 -1.191971,-3.724136 -1.369376,-3.559297 -0.02626,0.02447 0.136846,0.576102 0.362441,1.226013 0.225598,0.649911 0.453177,1.389894 0.505738,1.64442 0.15247,0.738366 0.226987,0.925526 0.368492,0.925526 0.07299,0 0.132705,-0.106499 0.132705,-0.236662 z m 21.538879,-0.126938 c 0.0412,-0.199985 0.1182,-0.629044 0.1712,-0.953477 0.053,-0.324425 0.21992,-0.939626 0.37095,-1.367102 0.40947,-1.158955 0.23845,-1.200672 -0.35024,-0.08547 -0.60673,1.149424 -0.89252,2.769615 -0.48853,2.769615 0.12894,0 0.25312,-0.152211 0.29662,-0.3636 z m 1.92694,-0.264434 c 0.27818,-1.142588 0.70499,-2.528769 0.86321,-2.803477 0.0857,-0.148824 0.12267,-0.270586 0.0821,-0.270586 -0.17623,0 -0.79084,1.359856 -1.12177,2.482005 -0.2789,0.9457 -0.31671,1.220092 -0.16812,1.220092 0.11236,0 0.25496,-0.259899 0.34459,-0.628034 z m 1.14547,-0.264442 c 0.0999,-0.418142 0.32527,-1.117238 0.50074,-1.553552 0.51694,-1.285482 0.53308,-1.347621 0.20863,-0.802917 -0.33227,0.557844 -0.82495,1.78479 -0.93297,2.323419 -0.0364,0.181796 -0.1001,0.434663 -0.14143,0.561926 -0.0413,0.127263 -0.017,0.231375 0.0541,0.231375 0.0711,0 0.211,-0.342109 0.31095,-0.760251 z M 93.64929,52.045252 c 0.07202,-0.350828 -0.36314,-0.634006 -0.709578,-0.461724 -0.306412,0.152374 -0.340702,0.395812 -0.08873,0.629942 0.252408,0.234524 0.73656,0.132499 0.79831,-0.168218 z m 12.74577,-1.877686 c 0.21522,-0.118212 -0.26879,-0.173335 -2.27673,-0.259318 -3.03455,-0.129941 -25.752144,-0.124183 -26.880498,0.0068 -0.903365,0.104873 -1.029854,0.294685 -0.251163,0.376887 0.293483,0.03097 6.968935,0.04945 14.834333,0.04107 10.388748,-0.01104 14.375498,-0.05638 14.574058,-0.165412 z m 0.54529,-1.325694 c 0.78695,-0.06776 0.93194,-0.1152 0.80078,-0.262046 -0.13311,-0.149037 -2.94337,-0.179298 -16.649028,-0.179298 -14.561926,0 -16.488888,0.02318 -16.488888,0.198325 0,0.109074 0.01602,0.206949 0.03558,0.217481 0.380746,0.205033 29.945526,0.228415 32.301566,0.0255 z m 0.58109,-3.69236 c 0.19699,-0.10845 -0.4833,-0.16543 -2.76213,-0.231376 -3.8467,-0.111315 -27.987511,-0.112821 -28.982155,-0.0017 -0.749508,0.08367 -0.963114,0.236132 -0.498038,0.355516 0.550382,0.141268 31.980123,0.02207 32.242323,-0.12231 z m -4.61288,-0.931567 c 2.15566,-0.0616 2.70321,-0.111932 2.49018,-0.228945 -0.31757,-0.174422 -29.683802,-0.220912 -30.139989,-0.04765 -0.148161,0.05621 -0.22294,0.145495 -0.166175,0.198317 0.229474,0.213571 21.033533,0.272159 27.815984,0.07837 z m 1.49993,-1.041026 c 1.95306,-0.109639 3.60417,-0.248734 3.66914,-0.309102 0.21681,-0.201448 -8.618174,-0.282699 -21.253646,-0.195459 -6.87795,0.04757 -12.505364,0.13492 -12.505364,0.194279 0,0.372652 3.013513,0.468782 15.368296,0.490222 8.496268,0.0148 12.020704,-0.02832 14.721574,-0.17994 z M 90.711679,41.22095 c 0.797226,-0.363763 1.536208,-1.007496 1.536208,-1.338218 0,-0.125099 -0.570105,-0.187965 -2.241157,-0.247152 -3.41026,-0.120778 -5.856771,-0.708567 -7.644979,-1.836756 -1.350944,-0.852326 -1.819525,-1.270827 -3.158331,-2.820786 -1.594571,-1.846073 -2.538204,-2.607847 -4.083694,-3.296694 -2.094304,-0.933466 -4.247034,-1.265796 -6.495921,-1.0028 -1.933861,0.226139 -2.88445,0.472444 -4.338686,1.124168 -1.51081,0.677083 -3.250392,2.045759 -2.957462,2.326876 0.135799,0.130318 0.328939,0.05399 0.929938,-0.367664 2.303038,-1.615657 5.270367,-2.418232 8.215175,-2.221951 1.771694,0.118091 2.401764,0.263586 3.774706,0.871703 1.48304,0.656875 2.470294,1.399511 3.590638,2.700957 1.96971,2.288103 3.315208,3.371401 5.373992,4.326752 1.907122,0.884965 3.894266,1.251962 6.069814,1.121003 0.71114,-0.04278 1.25842,-0.02404 1.25842,0.04329 0,0.253337 -0.673688,0.431454 -1.871912,0.494936 -2.017605,0.106893 -3.892511,-0.326307 -6.259416,-1.446257 -1.610714,-0.762151 -3.167987,-2.038915 -4.893638,-4.012175 -1.430884,-1.636189 -2.622969,-2.441887 -4.311615,-2.9141 -0.771217,-0.215667 -0.939325,-0.167731 -0.277083,0.07897 1.397995,0.520868 2.850567,1.649622 4.128572,3.208222 2.433617,2.967932 4.711815,4.462262 8.09614,5.310473 1.135033,0.284479 1.587686,0.329267 3.041074,0.300905 1.542353,-0.03003 1.786073,-0.06913 2.519217,-0.403666 z m 8.3664,0.303746 c 0.430454,-0.06074 1.516671,-0.208104 2.413821,-0.327496 2.0606,-0.274212 2.96965,-0.560505 4.75993,-1.499088 1.50515,-0.7891 3.11291,-2.140434 5.25321,-4.415335 0.52771,-0.560891 1.37574,-1.274112 1.88452,-1.584925 1.12537,-0.687487 0.97145,-0.817684 -0.25572,-0.216301 -0.67979,0.333135 -1.45475,0.963385 -3.24128,2.63603 -2.55413,2.391324 -3.74945,3.198254 -5.85565,3.95297 -2.36222,0.846448 -7.188696,1.390048 -8.343715,0.939737 -0.825181,-0.321713 -0.449652,-0.443483 1.293728,-0.419519 1.92766,0.02652 4.672837,-0.349313 6.360037,-0.870712 2.17604,-0.672463 4.14514,-1.975835 5.94954,-3.9381 0.67286,-0.731727 1.63046,-1.700348 2.128,-2.152498 2.68516,-2.440168 6.79279,-2.695011 9.44455,-0.585958 0.52721,0.419305 0.58794,0.437332 0.80231,0.238142 0.21437,-0.199198 0.20993,-0.243139 -0.0587,-0.580542 -1.38927,-1.745033 -4.64081,-2.416529 -7.5529,-1.559798 -2.03553,0.598843 -3.17611,1.436932 -5.65647,4.156369 -2.75729,3.023038 -6.0146,4.202398 -11.993259,4.34234 -1.584822,0.03704 -2.881492,0.09265 -2.881492,0.123465 0,0.225779 0.4998,0.866433 0.863849,1.107296 1.106406,0.732027 2.627395,0.944297 4.685687,0.653923 z m 10.041631,-0.888019 c 0.69017,-1.407218 2.22177,-3.513165 3.25508,-4.47572 0.85828,-0.799521 2.6607,-1.907741 3.10276,-1.907741 0.12779,0 0.2735,-0.06194 0.32381,-0.137513 0.0595,-0.08951 -0.0493,-0.108655 -0.31176,-0.05484 -1.97289,0.404504 -3.73077,1.79344 -5.56131,4.394067 -0.7938,1.127735 -1.45868,2.465749 -1.45868,2.935429 0,0.455829 0.13188,0.302925 0.6501,-0.753682 z m -35.08707,0.591032 c -0.002,-0.402605 -0.56949,-1.507917 -1.258469,-2.450623 -0.592296,-0.81042 -1.841456,-1.947251 -2.760871,-2.512599 -0.861189,-0.529551 -0.748789,-0.265588 0.189183,0.444271 1.504696,1.138747 2.910948,2.927738 3.396268,4.320617 0.191268,0.548939 0.436051,0.660828 0.433889,0.198334 z m 1.511661,-0.132217 c -0.233916,-1.11 -1.645556,-3.3319 -2.879143,-4.531733 -1.26128,-1.226774 -3.572768,-2.327612 -4.820992,-2.295991 l -0.569182,0.01437 0.589806,0.108466 c 1.212309,0.222948 3.257468,1.407057 4.480659,2.594227 1.084142,1.052225 2.244853,2.806344 2.676262,4.044498 0.224879,0.64541 0.65617,0.699968 0.52259,0.06613 z m 3.132003,0.236295 c 0.172108,-0.416748 -0.874626,-2.696543 -1.899325,-4.136726 -1.085973,-1.526302 -2.520673,-2.68429 -3.912727,-3.158103 -0.992688,-0.337874 -1.967661,-0.562217 -1.881706,-0.432986 0.04404,0.06622 0.16576,0.120368 0.270496,0.120368 0.371485,0 2.179744,0.954367 3.020535,1.594165 1.549521,1.17912 3.133666,3.42412 3.679917,5.215061 0.13308,0.436314 0.269919,0.837927 0.304084,0.892468 0.102719,0.163975 0.333541,0.112018 0.418726,-0.09425 z m 27.290356,-0.02165 c 0.10307,-0.249581 -0.14474,-0.578224 -0.43601,-0.578224 -0.24227,0 -0.39512,0.32203 -0.28239,0.594985 0.10942,0.264947 0.60685,0.253354 0.7184,-0.01677 z m 5.76416,-2.695986 c 0.1893,-0.253269 0.73062,-0.870685 1.20296,-1.372038 0.98437,-1.044833 0.65719,-0.986536 -0.42383,0.07554 -0.98973,0.972385 -1.70581,2.011255 -2.12304,3.080111 -0.19363,0.496023 -0.35003,0.937744 -0.34756,0.9816 0.003,0.04389 0.30663,-0.456753 0.67591,-1.112482 0.36928,-0.655737 0.82629,-1.39945 1.01556,-1.652719 z m -34.652871,2.44377 c 0.172669,-0.160441 0.185646,-0.269533 0.06204,-0.521604 -0.300602,-0.613019 -0.829224,-0.571833 -0.829224,0.06459 0,0.304739 0.245068,0.611788 0.523447,0.65584 0.01396,0.0026 0.123661,-0.08727 0.243741,-0.198847 z m 3.188635,0.04423 c 0.303934,-0.2824 0.204994,-0.753834 -0.176893,-0.842897 -0.44657,-0.104138 -0.648423,0.0166 -0.648423,0.387941 0,0.316459 0.241188,0.613618 0.498039,0.613618 0.08609,0 0.233363,-0.07144 0.327277,-0.158662 z m 27.420396,-0.516744 c 0,-0.195776 -0.0956,-0.329712 -0.25585,-0.358382 -0.52958,-0.09477 -0.88059,0.519935 -0.49925,0.87427 0.24678,0.229297 0.7551,-0.117989 0.7551,-0.515888 z M 76.082973,38.408104 c -0.226897,-0.412871 -0.721075,-1.068283 -1.098174,-1.45649 -0.652287,-0.671496 -1.931525,-1.640595 -2.165622,-1.640595 -0.06023,0 0.320803,0.406934 0.846734,0.904291 0.900424,0.851504 1.676957,1.814769 2.259712,2.803093 0.186404,0.316135 0.297602,0.393382 0.412542,0.286575 0.114942,-0.106798 0.04615,-0.348543 -0.255192,-0.896874 z M 63.836521,155.02533 c -0.126345,-0.30592 0.140453,-0.48032 0.734842,-0.48032 0.594384,0 0.861181,0.1744 0.734838,0.48032 -0.06039,0.14625 -0.276607,0.20722 -0.734838,0.20722 -0.458232,0 -0.674443,-0.061 -0.734842,-0.20722 z m 56.209339,0.006 c -0.14787,-0.35807 0.15041,-0.47541 1.10252,-0.43373 0.80131,0.0351 0.91047,0.0716 0.91047,0.30431 0,0.23453 -0.1089,0.26888 -0.96245,0.30358 -0.78012,0.0317 -0.97913,-0.002 -1.05054,-0.17416 z m -5.65477,-1.58764 c -0.28179,-0.26184 -0.15845,-0.54591 0.28159,-0.64854 0.70381,-0.16412 1.22548,0.42093 0.63648,0.71382 -0.38373,0.19083 -0.66389,0.1709 -0.91807,-0.0653 z"
       id="path933" />
  </g>
</svg>
