<?xml version="1.0" encoding="UTF-8" standalone="no"?>
<!-- Created with Inkscape (http://www.inkscape.org/) -->

<svg
   width="210mm"
   height="297mm"
   viewBox="0 0 210 297"
   version="1.1"
   id="svg1080"
   inkscape:version="1.1 (c4e8f9e, 2021-05-24)"
   sodipodi:docname="jug03.svg"
   xmlns:inkscape="http://www.inkscape.org/namespaces/inkscape"
   xmlns:sodipodi="http://sodipodi.sourceforge.net/DTD/sodipodi-0.dtd"
   xmlns="http://www.w3.org/2000/svg"
   xmlns:svg="http://www.w3.org/2000/svg">
  <sodipodi:namedview
     id="namedview1082"
     pagecolor="#ffffff"
     bordercolor="#666666"
     borderopacity="1.0"
     inkscape:pageshadow="2"
     inkscape:pageopacity="0.0"
     inkscape:pagecheckerboard="0"
     inkscape:document-units="mm"
     showgrid="false"
     inkscape:zoom="0.57905443"
     inkscape:cx="406.69752"
     inkscape:cy="575.07547"
     inkscape:window-width="1600"
     inkscape:window-height="832"
     inkscape:window-x="0"
     inkscape:window-y="0"
     inkscape:window-maximized="1"
     inkscape:current-layer="layer1"
     inkscape:snap-global="false" />
  <defs
     id="defs1077" />
  <g
     inkscape:label="Layer 1"
     inkscape:groupmode="layer"
     id="layer1">
    <path
       style="fill:#010202;stroke-width:0.16301;fill-opacity:1"
       d="m 76.458607,181.5223 c -0.055,-0.13781 -0.0316,-0.31633 0.0519,-0.39667 0.0835,-0.0804 1.90705,-0.16547 4.05227,-0.18912 l 3.90041,-0.043 -0.91407,-0.30615 c -0.89919,-0.30116 -2.5505,-0.37362 -12.67229,-0.556 -0.83886,-0.0151 -0.95562,-0.0563 -0.95562,-0.33699 0,-0.17588 0.0187,-0.33498 0.0416,-0.35357 0.0228,-0.0186 2.20514,-0.0725 4.84953,-0.11992 l 4.80798,-0.0861 -0.68598,-0.43643 c -0.68518,-0.43589 -0.69002,-0.43645 -4.1432,-0.47965 -3.33145,-0.0417 -3.45723,-0.0549 -3.45723,-0.36301 0,-0.3075 0.12582,-0.32143 3.28233,-0.36312 l 3.28234,-0.0434 v -0.68016 -0.68017 l -0.95562,0.004 c -0.84622,0.004 -0.95562,-0.0326 -0.95562,-0.31575 0,-0.26142 0.12773,-0.32869 0.69998,-0.36863 0.38499,-0.0269 0.84738,0.027 1.02755,0.11978 0.26674,0.13735 0.34636,0.11175 0.42869,-0.13779 0.18712,-0.5672 0.77976,-1.14033 1.58518,-1.53299 0.62128,-0.30286 0.84426,-0.51851 0.99723,-0.96442 0.46475,-1.35476 -0.21118,-2.31553 -2.53469,-3.60282 -5.37559,-2.97824 -9.091,-5.67153 -12.757258,-9.24775 -4.477015,-4.36706 -8.040773,-9.38804 -10.401923,-14.65524 -1.851395,-4.13007 -2.900956,-7.73359 -3.908387,-13.41894 -0.484594,-2.73474 -0.522607,-8.18708 -0.07915,-11.35189 1.285969,-9.17748 3.516912,-15.46169 7.605933,-21.424731 3.591076,-5.236885 6.734764,-8.307565 13.508605,-13.194853 5.43063,-3.918168 8.67347,-7.777009 10.14323,-12.069995 1.05513,-3.08191 1.46707,-6.24509 1.3399,-10.288887 -0.13322,-4.236529 -0.65682,-6.559306 -2.13115,-9.454171 -0.55527,-1.090283 -0.95624,-1.605909 -2.02768,-2.607475 l -1.33553,-1.248443 0.0504,-2.428935 c 0.0607,-2.922061 -0.20635,-4.14322 -1.38687,-6.342175 -1.7883,-3.331045 -4.60451,-5.930017 -7.75792,-7.159468 -1.10934,-0.432512 -2.449091,-0.533666 -4.034983,-0.304644 -1.004679,0.14508 -1.504804,-0.06618 -1.96973,-0.832009 -1.600528,-2.636472 2.884656,-6.510665 8.788433,-7.591238 1.49412,-0.273468 4.99552,-0.334254 6.43812,-0.111763 1.64237,0.253304 3.75448,0.981094 5.14044,1.771297 1.5504,0.883952 2.87201,2.09104 4.3187,3.944493 2.28853,2.931976 4.08783,4.01738 7.66615,4.624499 2.03917,0.345984 10.796433,0.491236 13.544913,0.224662 3.23725,-0.313978 5.18591,-0.889889 6.97105,-2.060226 0.94133,-0.617145 2.56735,-2.130402 3.462,-3.221928 2.91578,-3.557406 6.34624,-5.276235 10.53037,-5.276235 1.03671,0 2.17589,0.100516 2.75716,0.243284 2.64692,0.650113 5.02496,2.429006 5.40857,4.045891 0.29376,1.23814 -0.60479,2.741724 -1.80391,3.018596 -0.60336,0.139312 -0.5801,0.150719 0.87594,0.429907 2.03558,0.390313 4.42292,1.178694 5.77744,1.907916 4.54347,2.446025 7.94347,6.532594 9.74927,11.717966 0.79008,2.268703 1.03813,3.633058 1.13149,6.223246 0.23033,6.390747 -1.79831,11.695199 -7.64488,19.989646 -4.50716,6.394248 -6.10172,9.598641 -6.10399,12.266498 -9e-4,0.982725 0.0265,1.071021 0.2899,0.937914 0.58249,-0.294291 1.66737,-0.367205 2.39288,-0.160823 1.00678,0.286379 2.2898,1.555103 2.69741,2.667317 0.78528,2.142799 -0.58846,4.785161 -2.97955,5.731094 -0.40611,0.160669 -0.73866,0.331659 -0.73901,0.379998 -3.4e-4,0.04836 0.59429,0.823138 1.32141,1.721774 6.16814,7.623151 9.69984,17.343621 10.23452,28.168981 0.10364,2.09854 -0.18831,6.45294 -0.5789,8.63384 -1.00005,5.58395 -2.59271,10.276 -5.12154,15.08832 -2.7431,5.22006 -7.45537,10.76762 -12.6555,14.8988 -1.8947,1.50523 -5.29494,3.78607 -7.89084,5.29306 -2.31722,1.34521 -3.01231,1.90935 -3.37146,2.73631 -0.46553,1.07189 -0.0497,1.80141 1.5995,2.80628 0.83131,0.50653 1.24632,1.28194 1.23101,2.30009 l -0.0127,0.84578 2.84387,0.003 c 1.56412,0.002 2.94824,0.066 3.07582,0.14376 0.12758,0.0777 0.18601,0.25648 0.12986,0.39726 -0.0887,0.22231 -0.51871,0.25597 -3.27088,0.25597 h -3.16879 l -0.86664,0.47815 -0.86663,0.47815 4.2659,0.002 c 2.34626,0.002 4.3842,0.0452 4.52879,0.0986 0.14459,0.0534 0.26288,0.22556 0.26288,0.38261 0,0.15706 -0.11829,0.32924 -0.26288,0.38261 -0.14459,0.0534 -2.74643,0.097 -5.78187,0.097 -4.36959,0 -5.71831,0.05 -6.47608,0.23982 -0.52641,0.13192 -1.12172,0.25113 -1.32293,0.26491 -0.90394,0.062 3.35749,0.27227 5.42609,0.26779 2.32378,-0.005 2.73924,0.089 2.54507,0.57577 -0.0901,0.22596 -2.59481,0.25052 -25.53806,0.25052 -22.943263,0 -25.447923,-0.0245 -25.538073,-0.25057 z m 38.418113,-2.64628 c 1.52606,-0.20285 0.49887,-0.22926 -12.56283,-0.32307 -7.823623,-0.0561 -14.554483,-0.14524 -14.957463,-0.19789 -1.14126,-0.14913 -0.42393,0.17393 0.84181,0.3791 2.43875,0.39536 4.37135,0.44977 14.463223,0.40723 7.84675,-0.0331 10.97955,-0.10112 12.21526,-0.26537 z m -2.9084,-1.15732 1.91124,-0.1903 -2.9084,-0.11567 c -4.1108,-0.16351 -21.809753,-0.14577 -21.702143,0.0217 0.0991,0.15433 4.34265,0.49105 7.16016,0.56818 3.41783,0.0935 13.620113,-0.0929 15.539143,-0.28395 z m 0.91407,-1.70251 c 2.66055,-0.14773 6.01917,-0.54031 6.21235,-0.72616 0.039,-0.0375 -0.66977,-0.0361 -1.575,0.003 -6.65924,0.28868 -25.380033,0.19312 -31.363243,-0.16009 -2.29595,-0.13554 -1.03505,0.342 1.96297,0.74345 3.22222,0.43147 18.005303,0.51481 24.762923,0.13963 z m -0.74787,-1.27853 c 3.69218,-0.17747 5.99042,-0.40101 7.31254,-0.71123 0.88926,-0.20864 0.8667,-0.21165 -0.83098,-0.11125 -2.28445,0.13514 -27.253673,0.13371 -31.327583,-0.002 -1.84921,-0.0615 -2.95108,-0.0478 -2.6591,0.0331 1.13445,0.31442 3.57654,0.63706 5.54558,0.73267 1.15464,0.056 2.13051,0.12816 2.16859,0.16025 0.15312,0.12894 16.768513,0.0435 19.790953,-0.10182 z m 1.57884,-3.57771 c 1.18829,-0.13615 2.64664,-0.32481 3.24078,-0.41927 0.59415,-0.0944 1.37864,-0.21026 1.74331,-0.25736 1.01848,-0.13156 0.95175,-0.26589 -0.0813,-0.16379 -0.50274,0.0497 -1.69934,0.14679 -2.65912,0.2158 -2.18906,0.1574 -24.731093,0.16597 -27.089623,0.0102 -0.95977,-0.0633 -2.41813,-0.15362 -3.24079,-0.20063 l -1.49574,-0.0854 1.04861,0.23251 c 1.45707,0.32307 1.77825,0.36803 4.60199,0.64403 3.65285,0.35703 3.88577,0.3626 13.212433,0.31504 6.44485,-0.0328 9.09265,-0.10476 10.71951,-0.29116 z m 0.49859,-1.27827 c 4.42601,-0.47405 6.99085,-0.88226 8.72518,-1.38864 1.18101,-0.34483 1.16441,-0.34407 -2.07742,0.0958 -4.2575,0.57772 -7.75667,0.68555 -20.60807,0.63507 -7.627463,-0.0299 -13.045003,-0.11654 -13.960303,-0.22307 -0.82266,-0.0958 -1.83229,-0.21015 -2.24362,-0.25416 -0.41133,-0.044 -1.19199,-0.15143 -1.7348,-0.23867 -2.36396,-0.37996 -0.32263,0.29318 2.46877,0.81408 2.23414,0.41691 4.16824,0.60801 7.32644,0.72384 1.46251,0.0537 2.69651,0.13164 2.74221,0.17329 0.0457,0.0417 3.89725,0.0388 8.558993,-0.006 6.05957,-0.0587 9.1392,-0.1531 10.80262,-0.33126 z m -23.350283,-3.61774 c -0.19525,-0.26382 -0.39241,-0.47966 -0.43812,-0.47966 -0.0457,0 0.0767,0.21584 0.27193,0.47966 0.19526,0.26381 0.39242,0.47966 0.43812,0.47966 0.0457,0 -0.0767,-0.21585 -0.27193,-0.47966 z m 4.91551,-1.48879 c -1.64799,-3.1051 -2.92717,-6.46955 -3.8412,-10.10294 -0.95621,-3.80103 -1.66696,-9.40423 -1.52797,-12.04577 0.0861,-1.63519 0.0831,-1.65195 -0.2698,-1.54305 -0.19624,0.0605 -0.81254,0.14663 -1.36956,0.19125 -0.9572,0.0767 -1.04598,0.0531 -1.61833,-0.43037 -1.12071,-0.94663 -1.18823,-2.35402 -0.16887,-3.51949 0.79948,-0.91407 2.7254,-1.54788 3.91747,-1.28923 3.55934,0.77228 5.56327,6.02701 6.28412,16.4782 0.2449,3.55079 1.00924,8.34999 1.28725,8.08254 0.0817,-0.0787 -0.0452,-1.31137 -0.4621,-4.48511 -0.29599,-2.25374 -0.36204,-3.03539 -0.24735,-2.92711 0.0645,0.0609 0.21912,0.88831 0.34358,1.83869 0.2573,1.96483 0.83148,6.14853 0.99966,7.284 0.0618,0.4177 0.18152,0.75945 0.2659,0.75945 0.0844,0 0.11533,-0.0593 0.0688,-0.1317 -0.0466,-0.0725 -0.12347,-0.59406 -0.17097,-1.15918 -0.0475,-0.56509 -0.12269,-1.20733 -0.16712,-1.42717 -0.20403,-1.00962 -0.4258,-3.19256 -0.40564,-3.99296 0.0184,-0.73031 0.0586,-0.59238 0.23196,0.79524 0.18247,1.46079 0.57609,3.90648 0.8205,5.09801 0.265493,1.29438 0.265803,-0.53854 3.3e-4,-2.14787 -0.0443,-0.26807 -0.24053,-2.53446 -0.43626,-5.03641 -0.28606,-3.6568 -0.37892,-6.6657 -0.47344,-15.34131 -0.0973,-8.92686 -0.16185,-10.95811 -0.37367,-11.75161 -0.50137,-1.87817 -0.97015,-2.92052 -2.07486,-4.61358 -1.76718,-2.70831 -5.54487,-3.88604 -8.40237,-2.61951 -1.14868,0.50913 -2.66454,1.92372 -3.31428,3.09288 -1.38928,2.49989 -1.15378,5.48199 0.5546,7.02304 l 0.52634,0.47478 -0.44928,-0.66438 c -0.55484,-0.82046 -1.02163,-2.42393 -0.77478,-2.66143 0.11819,-0.1137 0.20374,-0.0696 0.27437,0.14133 0.40079,1.19701 1.31679,2.76209 1.50858,2.57756 0.0391,-0.0376 -0.12585,-0.44539 -0.36647,-0.90626 -1.12035,-2.14593 -0.49806,-4.61737 1.64004,-6.5134 1.29163,-1.14539 1.96319,-1.39472 3.77387,-1.40112 1.39685,-0.005 1.67584,0.0437 2.42026,0.42163 0.92152,0.4679 1.31884,0.83345 1.16543,1.07223 -0.0568,0.0884 -0.52138,-0.055 -1.08661,-0.3355 -1.76142,-0.87395 -3.52623,-0.80712 -5.13715,0.19455 -2.77769,1.72716 -3.5728,5.07517 -1.62079,6.82474 0.37463,0.33577 0.5164,0.42855 0.31504,0.20616 -0.94904,-1.04811 -0.871,-3.26529 0.17003,-4.83091 1.28034,-1.92552 3.54741,-2.57817 5.80059,-1.66987 1.85177,0.74648 3.358,3.20574 3.78526,6.18027 0.0825,0.57454 0.16898,4.03049 0.19213,7.67989 0.0361,5.6881 0.008,6.63527 -0.1973,6.63527 -0.18368,0 -0.24833,-0.27902 -0.27785,-1.19915 -0.0975,-3.03872 -0.39229,-6.92366 -0.60739,-8.00446 -0.13015,-0.65394 -0.4285,-1.71707 -0.66299,-2.36252 -0.46253,-1.27312 -2.19738,-4.50241 -2.41877,-4.50241 -0.20321,0 -0.34412,0.86008 -0.34412,2.10053 0,1.25605 0.36513,2.65536 1.24479,4.77057 0.33614,0.80823 0.57801,1.50141 0.53751,1.54037 -0.0405,0.039 -0.4394,-0.22019 -0.88643,-0.57593 -3.34892,-2.66491 -7.96394,-0.98374 -9.56925,3.48592 -0.34934,0.97267 -0.38401,1.34528 -0.38216,4.10754 0.002,2.81024 0.0373,3.16959 0.47233,4.79658 1.81805,6.79903 4.48132,12.43262 8.03097,16.98788 0.4968,0.63755 0.9318,1.15917 0.96665,1.15917 0.0349,0 -0.46121,-0.80235 -1.10236,-1.783 -1.5691,-2.39993 -2.45435,-4.00231 -3.4757,-6.29124 -1.84874,-4.14317 -2.98694,-7.64469 -3.5861,-11.03213 -0.35437,-2.00351 -0.41229,-2.75359 -0.35182,-4.55675 0.0758,-2.2594 0.17082,-2.71806 0.56325,-2.71806 0.19194,0 0.21235,0.16024 0.10686,0.8394 -0.40301,2.59484 0.15549,7.23252 1.29487,10.75233 0.71087,2.19604 2.1863,5.75275 3.18361,7.67452 0.89414,1.72295 3.10927,5.25912 3.2248,5.14798 0.0388,-0.0374 -0.51691,-1.17491 -1.23487,-2.52797 -1.87742,-3.53817 -3.88336,-8.51129 -4.6683,-11.57362 -1.12505,-4.38925 -0.77035,-6.9576 1.1311,-8.19035 0.87034,-0.56425 1.04665,-0.46661 0.58677,0.32499 -0.66367,1.14235 -0.82936,2.79778 -0.50275,5.02323 0.93179,6.34927 4.1577,14.00813 7.77999,18.47098 0.26765,0.32977 0.51262,0.59958 0.54439,0.59958 0.0318,0 -0.41238,-0.8858 -0.98697,-1.96845 z m 16.275003,-0.3499 c 0.27276,-0.35174 0.54046,-0.67552 0.59489,-0.71949 0.10653,-0.0861 1.27253,-1.81718 2.1,-3.11777 0.52068,-0.81841 2.37784,-4.57839 2.7872,-5.64297 0.12533,-0.32592 0.38421,-0.9883 0.57529,-1.47195 0.43864,-1.1103 1.73933,-5.45233 2.10738,-7.03499 0.38954,-1.67503 0.38655,-5.00676 -0.005,-6.39544 -0.63339,-2.24223 -1.998,-3.91664 -3.88561,-4.76778 -0.79996,-0.36072 -1.17381,-0.42801 -2.36296,-0.42539 -1.58089,0.004 -2.4702,0.30658 -3.47105,1.18297 -0.30946,0.27099 -0.62369,0.49271 -0.69828,0.49271 -0.0746,0 0.15169,-0.66552 0.50286,-1.47895 0.84652,-1.96084 1.24486,-3.86615 1.10714,-5.29564 -0.13698,-1.42182 -0.30014,-1.72874 -0.64026,-1.20437 -2.45109,3.77893 -3.02127,5.92113 -3.21957,12.09602 -0.10782,3.35738 -0.13211,3.55747 -0.43186,3.55747 -0.30936,0 -0.31504,-0.18182 -0.21859,-6.99502 0.11302,-7.98292 0.14902,-8.54608 0.62484,-9.77486 0.46978,-1.21314 0.93259,-1.88634 1.86344,-2.71049 2.1122,-1.87011 4.65181,-1.82757 6.42429,0.10759 1.05999,1.15727 1.2088,1.53246 1.21545,3.06441 0.004,1.02448 -0.07,1.49678 -0.30254,1.91863 l -0.30843,0.5596 0.33975,-0.2912 c 0.18687,-0.16016 0.50521,-0.66119 0.70741,-1.11342 0.71876,-1.60736 0.0986,-3.86938 -1.43318,-5.22777 -0.92071,-0.81646 -1.8337,-1.21833 -3.1069,-1.36754 -1.05888,-0.12409 -2.03253,0.1358 -3.10322,0.82836 -0.3691,0.23874 -0.63296,0.31702 -0.73564,0.21823 -0.22834,-0.21968 0.24054,-0.66753 1.18487,-1.13174 0.67603,-0.33232 1.02069,-0.38835 2.36991,-0.38531 1.43047,0.003 1.66225,0.0476 2.46622,0.47287 1.19679,0.63295 2.40916,1.9409 2.85637,3.08156 0.46225,1.17901 0.40294,3.08367 -0.13191,4.23644 -0.19379,0.4177 -0.28447,0.75947 -0.2015,0.75947 0.19185,0 0.99381,-1.12663 0.99381,-1.39615 0,-0.1115 0.11659,-0.20272 0.2591,-0.20272 0.1425,0 0.21325,-0.0714 0.1572,-0.15862 -0.056,-0.0872 -0.0187,-0.28509 0.083,-0.43969 0.1463,-0.22234 0.16961,-0.12062 0.11153,0.48675 -0.047,0.49084 -0.26382,1.06252 -0.6012,1.58464 -0.47954,0.74213 -0.49271,0.79482 -0.14409,0.57632 0.63012,-0.39493 1.43248,-1.83115 1.55649,-2.78614 0.20666,-1.59117 -0.25946,-3.63002 -1.13306,-4.95619 -0.54139,-0.82186 -1.88999,-2.01947 -2.79986,-2.48639 -0.63257,-0.32462 -0.96316,-0.37458 -2.47846,-0.37458 -1.65446,0 -1.81095,0.0294 -2.9084,0.54759 -2.40356,1.13476 -4.11074,3.44333 -4.91565,6.64729 -0.34744,1.38295 -0.3631,1.80609 -0.40248,10.87223 -0.0437,10.06742 -0.0973,10.99314 -1.08655,18.78661 -0.31754,2.50156 -0.56477,5.71367 -0.4302,5.58929 0.10885,-0.10058 0.39959,-1.91406 0.51159,-3.191 0.12793,-1.45861 0.28459,-2.3095 0.45627,-2.47823 0.10645,-0.10461 0.12951,0.0336 0.0667,0.39971 -0.0528,0.30778 -0.12818,0.75612 -0.16756,0.99631 -0.12728,0.77654 -0.15334,2.51806 -0.0393,2.62776 0.061,0.0586 0.10555,0.22051 0.0991,0.35976 -0.008,0.1832 -0.0485,0.1648 -0.14468,-0.0667 -0.0899,-0.21618 -0.12958,-0.0403 -0.12241,0.54262 l 0.0106,0.86241 0.39043,-1.10223 c 0.60877,-1.71861 1.32476,-5.60367 2.03984,-11.06844 0.86112,-6.58077 1.56814,-9.52929 2.8051,-11.69834 1.14081,-2.00041 2.50664,-2.9387 4.25658,-2.92417 1.28417,0.0107 2.34818,0.4588 3.10257,1.30668 1.13951,1.28074 1.15729,2.58371 0.048,3.52066 -0.77935,0.6583 -1.27692,0.75241 -2.31447,0.43777 -1.34368,-0.40748 -1.29313,-0.46436 -1.16249,1.30856 0.24581,3.33546 -0.90397,9.78855 -2.69553,15.12865 -0.73804,2.19985 -1.96998,4.98238 -2.9426,6.64624 -0.40758,0.69727 -0.79449,1.43164 -0.85979,1.63192 -0.20988,0.64377 1.34021,-1.29946 2.66134,-3.33629 1.47944,-2.28091 2.39352,-4.11006 3.54402,-7.09187 2.24409,-5.81618 2.88983,-9.98165 1.94569,-12.55105 -0.22619,-0.61556 -0.41158,-1.13905 -0.41198,-1.16329 -0.004,-0.1897 1.06618,0.55343 1.46341,1.01705 1.42633,1.66472 1.23518,5.27189 -0.54608,10.3044 -0.98922,2.7948 -2.31651,5.94445 -3.06342,7.26941 -1.60503,2.84726 -1.85677,3.33533 -1.52562,2.95789 0.61494,-0.70092 2.13066,-2.962 2.65333,-3.95809 2.22808,-4.24628 3.9304,-9.17356 4.6657,-13.50467 0.19977,-1.1767 0.25579,-4.69113 0.0817,-5.1275 -0.0805,-0.20183 -0.022,-0.27344 0.22333,-0.27344 0.18281,0 0.36802,0.09 0.41157,0.19986 0.14881,0.3756 0.12907,3.39548 -0.0307,4.69527 -0.78606,6.39509 -4.86295,15.92848 -8.77814,20.52674 l -0.74874,0.87938 0.89466,-0.87938 c 0.49206,-0.48365 1.11783,-1.16717 1.3906,-1.51892 z m -7.16642,-4.35689 c 0.0474,-0.15389 0.1665,-0.96331 0.26467,-1.79872 0.23526,-2.00201 0.53367,-3.11117 0.40865,-1.51891 -0.0483,0.61556 -0.1181,1.29907 -0.15504,1.51891 -0.0369,0.21984 -0.11865,0.77744 -0.18157,1.23912 -0.0629,0.46167 -0.1838,0.8394 -0.26864,0.8394 -0.0848,0 -0.11547,-0.12591 -0.068,-0.2798 z m -0.0506,-3.49083 c 0.008,-0.18628 0.0474,-0.22415 0.10041,-0.0966 0.048,0.11542 0.0421,0.25332 -0.0131,0.30645 -0.0552,0.0531 -0.0945,-0.0413 -0.0873,-0.20984 z m 0.18548,-1.26578 c 0.004,-0.26381 0.0407,-0.35237 0.0828,-0.19682 0.0421,0.15557 0.0394,0.37141 -0.006,0.47966 -0.0455,0.10826 -0.08,-0.019 -0.0766,-0.28284 z m 0.46618,0.0799 c 0,-0.088 0.0748,-0.15989 0.16619,-0.15989 0.0914,0 0.1662,0.072 0.1662,0.15989 0,0.088 -0.0748,0.1599 -0.1662,0.1599 -0.0914,0 -0.16619,-0.072 -0.16619,-0.1599 z m 7.49993,10.27267 c 0.20673,-0.25358 0.20085,-0.25923 -0.0627,-0.0603 -0.15996,0.1207 -0.29083,0.24662 -0.29083,0.27981 0,0.1316 0.13647,0.0469 0.35358,-0.21944 z m -27.047953,-0.0799 c -0.0676,-0.10992 -0.59263,-0.83279 -1.16671,-1.60635 -1.5794,-2.12823 -2.60586,-3.83825 -4.12418,-6.87065 -3.58003,-7.15005 -6.82606,-16.74238 -7.99392,-23.62275 -0.36798,-2.16797 -0.52581,-10.55432 -0.2512,-13.34785 0.24784,-2.52115 0.2597,-2.60086 0.67839,-4.55674 0.19765,-0.92335 0.38789,-1.81465 0.42275,-1.98068 0.20833,-0.99213 1.55739,-4.89334 1.9275,-5.57394 0.16142,-0.29683 0.63905,-0.38817 0.63905,-0.12221 0,0.0867 -0.34181,1.11193 -0.75959,2.27837 -0.77436,2.16204 -1.32821,4.35363 -1.92995,7.63686 -0.27937,1.52432 -0.34662,2.69979 -0.39335,6.8751 -0.0676,6.04014 0.12389,8.06803 1.20028,12.71093 0.86113,3.71437 3.4219,11.17963 5.36787,15.6486 1.39988,3.2149 3.61077,7.1093 5.21478,9.18574 0.38549,0.49902 0.91309,1.21148 1.17244,1.58322 0.25936,0.37175 0.58635,0.76747 0.72664,0.87938 0.14029,0.1119 -0.32766,-0.65994 -1.0399,-1.71519 -1.45789,-2.16 -3.03772,-4.78928 -3.68615,-6.13479 -0.2386,-0.4951 -0.69382,-1.43979 -1.01159,-2.09933 -2.30321,-4.78025 -4.13854,-10.57946 -5.09724,-16.10618 -0.90818,-5.23548 -0.96343,-5.92311 -0.9791,-12.18574 -0.0131,-5.20309 0.0253,-6.11542 0.34977,-8.32197 0.61726,-4.19793 1.6387,-7.95318 3.08236,-11.33208 0.23956,-0.56069 0.39516,-1.08232 0.34579,-1.15917 -0.21545,-0.33538 -0.59358,-0.0819 -0.98422,0.65968 -0.38466,0.73029 -0.76858,0.99538 -0.97537,0.67347 -0.0445,-0.0693 0.17507,-0.58688 0.48793,-1.15023 0.42557,-0.76627 0.51674,-1.05608 0.36195,-1.15053 -0.32887,-0.20068 -0.51302,-0.0734 -0.92568,0.63975 -0.24521,0.42379 -0.50328,0.66778 -0.70632,0.66778 -0.49646,0 -0.39747,-0.65013 0.17865,-1.17325 0.83746,-0.76043 0.57279,-1.05821 -0.9448,-1.06298 -0.95476,-0.003 -1.41766,0.19532 -2.31658,0.99247 -2.98111,2.64359 -5.543706,9.53089 -6.292757,16.91258 -0.05801,0.57159 -0.226279,1.26631 -0.373946,1.54383 -0.241048,0.45301 -0.24274,0.54289 -0.01654,0.87937 0.199248,0.29642 0.254655,0.96001 0.264915,3.17281 0.0072,1.5389 0.09903,3.69737 0.204213,4.79658 0.260924,2.72686 1.385205,7.72593 2.355265,10.47253 2.04486,5.78981 3.77284,9.60429 5.92105,13.07058 0.58581,0.94525 1.13199,1.67889 1.21372,1.63029 0.0817,-0.0486 0.27716,0.1853 0.43431,0.51975 0.3494,0.74361 1.73334,2.63918 2.49987,3.42401 0.31022,0.31764 0.58114,0.68961 0.60204,0.82663 0.0481,0.3153 2.42409,2.73408 2.5586,2.60467 0.0549,-0.0529 0.32566,0.10278 0.60162,0.34584 0.27595,0.24306 0.0381,-0.0541 -0.52861,-0.66041 -0.56669,-0.60631 -1.03035,-1.17223 -1.03035,-1.2576 0,-0.17512 -1.28486,-2.07556 -2.11998,-3.13568 -0.5452,-0.69209 -3.25426,-5.70174 -4.33412,-8.01475 -2.74156,-5.87227 -4.86921,-13.65758 -5.51928,-20.1956 -0.19496,-1.96083 -0.23525,-7.8499 -0.0628,-9.18345 0.0851,-0.65814 0.17223,-0.8394 0.40355,-0.8394 0.27529,0 0.28908,0.202 0.20616,3.02014 -0.0913,3.10174 0.11035,6.64598 0.56036,9.85068 0.34083,2.42719 0.50132,2.95789 0.89449,2.95789 0.22943,0 0.36569,0.16913 0.48305,0.59958 1.68433,6.1775 2.28782,8.00453 3.92132,11.87154 1.24412,2.9452 2.48775,5.40572 3.879,7.67452 1.34234,2.18906 3.91538,5.61937 5.23631,6.98094 1.08453,1.11789 1.43862,1.41291 1.16828,0.97339 z m -5.02906,-2.25937 c -0.77419,-0.7498 -1.1371,-1.20623 -0.99526,-1.25171 0.15448,-0.0495 0.0134,-0.31393 -0.45804,-0.85842 -2.00134,-2.31141 -4.32678,-6.53169 -6.4243,-11.65907 -2.68503,-6.56357 -4.23859,-12.25816 -4.77629,-17.50752 -0.26833,-2.61952 -0.29959,-3.3576 -0.14224,-3.3576 0.0802,0 0.14706,0.018 0.14867,0.04 0.52487,7.18324 2.15083,13.87927 5.12277,21.09664 1.48941,3.61708 4.0848,8.41249 5.52903,10.21582 0.45126,0.56347 1.129,1.45617 1.50608,1.9838 0.6417,0.89788 0.65209,0.92924 0.16229,0.48971 -0.98839,-0.88693 -0.52294,-0.1776 0.59403,0.90528 0.61455,0.59578 1.0801,1.08324 1.03456,1.08324 -0.0456,0 -0.63113,-0.53106 -1.3013,-1.18013 z m -5.87029,-7.91198 c -2.98123,-5.39789 -6.57985,-15.09469 -7.18758,-19.36758 -0.0563,-0.39572 -0.17109,-1.07924 -0.25511,-1.51893 -0.08402,-0.43968 -0.195478,-1.26709 -0.247657,-1.83868 -0.05218,-0.57159 -0.126598,-1.32706 -0.16537,-1.67881 -0.209937,-1.90448 -0.261428,-3.27766 -0.122915,-3.27766 0.08462,0 0.204547,0.7015 0.266502,1.55888 0.06195,0.8574 0.140779,1.77475 0.175165,2.03856 0.03438,0.2638 0.107265,0.89026 0.161965,1.39211 0.33361,3.06114 1.67679,8.47759 3.00509,12.11826 1.21607,3.33306 3.37856,8.27813 4.84901,11.08848 0.91401,1.74686 0.55975,1.36633 -0.4791,-0.51463 z m -3.86891,-20.92647 c -0.42215,-2.1578 -0.573,-4.88369 -0.51538,-9.31336 0.0605,-4.65073 0.21783,-6.6503 0.6892,-8.75887 0.13207,-0.59077 0.35809,-1.61374 0.50227,-2.27327 0.31942,-1.46113 1.55786,-5.07592 2.22129,-6.48355 0.2964,-0.62888 0.58728,-1.03109 0.74568,-1.03109 0.3599,0 0.32734,0.52476 -0.0803,1.29339 -0.75726,1.42801 -1.9735,5.16828 -2.5748,7.91827 -0.97242,4.44721 -1.18886,12.71916 -0.47959,18.3287 0.0969,0.76652 0.0741,0.91935 -0.13743,0.91935 -0.16149,0 -0.29631,-0.2179 -0.37098,-0.59957 z m -3.24357,-6.35548 c 0,-0.13191 0.0748,-0.23982 0.1662,-0.23982 0.0914,0 0.16619,0.10791 0.16619,0.23982 0,0.13192 -0.0748,0.23984 -0.16619,0.23984 -0.0914,0 -0.1662,-0.10792 -0.1662,-0.23984 z m -0.997165,-0.95931 c 0,-0.21984 0.07478,-0.39972 0.166194,-0.39972 0.09141,0 0.166195,0.17988 0.166195,0.39972 0,0.21984 -0.07478,0.39972 -0.166195,0.39972 -0.09141,0 -0.166194,-0.17988 -0.166194,-0.39972 z m 52.283488,36.02601 c 4.21263,-4.16796 7.41925,-9.19143 9.7926,-15.34098 0.52176,-1.35192 1.01364,-2.60193 1.09307,-2.7778 0.15124,-0.33483 1.43564,-4.55008 1.55759,-5.11177 0.38765,-1.78559 0.61368,-3.14775 0.92294,-5.56227 0.3265,-2.54909 0.35522,-3.35889 0.2807,-7.91435 -0.0773,-4.72545 -0.14062,-5.54339 -0.70236,-9.07189 -0.3306,-2.0766 -1.35279,-5.71415 -2.16513,-7.70482 -0.56837,-1.39286 -0.59001,-1.64851 -0.13949,-1.64851 0.54899,0 2.22273,4.85789 2.80944,8.15419 0.0548,0.30778 0.25233,1.38701 0.43897,2.39829 0.25877,1.402 0.36498,2.88293 0.44723,6.23555 0.0989,4.03151 -0.0166,10.82511 -0.19712,11.59174 -0.0414,0.17587 -0.12533,0.82341 -0.18653,1.43897 -0.28023,2.81943 -1.66717,8.13859 -2.96456,11.36959 -1.47698,3.67827 -4.62649,9.06308 -6.90979,11.81388 -0.58393,0.7035 -0.82722,1.06739 -0.54061,0.80868 0.50896,-0.45946 1.01792,-0.66665 1.01792,-0.4144 0,0.15141 -0.37602,0.46877 -0.5113,0.43153 -0.15139,-0.0417 -1.23608,0.83077 -2.61983,2.10723 -1.60596,1.48142 -1.15454,1.28967 0.62899,-0.26719 0.73633,-0.64275 1.34047,-1.07382 1.34254,-0.95793 0.007,0.42064 3.88443,-3.96506 5.25529,-5.9449 1.77663,-2.56589 3.67995,-5.88301 4.30035,-7.4947 0.12269,-0.31875 0.38353,-0.97526 0.57962,-1.45891 1.8504,-4.56384 3.38815,-10.55199 3.75684,-14.62957 0.0863,-0.95421 0.19048,-1.33008 0.41027,-1.47981 0.2731,-0.18608 0.2908,-0.55957 0.24241,-5.11635 -0.0653,-6.14901 -0.32209,-8.25672 -1.534,-12.59016 -1.16761,-4.17505 -2.87261,-7.2992 -5.07535,-9.29977 -1.1422,-1.03736 -1.98161,-1.31776 -3.0924,-1.03299 -0.42626,0.10928 -0.82943,0.25043 -0.89592,0.31365 -0.0665,0.0632 0.15184,0.54466 0.48519,1.06988 1.97711,3.11514 3.57991,7.99674 4.48697,13.66587 0.36184,2.26145 0.43359,3.34577 0.50256,7.59458 0.0705,4.34349 0.0366,5.33217 -0.27417,7.9943 -0.43188,3.69976 -0.6894,5.076 -1.51082,8.07424 -0.67759,2.47329 -1.06875,3.51749 -1.31764,3.51749 -0.29836,0 -0.33537,-0.29132 -0.10451,-0.82287 0.31194,-0.71822 1.36868,-4.89097 1.59345,-6.29206 0.0988,-0.61555 0.20743,-1.27375 0.24151,-1.46268 0.034,-0.18891 0.11513,-0.76451 0.18011,-1.27909 0.065,-0.51457 0.14718,-1.0795 0.18268,-1.25538 0.0355,-0.17587 0.14998,-1.88858 0.25442,-3.80604 0.58269,-10.69767 -1.42659,-20.61967 -5.33045,-26.32218 -0.12799,-0.18698 -0.20425,-0.19193 -0.41117,-0.0267 -0.22345,0.17841 -0.16085,0.38328 0.52017,1.70219 0.4258,0.82465 0.72462,1.54706 0.66402,1.60537 -0.24986,0.24036 -0.62753,-0.13467 -1.21059,-1.20212 -0.33938,-0.62133 -0.68258,-1.12968 -0.76266,-1.12968 -0.22204,0 -0.20902,0.0357 0.76836,2.10677 1.42669,3.02309 2.18069,5.50385 3.01891,9.93251 0.40179,2.12286 0.43454,2.67088 0.50337,8.42613 0.0659,5.50788 0.0374,6.44753 -0.27038,8.92988 -0.43779,3.53083 -0.81343,5.2881 -1.92159,8.98946 -2.00813,6.70732 -4.71802,12.48525 -7.92431,16.89584 -0.52738,0.72548 -0.92667,1.31905 -0.88729,1.31905 0.15099,0 1.92848,-2.25059 2.91434,-3.68999 1.91135,-2.79071 4.94199,-9.19002 6.34853,-13.40519 0.51721,-1.54995 0.86422,-2.03946 1.0736,-1.5145 0.14509,0.36372 -1.6383,5.42206 -2.85279,8.09159 -1.73331,3.80991 -2.04424,4.41943 -3.19555,6.26401 -2.02896,3.25074 -3.23782,4.81936 -5.34746,6.9389 -0.37567,0.37746 -0.68305,0.7259 -0.68305,0.77435 0,0.16726 1.58302,-1.20151 2.92386,-2.52814 z m 3.64081,-0.93104 c 0.16544,-0.17587 0.32924,-0.31977 0.36399,-0.31977 0.0347,0 -0.0169,0.1439 -0.1147,0.31977 -0.0978,0.17588 -0.26164,0.31977 -0.36399,0.31977 -0.10237,0 -0.0507,-0.14389 0.1147,-0.31977 z m 0.91406,-1.18028 c 0,-0.1319 0.0717,-0.28249 0.15947,-0.33464 0.17813,-0.10591 2.37013,-3.28391 3.03545,-4.40085 1.52524,-2.56057 3.53456,-6.6842 4.24839,-8.7188 2.11017,-6.01449 2.97169,-10.86866 3.29083,-18.54177 0.11025,-2.65086 0.13319,-2.798 0.43618,-2.798 0.12847,0 0.15168,0.76293 0.0791,2.59814 -0.0566,1.42899 -0.1337,2.74205 -0.17144,2.91793 -0.0378,0.17587 -0.12328,1.03925 -0.19008,1.91862 -0.0668,0.87937 -0.15128,1.74276 -0.18775,1.91864 -0.0365,0.17587 -0.1098,0.67951 -0.16292,1.1192 -0.12877,1.06564 -1.14332,5.53646 -1.54658,6.81534 -2.21647,7.0291 -4.24129,11.37957 -7.25304,15.58367 -1.4447,2.01666 -1.73757,2.34071 -1.73757,1.92252 z m 4.34797,-5.29511 c 0.0309,-0.088 0.66708,-1.34703 1.41375,-2.79799 0.74667,-1.45097 1.55755,-3.14177 1.80195,-3.75732 0.80164,-2.01899 2.38983,-6.97171 2.66023,-8.29583 0.14572,-0.71353 0.30853,-1.40525 0.3618,-1.53716 0.0532,-0.13191 0.11096,-0.34776 0.12815,-0.47966 0.0172,-0.1319 0.11535,-0.59957 0.21811,-1.03926 0.10276,-0.43968 0.23136,-1.19515 0.28579,-1.67881 0.0544,-0.48365 0.24502,-2.1024 0.42358,-3.59722 0.17856,-1.49481 0.32465,-2.81212 0.32465,-2.92736 0,-0.11522 0.0748,-0.16502 0.16619,-0.11068 0.18617,0.11068 0.22723,0.92725 0.0549,1.09298 -0.0612,0.0588 -0.13195,0.67107 -0.15729,1.36047 -0.0627,1.70851 -0.51226,4.92626 -0.9188,6.57748 -0.18439,0.74891 -0.37045,1.54153 -0.41347,1.76137 -0.65274,3.33567 -2.74187,9.02589 -4.54934,12.39117 -0.9982,1.85852 -1.95057,3.46559 -1.80026,3.03782 z m 0.31245,-14.34976 c 0.0188,-0.54024 0.62546,-2.58778 0.78148,-2.63781 0.34704,-0.11128 0.34955,0.23064 0.0112,1.52663 -0.22109,0.84692 -0.42321,1.31104 -0.57097,1.31104 -0.12581,0 -0.22559,-0.09 -0.22176,-0.19986 z m -0.40755,-36.03458 c -0.0571,-0.14306 -0.0198,-0.35739 0.0828,-0.4763 0.25243,-0.29262 0.81639,-9e-4 0.81639,0.42224 0,0.39497 -0.7453,0.43978 -0.89915,0.054 z m -40.483213,60.15696 c 0,-0.0332 -0.13087,-0.1591 -0.29084,-0.27979 -0.26359,-0.19888 -0.26947,-0.19323 -0.0627,0.0604 0.21712,0.26631 0.35359,0.35102 0.35359,0.21941 z m 2.09668,-1.01885 c -2.55714,-3.82286 -6.00917,-11.12278 -7.56487,-15.99722 -1.21263,-3.79953 -2.47644,-10.67787 -2.91408,-15.86006 -0.0483,-0.57159 -0.1301,-1.54291 -0.18184,-2.15846 -0.0517,-0.61557 -0.1716,-1.64874 -0.26636,-2.29596 -0.12123,-0.82802 -0.11753,-1.84677 0.0125,-3.43755 0.10163,-1.24344 0.22315,-2.72846 0.27004,-3.30005 0.13517,-1.64763 0.54534,-4.35115 1.06731,-7.03499 0.26509,-1.36302 0.56492,-2.92722 0.6663,-3.47597 0.10137,-0.54876 0.21771,-1.17051 0.25853,-1.38168 0.0596,-0.30847 -0.0113,-0.40458 -0.36087,-0.48898 -0.2393,-0.0577 -0.45113,-0.0835 -0.47073,-0.0573 -0.28204,0.37774 -1.31018,3.78325 -1.65562,5.48388 -1.41365,6.95948 -1.6219,14.42936 -0.60844,21.82444 1.30961,9.55604 2.66327,14.20245 6.07872,20.86513 1.35769,2.64851 4.01762,6.79623 4.66356,7.27206 0.30633,0.22564 0.30919,0.22179 0.0594,-0.0799 -0.85936,-1.0379 -4.48147,-7.53463 -4.47128,-8.01984 10e-4,-0.0724 0.44086,0.65985 0.97631,1.62714 1.9613,3.54315 4.68244,7.59459 5.10087,7.59459 0.0344,0 -0.26233,-0.48566 -0.65938,-1.07923 z m 33.635053,-0.30089 c 2.69044,-2.13253 6.26265,-6.02935 9.03925,-9.86068 0.61225,-0.84481 1.6708,-2.59421 2.35234,-3.88757 1.31087,-2.48764 1.55339,-2.74881 0.75334,-0.81121 -0.6981,1.69063 -1.53702,3.13161 -3.04325,5.22722 -0.72685,1.01127 -1.17168,1.69479 -0.9885,1.51891 0.75139,-0.7214 2.83638,-3.81459 3.72451,-5.52549 0.88679,-1.70829 2.16692,-5.27415 3.35442,-9.3439 0.53926,-1.84814 1.32298,-5.93436 1.68657,-8.79373 0.342,-2.68954 0.38989,-8.94886 0.0869,-11.35191 -0.83857,-6.64992 -2.60686,-11.85539 -5.39099,-15.86996 -2.59134,-3.73655 -6.3862,-6.561451 -9.03583,-6.726281 -1.87558,-0.11669 -2.52057,0.27771 -1.00144,0.61234 4.37716,0.964161 8.77326,5.346521 11.14653,11.111651 1.36101,3.30618 2.11714,6.61047 2.51976,11.01138 0.77929,8.51797 -0.43148,17.07334 -3.58703,25.34614 -2.98833,7.83443 -6.44683,12.76753 -12.61371,17.99189 -1.16734,0.98892 -0.61846,0.63181 0.99717,-0.6488 z m 8.25989,-9.53802 c 0.0731,-0.11316 0.57214,-0.9046 1.109,-1.75875 1.06299,-1.69124 1.45917,-2.11194 0.59669,-0.63362 -0.64253,1.10132 -1.65845,2.59815 -1.7634,2.59815 -0.0414,0 -0.0154,-0.0926 0.0576,-0.20578 z m 2.21032,-3.55948 c 0,-0.19824 0.52938,-1.055 0.60619,-0.9811 0.0891,0.0858 -0.39585,1.06898 -0.52736,1.06898 -0.0434,0 -0.0788,-0.0395 -0.0788,-0.0879 z m -19.04859,12.55898 c 0.94926,-1.22011 1.53453,-2.10835 2.37042,-3.59743 0.3949,-0.7035 0.71925,-1.22273 0.72078,-1.15386 0.004,0.20181 -0.82316,1.71331 -1.51674,2.77001 -0.35255,0.53712 -0.64101,1.02528 -0.64101,1.08479 0,0.20321 0.95029,-0.94043 1.77928,-2.14134 1.97076,-2.85489 3.11735,-4.97285 4.50947,-8.32982 1.76086,-4.24615 2.53039,-6.66136 3.33176,-10.45678 0.97906,-4.63711 1.21852,-7.1035 1.30336,-13.42554 0.0834,-6.21033 -0.01,-7.72456 -0.70713,-11.51667 -0.36167,-1.96621 -0.69304,-3.35518 -1.25877,-5.27624 -0.66386,-2.2543 -0.71436,-2.34265 -1.27814,-2.23617 -0.42682,0.0806 -0.43027,0.0766 -0.0658,-0.0771 0.50211,-0.21176 0.28963,-0.53594 -0.27809,-0.42426 -0.41369,0.0814 -0.41026,0.0734 0.0597,-0.13793 l 0.49858,-0.22425 -0.5398,0.0309 c -0.2969,0.017 -0.53995,0.0812 -0.54013,0.14263 -1.6e-4,0.0614 0.29677,1.21261 0.65988,2.55818 1.08205,4.00965 1.46686,6.40709 2.18908,13.63853 0.20769,2.0794 0.15323,2.94123 -0.62132,9.83299 -0.72757,6.47377 -1.66056,10.67649 -3.42517,15.42899 -1.90512,5.13095 -4.71223,10.57872 -7.16751,13.91008 -0.93782,1.27245 -0.42561,0.94078 0.6173,-0.39972 z m 14.27529,-2.13668 c 1.60107,-1.55371 4.1192,-4.28409 4.95988,-5.37796 5.14459,-6.69396 8.78285,-14.70574 10.01964,-22.06427 0.59848,-3.56076 0.74684,-7.51903 0.40746,-10.87223 -0.27324,-2.69991 -0.27565,-2.63813 0.10302,-2.63813 0.25097,0 0.36209,0.15252 0.46592,0.63955 0.24526,1.15037 0.33692,8.53957 0.13108,10.56759 -0.39241,3.86619 -1.5929,8.60764 -3.19421,12.61588 -0.97463,2.43957 -1.08748,2.7815 -0.84421,2.55818 0.0958,-0.088 0.59137,-1.11705 1.10128,-2.28691 1.33876,-3.07145 2.39354,-6.43171 3.19039,-10.16379 0.17202,-0.80568 0.39812,-2.6741 0.46683,-3.85768 0.0578,-0.9963 0.13203,-1.29052 0.33561,-1.33078 0.31967,-0.0633 0.3361,0.43724 0.0872,2.65614 -0.73263,6.5313 -3.79518,14.77642 -7.40627,19.93947 -0.61504,0.87938 -0.98326,1.49206 -0.81825,1.36153 0.97388,-0.77042 4.21326,-6.20905 5.55656,-9.32892 1.06383,-2.47082 2.26924,-6.24436 2.66441,-8.34097 0.1989,-1.05525 0.43315,-2.18113 0.52056,-2.50198 0.0875,-0.32083 0.20174,-1.57993 0.25404,-2.798 0.10466,-2.4377 0.14335,-2.67011 0.42922,-2.57845 0.3678,0.11794 0.10565,4.26219 -0.44274,6.99905 -0.044,0.21985 -0.15841,0.79543 -0.25412,1.2791 -0.66536,3.36233 -2.42793,8.03503 -4.34234,11.51178 -1.88442,3.4223 -5.83431,8.53766 -8.69495,11.26052 -2.1383,2.0353 -4.50154,4.06196 -6.03034,5.17146 -1.34856,0.97869 -1.56444,1.22255 -0.49859,0.56317 1.81786,-1.12459 3.40053,-2.39003 5.75518,-4.60162 3.5881,-3.37011 5.00597,-5.04485 8.32683,-9.83535 3.27644,-4.72643 5.90682,-11.51971 6.74229,-17.41281 0.0573,-0.40385 0.14069,-0.91412 0.18544,-1.13396 0.0447,-0.21985 0.11218,-1.87039 0.14989,-3.66788 0.0377,-1.79749 0.13751,-3.33453 0.22181,-3.41563 0.40147,-0.38624 0.51464,0.14773 0.51464,2.42847 0,4.85654 -0.68837,9.12845 -2.19288,13.60864 -2.37875,7.08361 -6.3463,13.61346 -11.41254,18.78295 -0.93751,0.95661 -0.57298,0.73625 0.78138,-0.47233 1.52626,-1.36199 5.48885,-6.28258 6.8271,-8.47762 3.24703,-5.3259 5.90427,-12.4647 6.75479,-18.14706 0.36893,-2.46485 0.4524,-8.298 0.15152,-10.59006 -0.68357,-5.20757 -2.52951,-10.79583 -4.91641,-14.88357 -3.05258,-5.22776 -6.19949,-8.687011 -9.24695,-10.164731 -0.38848,-0.188362 -0.70632,-0.285896 -0.70632,-0.216717 0,0.0692 0.86517,0.952007 1.9226,1.961857 5.37893,5.136891 8.88052,11.089931 10.77846,18.324391 0.32008,1.22009 0.63329,2.71134 0.69601,3.31388 0.10379,0.99722 0.0874,1.09048 -0.18217,1.03926 -0.2338,-0.0444 -0.41103,-0.5277 -0.84149,-2.29468 -1.65931,-6.81114 -3.90076,-11.49592 -7.80672,-16.31652 -2.44164,-3.013391 -6.04561,-5.622321 -8.38915,-6.072963 -0.69717,-0.134055 -0.73885,-0.179904 0.91407,1.005102 3.37684,2.4209 5.49731,4.637251 7.79757,8.150211 0.8868,1.35429 1.07484,1.96221 0.60699,1.96221 -0.0907,0 -0.93171,-1.09722 -1.86896,-2.43826 -2.64363,-3.78256 -5.58195,-6.398691 -8.64825,-7.699961 -1.01969,-0.43274 -1.96171,-0.65793 -1.95321,-0.46693 0.003,0.0729 0.60578,0.47985 1.33899,0.90426 5.32768,3.083811 9.73794,9.048381 11.84266,16.016381 0.64961,2.15071 1.30726,5.15579 1.62703,7.43471 0.22717,1.61898 0.28112,9.09813 0.0778,10.7923 -0.24872,2.07287 -0.31008,2.4707 -0.70283,4.55675 -0.90457,4.80441 -2.93209,10.30958 -5.3496,14.52532 -1.07981,1.88302 -3.394,5.10846 -4.98305,6.94524 -1.36812,1.58138 -4.42801,4.59769 -6.26677,6.17753 l -1.16335,0.99953 1.41265,-1.01329 c 0.77696,-0.55733 2.14397,-1.72299 3.03781,-2.5904 z m 19.2675,-38.98399 c -0.26455,-0.25451 -0.25521,-0.52754 0.0257,-0.75185 0.17251,-0.13773 0.27589,-0.12505 0.42921,0.0527 0.39966,0.46328 -0.0237,1.11399 -0.45494,0.69916 z m -7.07086,-13.66692 c -0.061,-0.0586 -0.11079,-0.2435 -0.11079,-0.41084 0,-0.45629 0.73159,-0.31226 0.80097,0.15768 0.0391,0.26494 -0.0302,0.35975 -0.26314,0.35975 -0.17393,0 -0.36611,-0.048 -0.42704,-0.10659 z m -63.430733,55.80998 c 0,-0.0532 -0.95627,-1.04253 -2.12505,-2.19842 -3.16068,-3.12584 -4.82363,-5.17293 -7.48229,-9.21068 -3.308069,-5.02402 -6.266863,-12.35646 -7.25747,-17.98535 -0.645847,-3.66986 -0.737868,-4.9039 -0.680158,-9.12119 0.04603,-3.36532 0.124612,-4.52245 0.412487,-6.07568 0.936455,-5.05256 2.753055,-10.38744 4.697425,-13.79509 1.040795,-1.82407 2.518106,-3.64694 4.436776,-5.47461 2.02959,-1.933331 3.46312,-2.967751 5.19764,-3.750571 1.44184,-0.65072 1.03937,-0.766718 -0.79657,-0.22957 -3.41776,0.99995 -6.28089,3.519381 -10.432194,9.179881 -0.190117,0.25923 -0.275552,0.2814 -0.451286,0.11706 -0.292426,-0.27344 0.06598,-0.90482 1.742132,-3.06901 2.145301,-2.76993 4.681368,-5.092451 6.825738,-6.251001 1.08018,-0.583591 1.00202,-0.765443 -0.20485,-0.476611 -0.93031,0.222651 -2.52086,1.038771 -3.9898,2.047191 -1.290348,0.88583 -3.342747,3.100721 -4.738715,5.113891 -0.641493,0.92511 -1.134217,1.47878 -1.316176,1.47895 -0.442393,4.5e-4 -0.352063,-0.40266 0.315195,-1.40641 1.264543,-1.90226 2.497194,-3.37121 4.353973,-5.188621 1.055649,-1.03326 1.821623,-1.87866 1.702173,-1.87866 -0.511427,0 -2.302944,1.10458 -3.421565,2.10958 -0.665251,0.5977 -1.770313,1.790531 -2.45569,2.650731 -4.713494,5.91582 -7.592087,13.57593 -8.275132,22.0206 -0.624892,7.72568 1.664735,16.95203 6.249223,25.18204 1.620093,2.90835 4.688582,7.0704 6.719005,9.1135 1.162999,1.17027 1.030529,0.95815 -1.014243,-1.62406 -4.574967,-5.77739 -8.222741,-13.26147 -9.76784,-20.04049 -0.790028,-3.46621 -0.92929,-4.91306 -0.91567,-9.51322 0.0105,-3.53875 0.07175,-4.58769 0.371779,-6.36522 0.457472,-2.71031 1.311286,-5.97475 2.203341,-8.42423 0.734997,-2.01823 2.316343,-5.39914 2.60582,-5.57127 0.09359,-0.0557 0.266648,0.0107 0.384579,0.14738 0.176507,0.20462 0.16814,0.32445 -0.04733,0.67777 -0.831951,1.36417 -2.647373,6.14139 -3.444103,9.06304 -1.480474,5.42894 -1.856412,12.73961 -0.912632,17.74734 1.181154,6.26723 3.730561,12.21215 7.645039,17.82729 1.07281,1.5389 2.290574,3.22969 2.706137,3.75732 1.456492,1.84924 4.486862,5.13198 6.277912,6.80072 3.12161,2.90845 3.10596,2.57839 -0.0236,-0.49863 -1.64716,-1.61946 -3.32987,-3.33489 -3.73937,-3.81208 -0.4095,-0.47716 -0.90488,-1.03041 -1.10085,-1.22942 -0.19597,-0.19901 -0.30815,-0.4137 -0.2493,-0.4771 0.0589,-0.0634 0.0135,-0.0635 -0.10072,0 -0.114258,0.0632 -0.21709,0.0388 -0.228514,-0.0543 -0.01145,-0.0931 -0.03354,-0.25926 -0.0491,-0.36917 -0.01559,-0.10993 -0.127589,-0.17894 -0.248907,-0.15335 -0.126552,0.0267 -0.183932,-0.0454 -0.134607,-0.16902 0.04728,-0.11855 -0.205297,-0.6324 -0.561289,-1.14188 -0.355993,-0.50948 -0.64726,-0.94804 -0.64726,-0.97456 0,-0.0265 -0.529173,-0.93662 -1.175939,-2.02242 -1.647987,-2.76668 -3.845594,-7.14276 -4.443987,-8.84928 -2.130381,-6.07557 -3.087149,-11.2658 -2.866273,-15.54892 0.0057,-0.10991 0.14833,-0.19985 0.317027,-0.19985 0.277205,0 0.305189,0.14233 0.290839,1.47894 -0.01474,1.37319 0.115292,3.35868 0.332484,5.07638 0.152495,1.20603 1.195942,5.41035 1.810551,7.29519 0.628901,1.92867 1.739291,4.59675 1.86337,4.47738 0.0423,-0.0407 -0.258881,-1.06937 -0.669327,-2.2859 -0.410452,-1.21652 -0.903016,-2.75697 -1.094594,-3.42322 -1.128268,-3.92413 -1.943311,-10.7004 -1.286997,-10.7004 0.183847,0 0.26507,0.34508 0.348106,1.47894 0.219109,2.99186 0.324414,3.65978 1.027208,6.51536 1.159526,4.71133 3.555485,10.43629 6.256477,14.94934 2.455362,4.10263 6.819742,9.50151 9.827112,12.15644 1.39385,1.23052 1.42991,1.2582 1.42991,1.09722 z M 66.395119,154.71216 c -0.224344,-0.28579 -1.215738,-1.70677 -2.203096,-3.15774 -4.659662,-6.84756 -7.343105,-14.11178 -7.83875,-21.21989 -0.07266,-1.04198 -0.04843,-1.48392 0.08133,-1.48392 0.237242,0 0.320156,0.40508 0.425442,2.07852 0.41496,6.59536 4.049731,15.66978 9.270163,23.1435 0.835019,1.19543 0.984433,1.55615 0.264915,0.63953 z m -4.519358,-47.0667 c -0.129976,-0.32586 0.178288,-0.69922 0.577306,-0.69922 0.397379,0 0.479991,0.16097 0.307686,0.59957 -0.164193,0.41797 -0.732501,0.48196 -0.884992,0.0996 z m 17.372986,56.17755 c -0.16414,-0.15672 -0.18323,-0.13836 -0.093,0.0895 0.0624,0.15769 0.15534,0.24641 0.20651,0.19721 0.0512,-0.0493 1e-4,-0.17824 -0.11348,-0.28671 z m 20.20339,-0.39704 c -0.0418,-0.1539 -0.076,-0.028 -0.076,0.27979 0,0.30779 0.0342,0.43369 0.076,0.2798 0.0418,-0.15388 0.0418,-0.40571 0,-0.55959 z m 7.261393,0.35144 c 0.0567,-0.1423 0.0289,-0.20647 -0.0654,-0.15046 -0.0904,0.0538 -0.16429,0.16539 -0.16429,0.24813 0,0.22998 0.11912,0.17932 0.22961,-0.0977 z M 96.339337,160.4254 c -0.77663,-3.19445 -1.35418,-6.15163 -1.5764,-8.07154 -0.056,-0.48366 -0.16746,-1.34704 -0.24773,-1.91863 -0.0803,-0.5716 -0.30597,-2.51167 -0.50155,-4.31129 -0.38297,-3.52378 -1.07453,-6.69602 -1.39258,-6.38775 -0.16096,0.15601 -0.42981,2.6831 -0.42931,4.03537 9.9e-4,2.85146 0.81029,9.11563 1.49081,11.54019 0.93807,3.34219 2.10412,6.74706 2.25946,6.59762 0.0281,-0.0271 -0.0517,-0.37139 -0.17743,-0.76522 -0.89669,-2.80956 -1.60247,-5.77796 -1.06959,-4.49852 0.0858,0.20601 0.19192,0.56576 0.2358,0.79943 0.2422,1.28945 2.02957,6.52244 2.17876,6.3789 0.025,-0.024 -0.32164,-1.55338 -0.77024,-3.39856 z m -17.60983,2.77406 c 0,-0.10259 -0.0469,-0.14145 -0.10414,-0.0863 -0.0573,0.0551 -0.26294,-0.10769 -0.45703,-0.36178 -0.19409,-0.2541 -0.86232,-1.09661 -1.48495,-1.87227 -4.50277,-5.60942 -8.6314,-13.96857 -10.567634,-21.39602 -0.374926,-1.43823 -0.94355,-4.39494 -1.260695,-6.55533 -0.26947,-1.8356 -0.323802,-8.9805 -0.08335,-10.96146 0.841077,-6.92936 2.782508,-12.67453 5.696949,-16.8587 0.9327,-1.33905 3.32378,-3.56348 4.58902,-4.26921 1.24197,-0.69274 3.09385,-1.346541 4.21197,-1.487031 1.45741,-0.18313 0.78889,-0.60334 -0.94423,-0.59351 -2.1016,0.0119 -4.46391,1.11918 -6.69444,3.137861 -3.18917,2.88626 -5.775203,7.74354 -7.357872,13.8201 -1.108742,4.25694 -1.380878,6.53705 -1.38639,11.61594 -0.0059,5.47357 0.479859,8.74691 2.301711,15.50895 1.011152,3.75299 2.25699,6.46914 4.942601,10.77574 1.26967,2.03601 3.4808,5.01773 4.06258,5.47839 0.14873,0.11775 -0.22413,-0.43016 -0.82859,-1.2176 -1.36085,-1.77279 -3.76641,-5.63735 -5.03048,-8.0815 -1.045028,-2.02061 -2.139104,-4.6231 -1.999851,-4.75707 0.04876,-0.0469 0.138428,0.051 0.199276,0.21741 0.450344,1.23215 1.435365,3.35376 2.404605,5.17921 1.26646,2.38521 3.81346,6.31549 4.09274,6.31549 0.0981,0 0.77562,0.86339 1.50572,1.91863 0.73009,1.05526 1.7969,2.42228 2.37068,3.03784 0.57379,0.61557 1.16025,1.24511 1.30327,1.399 0.29998,0.32281 0.51854,0.36212 0.51854,0.0933 z m -6.11378,-7.0399 c -2.5766,-4.0624 -6.364212,-11.48023 -5.86191,-11.48023 0.06337,0 0.2504,0.41371 0.415625,0.91935 0.488495,1.49498 3.796515,7.67078 5.531975,10.32776 0.22082,0.33806 0.36723,0.64763 0.32535,0.68792 -0.0419,0.0403 -0.22684,-0.16438 -0.41104,-0.4548 z m 31.937283,6.97831 c 0.0567,-0.1423 0.0289,-0.20649 -0.0654,-0.15045 -0.0904,0.0538 -0.16429,0.16538 -0.16429,0.24812 0,0.22998 0.11913,0.17931 0.22961,-0.0977 z m 3.33499,-1.58751 c 0.72873,-1.53271 2.37488,-6.47233 2.74629,-8.24083 0.69162,-3.29322 1.02921,-6.11431 1.10926,-9.26974 0.0435,-1.71477 0.011,-3.44154 -0.0721,-3.83726 l -0.15115,-0.71949 -0.33599,0.72401 c -0.58755,1.26608 -0.9454,3.24795 -1.4571,8.06972 -0.39594,3.73097 -1.47861,9.17173 -2.56095,12.8696 -0.27006,0.92268 -0.46907,1.69871 -0.44223,1.72451 0.16851,0.16213 2.08657,-5.79595 2.08657,-6.48153 0,-0.19696 0.0681,-0.35811 0.15145,-0.35811 0.3146,0 -1.2195,5.45574 -1.87924,6.68311 -0.14659,0.27273 -0.26627,0.55341 -0.26593,0.62373 9e-4,0.20297 0.59977,-0.79646 1.07107,-1.78772 z m -11.521633,1.24805 c -0.19592,-0.32411 -0.24323,-0.22038 -0.0829,0.18167 0.057,0.1429 0.13864,0.22613 0.18143,0.18496 0.0428,-0.0411 -10e-4,-0.20614 -0.0986,-0.36663 z m 2.30643,-1.8107 c 0,-0.088 -0.0792,-0.1599 -0.176,-0.1599 -0.0968,0 -0.12978,0.0719 -0.0733,0.1599 0.0565,0.088 0.13569,0.15988 0.176,0.15988 0.0403,0 0.0733,-0.0719 0.0733,-0.15988 z m 4.067473,-4.79659 c 0.0588,-0.92334 0.16329,-7.18288 0.23222,-13.91008 l 0.12534,-12.23127 0.4511,-1.97409 c 1.44261,-6.3131 3.43121,-9.07932 7.25269,-10.08872 3.10175,-0.81929 5.97183,-0.0288 8.39614,2.3124 1.90062,1.83549 2.9084,4.17516 2.9084,6.75217 0,2.04527 -0.98444,4.05233 -2.47135,5.03862 -0.63213,0.4193 -0.9622,0.52045 -1.8497,0.56678 -0.99157,0.0518 -1.14695,0.0136 -1.8927,-0.46571 -1.49479,-0.96064 -1.83261,-2.64127 -0.63933,-3.18071 0.88841,-0.40162 0.66921,-1.43897 -0.30409,-1.43897 -0.63318,0 -1.24782,0.53017 -1.57754,1.36077 -0.70915,1.7864 0.49707,3.9195 2.65579,4.69654 1.81543,0.65345 3.39384,0.3088 4.95536,-1.08202 3.62211,-3.22614 3.18476,-9.22144 -0.96663,-13.25108 -2.1303,-2.06783 -4.18959,-2.84554 -7.46597,-2.81962 -1.48632,0.0117 -2.01457,0.0834 -2.8253,0.38363 -1.86811,0.69164 -3.52865,1.98994 -4.45945,3.48665 -0.65192,1.04828 -1.31183,3.00045 -1.42898,4.22726 -0.006,0.066 -0.16245,0.11992 -0.347,0.11992 -0.40858,0 -0.44248,0.17622 0.78144,-4.06033 1.4167,-4.90379 2.40328,-7.26095 4.50631,-10.76653 1.31647,-2.19446 2.32598,-3.52385 3.35533,-4.4185 0.38307,-0.33295 0.64587,-0.65373 0.584,-0.71285 -0.19083,-0.18231 -3.4991,-0.11853 -3.92218,0.0756 -0.21946,0.1007 -0.83261,0.37748 -1.36254,0.61505 -2.90258,1.30125 -4.7858,4.55907 -4.76051,8.2354 l 0.007,1.03926 0.63163,-1.6788 c 1.21806,-3.23746 2.31568,-4.94027 3.90317,-6.05527 0.86305,-0.60619 1.91431,-1.1396 2.24592,-1.1396 0.40439,0 0.137,0.41754 -0.44469,0.69441 -1.6394,0.78033 -3.10316,2.2975 -4.03573,4.18299 -0.85102,1.72063 -1.41006,3.61867 -2.02469,6.87422 l -0.51315,2.71806 -0.0974,17.1078 c -0.10216,17.9477 -0.072,21.9893 0.15711,21.02502 0.0731,-0.30779 0.18102,-1.31507 0.23981,-2.23842 z m 1.25074,-40.07417 c 0,-0.15279 0.65361,-2.30224 0.86822,-2.85521 0.77077,-1.98602 2.24191,-4.32652 3.44999,-5.48875 0.88292,-0.8494 1.17879,-0.58115 0.36053,0.32686 -1.58422,1.758 -3.12431,4.59491 -3.91502,7.21165 -0.17328,0.57341 -0.36459,0.90813 -0.51907,0.90813 -0.13456,0 -0.24465,-0.0462 -0.24465,-0.10268 z m -2.49083,3.7138 c -0.30561,-3.31499 -1.16739,-6.66289 -2.246553,-8.72756 -1.00517,-1.92308 -2.76357,-3.82359 -4.19792,-4.53718 -0.52572,-0.26154 -0.7426,-0.7439 -0.33002,-0.73398 0.32277,0.008 1.39969,0.68817 2.38676,1.508 1.56174,1.29713 3.079423,3.83994 3.892253,6.52128 0.2066,0.68151 0.43952,1.23911 0.51761,1.23911 0.2021,0 0.17589,-2.06395 -0.0391,-3.06993 -0.98429,-4.60815 -4.356633,-7.47573 -8.793513,-7.47732 -1.46324,-4.5e-4 -1.48216,0.12132 -0.21368,1.37596 1.18926,1.17627 2.78246,3.69448 4.84146,7.65238 1.31718,2.53192 2.841783,6.82381 3.322603,9.35333 0.37482,1.97187 0.37345,1.91863 0.0494,1.91863 -0.24333,0 -0.3425,-0.22009 -0.51321,-1.13904 -0.430523,-2.31762 -2.159633,-4.86777 -4.106193,-6.05596 -2.87715,-1.75623 -7.56993,-1.57377 -10.46572,0.40691 -3.1843,2.17802 -4.87714,5.15814 -4.90042,8.62678 -0.0174,2.59494 0.71972,4.44118 2.35456,5.8973 1.225,1.09109 2.23761,1.44893 3.79642,1.34164 1.68372,-0.1159 2.96479,-0.90162 3.72143,-2.28248 0.48763,-0.8899 0.50066,-2.44281 0.0257,-3.05565 -0.50238,-0.64815 -1.14422,-1.0614 -1.6485,-1.0614 -0.54491,0 -0.68411,0.13411 -0.82983,0.79942 -0.10519,0.48025 -0.0813,0.51963 0.31487,0.51963 1.04259,0 1.47114,1.44854 0.73452,2.48277 -0.64059,0.89938 -1.38483,1.26458 -2.70071,1.32524 -1.09006,0.0503 -1.23662,0.0169 -1.95742,-0.44639 -1.60485,-1.03132 -2.52115,-2.99717 -2.5357,-5.44014 -0.01,-1.65033 0.19806,-2.44914 1.12097,-4.3074 0.65263,-1.31404 2.44964,-3.07891 3.87292,-3.80366 2.8206,-1.43627 6.16421,-1.30992 8.68879,0.32835 2.22594,1.44447 3.57562,4.07294 4.954683,9.64911 0.23147,0.93594 0.28726,2.91438 0.3915,13.88237 0.116,12.20509 0.18423,14.52508 0.45379,15.42899 0.19976,0.66988 0.23646,-35.96831 0.0382,-38.11911 z m -1.911443,-3.81098 c -0.0389,-0.10992 -0.23008,-0.66752 -0.42479,-1.23912 -0.60536,-1.77714 -1.97235,-4.18138 -3.40445,-5.9877 -0.29286,-0.36938 -0.36751,-0.57435 -0.23739,-0.65172 0.32796,-0.19501 2.07693,2.04291 3.06461,3.92136 0.67713,1.28781 1.615593,3.81525 1.489513,4.0115 -0.134443,0.20928 -0.404793,0.17916 -0.487493,-0.0543 z m 41.265253,31.29344 c -0.0512,-0.0493 -0.1441,0.0395 -0.20651,0.19721 -0.0902,0.22787 -0.0711,0.24622 0.093,0.0895 0.11358,-0.10847 0.16464,-0.23748 0.11348,-0.28672 z M 84.311387,130.72172 c -2.99269,-4.50076 0.43391,-10.67307 6.31655,-11.37801 2.005,-0.24027 4.39094,0.77049 5.96853,2.52844 0.44355,0.49427 0.83784,0.86849 0.8762,0.83159 0.13715,-0.13195 -0.87608,-1.73014 -1.47041,-2.31931 -1.56554,-1.55195 -3.19274,-2.17162 -5.37469,-2.04678 -2.2221,0.12713 -3.82512,0.85534 -5.53901,2.51622 -1.03515,1.00314 -1.58618,1.90299 -2.14883,3.50905 -0.35807,1.02213 -0.40847,1.41334 -0.36047,2.79801 0.0619,1.78423 0.36141,2.57402 1.43317,3.7786 0.79775,0.89663 0.96093,0.77773 0.29896,-0.21781 z m 35.627893,0.11559 c 0.99388,-1.0373 1.366,-1.94817 1.46186,-3.57826 0.21986,-3.7391 -2.07424,-7.20333 -5.63132,-8.50362 -2.04228,-0.74655 -3.82937,-0.69227 -5.60425,0.17023 -1.1425,0.55518 -2.57993,1.90345 -3.11805,2.92463 -0.54188,1.0283 -0.4993,1.09841 0.16286,0.26814 1.07406,-1.34677 2.7822,-2.38833 4.36754,-2.66316 3.50956,-0.60839 7.2547,1.45215 8.5896,4.72594 0.94433,2.31589 0.51913,5.53566 -0.92806,7.02773 -0.19192,0.19786 -0.27063,0.35975 -0.17493,0.35975 0.0957,0 0.48933,-0.32911 0.87475,-0.73138 z M 80.748487,120.01978 c 0.72136,-1.18394 2.40838,-2.83157 3.83067,-3.74122 1.18253,-0.7563 3.48666,-1.65611 4.25142,-1.66025 0.24874,-9e-4 0.56443,-0.0722 0.70154,-0.15744 0.33019,-0.20528 0.12178,-0.2044 -1.41265,0.006 -1.73869,0.23833 -3.12494,0.73739 -4.23817,1.5258 -1.14335,0.80974 -1.32505,0.70932 -0.31112,-0.17193 0.97045,-0.84347 2.51189,-1.49363 3.67678,-1.55083 1.11185,-0.0546 1.28207,-0.27368 0.24929,-0.32087 -1.83227,-0.0837 -2.79304,0.23133 -4.01785,1.31748 -0.49295,0.43713 -0.76023,0.58745 -0.76023,0.42755 0,-0.28232 1.3347,-1.46201 2.07743,-1.83617 0.27421,-0.13814 0.90991,-0.37886 1.41265,-0.53493 l 0.91406,-0.28377 -0.91406,-0.007 c -1.12698,-0.009 -2.31798,0.49553 -3.19924,1.35438 -0.83299,0.81181 -0.798,0.47035 0.0464,-0.45248 0.80142,-0.87591 1.52161,-1.32588 2.362,-1.47577 0.69296,-0.12359 0.68712,-0.39756 -0.008,-0.3921 -1.0856,0.008 -2.84914,1.21373 -3.60161,2.46135 -0.56614,0.93869 -1.0116,2.3374 -1.32818,4.17041 -0.15188,0.87937 -0.31906,1.77874 -0.37152,1.99858 -0.12506,0.52402 -0.0289,0.42246 0.64079,-0.67666 z m 42.764573,-1.01164 c -0.27455,-1.77119 -1.06438,-4.17777 -1.74209,-5.30807 -0.57346,-0.95642 -1.73144,-1.84519 -2.76831,-2.12475 -1.04771,-0.28248 -1.24344,-0.0907 -0.31263,0.30625 1.02575,0.43748 1.78568,0.98892 2.27635,1.65185 0.3724,0.50314 0.36007,0.49943 -0.69474,-0.20866 -1.2684,-0.85146 -1.8427,-1.10668 -2.45279,-1.09 -0.39066,0.0107 -0.36256,0.0397 0.21555,0.22307 l 0.66478,0.21077 -1.0289,0.0168 c -1.26474,0.0207 -1.52388,0.26635 -0.33389,0.31662 1.1611,0.0491 2.43622,0.63579 3.35219,1.54248 0.92723,0.91785 0.99609,1.28427 0.094,0.50022 -0.7437,-0.64639 -1.97549,-1.2868 -2.80856,-1.46017 -0.30743,-0.064 -1.0553,-0.0619 -1.66193,0.004 l -1.10298,0.12108 1.37014,0.19585 c 1.64921,0.23573 2.89733,0.80529 3.88383,1.7723 0.81321,0.79715 0.72832,0.94411 -0.12769,0.22106 -1.31664,-1.11215 -3.7071,-1.86215 -5.318,-1.66853 -1.29465,0.15563 -1.22447,0.33123 0.17302,0.43291 2.8842,0.20985 5.87275,2.16078 8.0754,5.27159 0.22646,0.31984 0.42526,0.56793 0.44177,0.55131 0.0165,-0.0167 -0.071,-0.68205 -0.19451,-1.47871 z m -12.79119,-6.54841 c 2.2576,-2.17691 3.07459,-2.74898 3.07459,-2.15286 0,0.0792 -0.38563,0.48869 -0.85697,0.90992 -0.97525,0.87157 -2.66615,2.78594 -2.5551,2.89278 0.11884,0.11433 3.2268,-2.50292 4.46967,-3.76396 0.62739,-0.63655 1.20699,-1.11796 1.288,-1.0698 0.23412,0.1392 0.17778,0.28497 -0.30973,0.80124 -1.91739,2.03058 -2.71832,2.94486 -2.57976,2.94486 0.22772,0 1.50404,-0.8899 2.26407,-1.5786 0.35195,-0.31892 1.49942,-1.63871 2.54992,-2.93285 2.85316,-3.51488 5.04639,-5.35504 7.13883,-5.98959 0.48919,-0.14835 0.88943,-0.31715 0.88943,-0.3751 0,-0.20424 -1.29654,-0.47574 -2.2629,-0.47387 -2.87872,0.005 -5.68412,1.52929 -9.30471,5.05371 -2.38323,2.3199 -3.60839,3.8592 -5.1969,6.52941 -0.97119,1.63252 -1.10446,2.07477 -0.31193,1.03506 0.29708,-0.38971 1.06364,-1.21337 1.70349,-1.83035 z m 4.75349,-5.09412 c -0.15154,-0.17566 0.0867,-0.47051 1.17927,-1.45929 2.12121,-1.91975 3.95579,-3.0782 3.95579,-2.49792 0,0.0664 -0.66582,0.60589 -1.4796,1.19894 -0.81378,0.59305 -1.90349,1.5058 -2.42158,2.02835 -0.5181,0.52255 -0.96493,0.95009 -0.99297,0.95009 -0.028,0 -0.13644,-0.0991 -0.24091,-0.22017 z m -20.241693,6.76106 c -0.37545,-0.61787 -2.54882,-2.63143 -3.56951,-3.30701 -0.42129,-0.27887 -1.27902,-0.7569 -1.90605,-1.0623 -0.62703,-0.30541 -1.32702,-0.72298 -1.55554,-0.92793 -1.53392,-1.37572 -3.20174,-2.64025 -5.11047,-3.87471 -1.92015,-1.24185 -2.5901,-1.84574 -2.04762,-1.84574 0.39378,0 4.59907,2.90109 6.56395,4.52826 0.72441,0.5999 1.67617,1.26578 2.11504,1.47972 1.16985,0.57031 3.13108,1.79765 3.78489,2.36858 l 0.56925,0.49711 -0.35452,-0.5596 c -0.88595,-1.3984 -1.90454,-2.54391 -4.11114,-4.62341 -3.16824,-2.98575 -5.13511,-4.2043 -7.76524,-4.81092 -0.75469,-0.17406 -1.8359,-0.31698 -2.40269,-0.3176 -1.1413,-9e-4 -2.70883,0.2733 -2.70883,0.47443 0,0.0711 0.31784,0.25155 0.70632,0.40098 1.80976,0.69618 5.30127,3.45974 7.11357,5.63046 2.26077,2.70788 3.82739,3.94542 6.22382,4.91647 0.63967,0.25921 1.52734,0.67618 1.9726,0.92663 0.44525,0.25043 0.83872,0.42728 0.87436,0.393 0.16273,-0.15656 -1.82962,-1.73067 -3.17967,-2.5122 -1.84219,-1.06641 -3.57317,-2.22043 -3.57317,-2.38219 0,-0.33406 0.28328,-0.26005 1.13903,0.29758 0.51612,0.33632 1.82618,1.0875 2.91126,1.66929 2.14016,1.14751 3.23857,1.87309 3.99967,2.64202 0.61589,0.62225 0.68923,0.62204 0.31069,-9e-4 z m -7.28039,-7.28465 c -1.00715,-0.84689 -2.89561,-2.18648 -3.78091,-2.68202 -0.43418,-0.24302 -0.78942,-0.50697 -0.78942,-0.58655 0,-0.35307 0.69838,-0.0713 2.17071,0.87596 1.94502,1.2513 3.46533,2.56489 3.23059,2.7913 -0.11099,0.10705 -0.38702,-0.0253 -0.83097,-0.39869 z m -6.98015,2.02285 c -0.19631,-0.0812 -0.236,-0.14201 -0.097,-0.14865 0.12949,-0.006 0.20102,-0.0444 0.15894,-0.0848 -0.0421,-0.0405 -0.24783,-0.0305 -0.45723,0.0222 -0.28498,0.0717 -0.32496,0.1298 -0.15894,0.23104 0.12198,0.0743 0.37136,0.13129 0.55418,0.12646 l 0.33239,-0.009 -0.33239,-0.13741 z m 41.880903,-0.63954 c 0.21917,-0.0906 0.24748,-0.14041 0.0831,-0.1462 -0.1371,-0.005 -0.36147,0.061 -0.49858,0.1462 -0.3038,0.18887 -0.0415,0.18887 0.41548,0 z m -22.44332,-4.56873 c -0.450443,-1.30367 -0.804593,-2.6572 -0.859203,-3.28385 -0.0935,-1.072561 0.0162,-1.900471 0.25176,-1.900471 0.0698,0 0.329283,0.80942 0.576533,1.798721 0.24726,0.98929 0.74278,2.5182 1.10117,3.39758 0.72114,1.76944 0.60052,1.74485 1.17606,0.23983 0.47576,-1.24415 1.17106,-3.72313 1.26845,-4.522551 0.14431,-1.18449 0.46396,-1.11999 0.53114,0.10716 0.0513,0.936891 -0.39338,3.374501 -0.96848,5.309201 -0.1772,0.59611 -0.30036,1.1048 -0.2737,1.13046 0.0786,0.0756 1.06174,-1.53473 1.67516,-2.74376 0.67989,-1.34004 0.90489,-2.42844 0.73226,-3.542011 -0.23627,-1.52395 -0.74511,-2.51777 -1.90759,-3.725694 -1.53248,-1.592398 -1.56124,-1.601537 -2.60109,-0.82672 -0.89136,0.664166 -1.06532,0.835706 -1.803963,1.778924 -0.89232,1.13947 -1.21643,3.328861 -0.74928,5.061421 0.21374,0.79272 2.466693,4.37354 2.567923,4.08141 0.027,-0.078 -0.29569,-1.13986 -0.71715,-2.35965 z m 0.17615,-4.852181 c -0.11762,-0.51519 0.0294,-0.92857 0.25093,-0.70582 0.22015,0.22133 0.25902,1.06067 0.0523,1.12766 -0.10594,0.0343 -0.24235,-0.15551 -0.30316,-0.42184 z m 1.15188,0.10356 c -0.17575,-0.44065 9e-4,-2.726017 0.2164,-2.79451 0.15592,-0.04962 0.20773,0.293767 0.20773,1.37674 0,1.31646 -0.19908,1.98196 -0.42413,1.41777 z m 1.2551,-0.74214 c 0,-0.53496 0.0734,-0.97264 0.16304,-0.97264 0.3946,0 0.43637,1.75597 0.0447,1.87967 -0.1509,0.0476 -0.20775,-0.20053 -0.20775,-0.90703 z m -44.456112,5.662621 c 2.247845,-3.76265 4.907833,-7.111111 7.740565,-9.744007 0.998771,-0.928314 1.752314,-1.68784 1.674544,-1.68784 -0.21052,0 -2.443297,1.886653 -3.715963,3.13994 -2.08041,2.048706 -5.043048,6.227107 -6.599421,9.307597 -0.948971,1.87828 -0.579783,1.46177 0.900275,-1.01569 z m 87.317282,1.01857 c -0.67818,-1.30141 -2.40898,-4.07843 -3.36549,-5.399811 -1.66192,-2.29594 -4.85737,-5.495368 -6.67571,-6.684069 -0.80712,-0.527639 -0.91609,-0.370507 -0.13866,0.199959 0.97348,0.714335 3.79836,3.53527 5.11657,5.10946 1.30181,1.55459 2.53352,3.289751 4.33633,6.108761 0.63026,0.98552 1.17109,1.76765 1.20184,1.73807 0.0307,-0.0296 -0.18295,-0.51216 -0.47488,-1.07237 z m -28.52412,-1.66246 c 0.98416,-0.81521 2.33587,-2.08306 3.00378,-2.81745 3.49351,-3.841211 7.11886,-6.15113 9.77438,-6.227824 l 0.5561,-0.01606 -0.66477,-0.15595 c -1.08055,-0.253485 -2.26129,-0.04863 -4.10097,0.711746 -2.33474,0.964916 -2.39824,0.98489 -2.12538,0.668586 0.30031,-0.348114 0.93217,-0.646176 2.89097,-1.363759 1.26639,-0.463927 1.54658,-0.614852 1.1519,-0.620482 -0.69037,-0.0098 -3.23182,0.705602 -4.10406,1.155356 -0.38094,0.19644 -1.18823,0.698665 -1.79398,1.116085 -1.07626,0.741644 -1.47465,0.907311 -1.47465,0.613219 0,-0.287632 2.55652,-1.989546 3.65641,-2.43413 1.74019,-0.703402 3.35742,-0.848986 5.96851,-0.537311 0.85798,0.102416 0.41299,-0.186543 -0.7269,-0.472028 -2.5965,-0.650281 -5.51916,0.01552 -8.5178,1.940395 -2.29056,1.470361 -3.68713,2.797016 -5.27025,5.006406 -0.57992,0.809341 -0.51949,0.767551 0.75887,-0.52477 0.76393,-0.77229 1.44757,-1.40184 1.51919,-1.39901 0.11267,0.004 -0.75239,1.20486 -1.86447,2.587231 -0.18743,0.23299 -0.38934,0.55675 -0.44867,0.71949 -0.096,0.26328 -0.0803,0.26945 0.1433,0.056 0.13817,-0.13191 0.7925,-0.83768 1.45409,-1.568371 0.66159,-0.73071 1.24079,-1.29209 1.2871,-1.24753 0.0463,0.0446 -0.24508,0.53448 -0.64755,1.08871 -1.06112,1.461231 -1.0651,1.468611 -0.68804,1.274481 0.17608,-0.0907 0.87689,-0.69346 1.55734,-1.339531 1.9791,-1.87911 3.27372,-2.89377 3.55822,-2.78874 0.37372,0.13797 0.31334,0.32179 -0.20204,0.61511 -0.64441,0.36675 -3.04832,2.6439 -4.7327,4.483141 -1.26987,1.3866 -3.11997,3.78613 -3.11997,4.04649 0,0.0538 0.31784,-0.16882 0.70632,-0.49475 0.38848,-0.32592 1.51155,-1.25958 2.49572,-2.07478 z m -28.166313,1.4066 c -0.66634,-0.96517 -3.73884,-4.643731 -5.06213,-6.060641 -0.98667,-1.05648 -1.17206,-1.33492 -0.98711,-1.4826 0.18201,-0.14532 0.61745,0.23617 2.16912,1.90036 1.06777,1.145181 1.97611,2.082171 2.01854,2.082171 0.12726,0 -0.42599,-0.98331 -1.05703,-1.878711 -0.61308,-0.86988 -0.63794,-1.33391 -0.0355,-0.66215 0.18861,0.21032 0.76018,0.94352 1.27015,1.629361 0.50997,0.68583 0.9646,1.21099 1.01029,1.16704 0.10999,-0.10582 -1.22654,-2.450101 -1.72511,-3.025841 -0.5684,-0.65638 -0.47974,-0.88662 0.12993,-0.33742 0.45225,0.40738 1.98283,2.300921 2.59053,3.204831 0.25773,0.38335 -0.29642,-0.90347 -0.7992,-1.855851 -0.20891,-0.39573 -0.52864,-1.00729 -0.71053,-1.35904 -0.55429,-1.07194 -2.18087,-3.321238 -3.10588,-4.294932 -1.9497,-2.05232 -4.45731,-3.279056 -6.99347,-3.421266 -1.46809,-0.08237 -2.97015,0.04863 -2.97015,0.258898 0,0.06469 0.48191,0.08814 1.07091,0.05215 2.24298,-0.137402 4.99582,0.857402 7.28034,2.630904 1.05003,0.815154 1.34451,1.176864 0.95813,1.176864 -0.09,0 -0.7066,-0.403553 -1.37017,-0.896792 -2.27405,-1.690339 -3.99649,-2.310117 -6.34898,-2.284531 l -1.50713,0.01633 1.24646,0.206283 c 1.57435,0.260549 3.83002,1.137322 5.18549,2.015574 1.04073,0.674324 3.78898,3.118478 3.78898,3.369728 0,0.33957 -0.48102,0.0374 -1.64865,-1.035866 -3.12441,-2.871749 -6.26998,-4.087858 -9.40325,-3.635398 -0.73125,0.1056 -1.55391,0.285539 -1.82813,0.399863 -0.43506,0.181374 -0.25508,0.197749 1.41265,0.128552 2.26115,-0.09382 3.36837,0.128019 5.4013,1.08218 1.47513,0.69235 3.23457,1.883793 3.23834,2.192897 0.004,0.333563 -0.26643,0.231878 -1.38604,-0.521089 -3.45853,-2.325923 -6.63751,-2.885634 -9.74651,-1.716042 -0.31509,0.118538 -0.008,0.158639 1.27128,0.165956 2.77579,0.01588 4.18561,0.465768 6.75821,2.156648 1.52729,1.003829 3.07431,2.518109 5.01716,4.91097 0.65261,0.80376 1.49568,1.62164 2.06343,2.00178 0.52798,0.35351 1.43854,1.04928 2.02346,1.54615 0.58492,0.49688 1.0934,0.87463 1.12996,0.83945 0.0366,-0.0352 -0.1208,-0.33522 -0.3497,-0.66678 z m 7.01519,-5.638791 c 0.32419,-1.15827 1.08462,-2.44983 2.02545,-3.440175 0.8689,-0.914638 3.520613,-2.955707 3.839973,-2.955707 0.27943,0 2.38637,1.714589 3.1407,2.555843 1.69232,1.887339 2.63457,4.031979 2.57598,5.86312 -0.0173,0.54134 0.0246,0.9508 0.0932,0.9099 0.2565,-0.153 0.1168,-2.379991 -0.22595,-3.602031 -0.55379,-1.974475 -1.57125,-3.37987 -3.88035,-5.359817 -0.52099,-0.446731 -0.87099,-0.857583 -0.77776,-0.913013 0.16601,-0.09871 1.343,0.814613 2.53286,1.965458 1.76823,1.710223 2.95217,4.466962 2.99263,6.968183 0.0181,1.11564 0.0196,1.11922 0.17061,0.40609 0.0838,-0.39572 0.11842,-1.450461 0.0768,-2.343881 -0.0664,-1.42906 -0.14392,-1.76553 -0.64406,-2.798007 -0.82358,-1.70019 -1.8861,-2.954173 -4.11407,-4.855441 -1.42006,-1.211832 -2.00664,-1.622756 -2.10376,-1.473771 -0.0741,0.113621 -0.58336,0.563988 -1.13181,1.000814 -3.674313,2.92653 -5.151363,4.76063 -5.818613,7.225115 -0.26658,0.98465 -0.33919,3.245171 -0.10423,3.245171 0.0788,0 0.1948,-0.48416 0.25782,-1.07591 0.33368,-3.133271 2.0426,-5.688653 5.467213,-8.175182 1.19766,-0.869591 1.44427,-0.968948 1.44427,-0.581896 0,0.131899 -0.0646,0.239826 -0.14364,0.239826 -0.079,0 -0.7259,0.441688 -1.43758,0.981534 -3.531393,2.678783 -4.757573,4.768547 -4.710993,8.028898 l 0.0232,1.62199 0.12643,-1.36262 c 0.0695,-0.74944 0.2161,-1.682961 0.32569,-2.074491 z m 16.409203,2.237961 c 1.7444,-2.555741 4.48604,-5.448216 6.58164,-6.943748 1.59568,-1.138765 4.00812,-2.354757 5.34536,-2.694363 2.24517,-0.570168 2.26813,-0.5909 0.58168,-0.524951 -1.79237,0.0701 -3.08998,0.438549 -4.57582,1.299308 -1.03429,0.599181 -1.24097,0.656416 -1.24097,0.343631 0,-0.236994 1.36077,-1.059266 2.57199,-1.554164 1.14545,-0.468023 2.8774,-0.795397 4.29439,-0.811708 1.37581,-0.01588 0.99309,-0.208737 -0.76589,-0.386006 -1.90864,-0.192362 -4.81483,0.665086 -6.54644,1.931482 -0.54093,0.395605 -1.0498,0.508531 -1.0498,0.232969 0,-0.216658 1.84445,-1.396598 2.93165,-1.875447 0.50061,-0.220483 1.41064,-0.50162 2.02231,-0.62474 1.13508,-0.228486 4.03777,-0.32215 4.93544,-0.159253 0.27376,0.04971 0.16119,-0.0184 -0.25014,-0.15134 -1.18122,-0.381694 -2.26365,-0.482133 -3.99198,-0.370425 -2.36893,0.153117 -4.60296,1.115949 -6.34725,2.735566 -0.78468,0.72859 -1.12816,0.917695 -1.12816,0.621131 0,-0.540089 2.16806,-2.201756 3.93118,-3.01295 0.65394,-0.300876 1.85007,-0.675812 2.65811,-0.833188 1.12023,-0.218192 1.37826,-0.313886 1.08652,-0.402967 -0.81192,-0.247909 -3.66798,0.375063 -5.266,1.148635 -2.31479,1.12055 -4.3799,2.880357 -5.40728,4.607874 -0.51493,0.865856 -1.20292,2.477679 -1.09987,2.57681 0.0282,0.02716 0.41049,-0.456286 0.84946,-1.074359 0.43896,-0.618055 0.94365,-1.198678 1.12151,-1.290259 0.29849,-0.153677 0.30755,-0.137861 0.11757,0.205345 -0.1132,0.204515 -0.46309,0.74538 -0.77753,1.201918 -0.871,1.264578 -0.57354,1.288198 0.51639,0.04105 0.53396,-0.610991 1.05748,-1.105222 1.16336,-1.098285 0.12984,0.0081 0.12489,0.03888 -0.0153,0.09326 -0.11426,0.04439 -0.20774,0.157141 -0.20774,0.250634 0,0.09349 -0.26914,0.560063 -0.59807,1.036819 -0.32894,0.476756 -0.55674,0.9066 -0.50621,0.9552 0.0505,0.0486 0.56123,-0.31386 1.13491,-0.805475 1.37331,-1.176891 1.63931,-0.931643 0.44005,0.405719 -0.4977,0.555016 -1.14621,1.310246 -1.44112,1.678276 -0.67425,0.84145 -2.02228,3.558401 -2.01736,4.065981 l 0.004,0.38122 0.33641,-0.39972 c 0.18502,-0.21984 0.45918,-0.5796 0.60923,-0.79943 z m 4.19798,-7.116091 c -0.18391,-0.213176 -0.17673,-0.296086 0.044,-0.508386 0.35641,-0.342873 0.8263,-0.152378 0.75814,0.307345 -0.0649,0.437926 -0.50301,0.547721 -0.80208,0.201041 z m -22.440663,3.71337 c 0.0944,-0.42352 0.17296,-1.503981 0.17454,-2.401008 0.004,-2.514063 0.4873,-6.35191 0.79832,-6.345162 0.39565,0.009 0.51626,0.279784 0.35809,0.805158 -0.21752,0.722509 -0.53877,4.270387 -0.40546,4.477906 0.0569,0.08859 0.3032,-0.123968 0.54733,-0.472317 0.24413,-0.34834 1.13836,-1.3549 1.98718,-2.236788 1.54906,-1.609422 2.785333,-3.329461 2.924783,-4.069301 0.0411,-0.218137 0.20261,-0.601013 0.35889,-0.850862 0.22884,-0.365842 0.15825,-0.329782 -0.36272,0.185298 -0.35578,0.351751 -0.802613,0.848264 -0.992953,1.103364 -0.5141,0.688993 -0.6117,0.261352 -0.13641,-0.597594 0.22692,-0.410085 0.36032,-0.745596 0.29645,-0.745596 -0.0638,0 0.0593,-0.179596 0.273603,-0.399087 0.21434,-0.2195 0.34579,-0.441345 0.29212,-0.492977 -0.10979,-0.105618 -0.40687,0.18888 -1.371773,1.359853 -1.24772,1.514215 -1.08427,0.693026 0.24397,-1.225735 0.44192,-0.638381 0.752213,-1.160688 0.689573,-1.160688 -0.208783,0 -1.791643,1.66985 -2.186533,2.306688 -0.21413,0.345327 -0.41775,0.545836 -0.4525,0.445559 -0.0838,-0.242045 0.67483,-1.678556 1.39796,-2.646882 0.31882,-0.426929 0.54202,-0.812438 0.49602,-0.856699 -0.0461,-0.04421 -0.46081,0.258934 -0.92181,0.673764 -0.57855,0.520629 -1.08379,1.218707 -1.63126,2.253857 -0.4362,0.82479 -0.88658,1.499953 -1.00085,1.500359 -0.28271,9.02e-4 -0.26312,-0.172028 0.12744,-1.125269 0.50459,-1.231572 1.49741,-2.536645 2.85227,-3.749371 1.06344,-0.95186 1.15389,-1.074367 0.71811,-0.972574 -0.89253,0.208511 -2.20229,1.042971 -3.069,1.955308 -0.98863,1.040653 -2.16345,3.275312 -2.59282,4.9319 -0.54477,2.101786 -0.57987,9.907816 -0.0536,11.911507 l 0.23098,0.87938 0.11918,-1.83597 c 0.0656,-1.009791 0.19643,-2.182501 0.29084,-2.606021 z m 0.67024,4.202151 c 0,-0.088 -0.0792,-0.15988 -0.176,-0.15988 -0.0968,0 -0.12979,0.072 -0.0733,0.15988 0.0565,0.088 0.13569,0.15989 0.176,0.15989 0.0403,0 0.0733,-0.072 0.0733,-0.15989 z m -2.84275,-1.13527 c -0.0737,-0.44853 -0.22144,-1.078091 -0.3283,-1.399011 -0.31506,-0.94616 -1.80638,-3.658405 -2.49953,-4.545895 -0.38171,-0.488728 -0.58073,-0.879831 -0.49144,-0.965737 0.23032,-0.221566 0.39598,-0.06081 1.53329,1.487575 0.58055,0.790425 1.07918,1.370047 1.10805,1.288057 0.0289,-0.082 -0.21398,-0.740634 -0.53966,-1.463648 -0.32568,-0.723024 -0.56399,-1.341674 -0.52956,-1.374793 0.0857,-0.08246 0.94336,0.982796 1.5724,1.953116 0.65064,1.003615 0.66617,0.622255 0.0417,-1.023864 -1.17027,-3.084907 -3.93133,-5.578762 -7.47517,-6.751738 -1.60093,-0.529894 -1.65137,-0.308517 -0.10236,0.449186 1.97341,0.965294 3.90556,2.390564 3.90556,2.88097 0,0.356983 -0.28321,0.23315 -1.07728,-0.471054 -1.08471,-0.961948 -3.44213,-2.305643 -4.70175,-2.679938 -0.58847,-0.17486 -1.4547,-0.313597 -1.92495,-0.308301 l -0.85501,0.0096 1.13458,0.294254 c 0.62402,0.161833 1.60933,0.519095 2.18959,0.793917 1.18567,0.561542 3.0743,1.845486 3.0743,2.089976 0,0.281561 -0.35062,0.173191 -0.97325,-0.300813 -1.64426,-1.251763 -4.25405,-2.266839 -5.75761,-2.23944 -0.71364,0.01299 -0.75984,0.03158 -0.32722,0.131312 2.51816,0.580705 4.75608,1.955119 7.19538,4.419039 1.7907,1.808777 2.21114,2.3977 4.75752,6.664059 0.61671,1.033261 1.14006,1.878661 1.163,1.878661 0.023,0 -0.0186,-0.36698 -0.0923,-0.81551 z m 17.138793,-1.320211 c -0.10735,-0.72758 -0.27069,-1.42607 -0.36297,-1.55218 -0.12502,-0.17086 -0.14357,-0.12741 -0.0728,0.1704 0.0523,0.21984 0.18442,1.00827 0.29373,1.75204 0.10929,0.743781 0.22988,1.262391 0.26797,1.152461 0.0381,-0.10992 -0.0186,-0.79515 -0.12593,-1.522721 z m 1.28495,1.563071 c -0.0532,-0.0511 0.0164,-0.35324 0.15454,-0.67133 0.39342,-0.905861 0.38463,-9.226842 -0.0116,-10.987307 -0.59415,-2.639764 -2.26396,-5.167693 -4.09517,-6.199713 -1.56458,-0.881752 -2.74154,-1.146569 -1.41098,-0.317458 1.55524,0.969092 3.61302,4.229067 4.15012,6.574658 0.15637,0.682886 0.33689,2.62873 0.43017,4.636699 0.29711,6.395681 0.36169,7.057431 0.68885,7.057431 0.1049,0 0.14723,-0.0419 0.0941,-0.093 z m -1.50559,-8.380086 c -0.10355,-2.45405 -0.16493,-2.871082 -0.63555,-4.317815 -0.48185,-1.481232 -1.17999,-2.573706 -2.24071,-3.506342 -1.30851,-1.150511 -1.62469,-1.025722 -0.47814,0.188709 0.51889,0.549607 1.09052,1.287083 1.27027,1.638833 l 0.32685,0.639545 -0.64563,-0.639545 c -1.01801,-1.008409 -2.01786,-1.838692 -2.21421,-1.838692 -0.099,0 0.18956,0.449681 0.64128,0.999288 0.73187,0.890477 1.20164,1.578775 1.20164,1.760645 0,0.03455 -0.51061,-0.428354 -1.1347,-1.028753 -0.62409,-0.6004 -1.22123,-1.091635 -1.32698,-1.091635 -0.10575,0 0.1805,0.491524 0.63612,1.092275 1.04341,1.375786 1.06124,1.799349 0.0314,0.746417 -0.91845,-0.939068 -1.6532,-1.549599 -1.44312,-1.199148 0.0791,0.131908 0.39734,0.623523 0.70726,1.092484 0.60173,0.910487 0.58415,1.329025 -0.028,0.666267 -0.20304,-0.219851 -0.54407,-0.543616 -0.75784,-0.719496 -0.36363,-0.299162 -0.35881,-0.273405 0.0749,0.399719 0.58792,0.912472 1.1544,1.605967 2.7946,3.421222 1.34425,1.487718 2.26542,2.726616 2.85612,3.841248 0.43826,0.826954 0.47954,0.583881 0.3644,-2.145226 z m 33.12691,-0.801892 c 0.75624,-0.371165 1.16015,-1.01357 1.16015,-1.84517 0,-0.45044 -0.12887,-0.707515 -0.56506,-1.127145 -0.31077,-0.298982 -0.70341,-0.551899 -0.87251,-0.562021 -0.85275,-0.05106 -1.38773,0.179308 -1.38773,0.597594 0,0.153541 0.2204,0.220248 0.72772,0.220248 0.64132,0 0.75072,0.05341 0.92157,0.450259 0.41054,0.953521 -0.39317,1.77057 -1.53838,1.563881 -1.3764,-0.248415 -2.76366,-2.740817 -2.76741,-4.97203 -0.002,-1.228513 0.41626,-3.387696 0.9138,-4.716631 0.91324,-2.439285 2.27978,-4.770134 6.09302,-10.392595 3.4283,-5.054884 4.86909,-7.898907 5.85956,-11.566322 1.18691,-4.394764 0.9209,-9.005854 -0.75941,-13.163594 -1.2194,-3.017296 -3.67772,-6.175899 -6.24776,-8.027537 -3.44409,-2.481358 -7.88245,-3.622013 -11.64549,-2.99288 -2.71199,0.453415 -4.59508,1.434279 -6.51646,3.394292 -2.32906,2.375888 -3.48958,5.89631 -2.74206,8.317963 1.10744,3.587615 5.76651,4.380361 7.43168,1.26451 0.40456,-0.757022 0.43883,-1.922488 0.0764,-2.59683 -1.04493,-1.943965 -3.93889,-2.215776 -4.50314,-0.422949 -0.23313,0.740757 0.55583,1.810454 1.33531,1.810454 0.8395,0 1.21175,-1.147774 0.47675,-1.469953 -0.52119,-0.228452 -0.44938,-0.511925 0.14685,-0.579686 0.62198,-0.07069 1.53463,0.819567 1.69776,1.656102 0.21431,1.09903 -0.69115,2.187572 -2.06706,2.484981 -1.4324,0.309626 -3.08243,-0.84508 -3.62332,-2.535636 -0.32601,-1.018968 -0.15662,-2.500325 0.46353,-4.053676 0.47116,-1.180178 1.78162,-3.164908 2.41416,-3.656315 1.28359,-0.997212 1.81898,-1.337096 2.86824,-1.820853 1.55488,-0.716876 3.07427,-0.954319 5.48499,-0.857171 2.24954,0.09065 4.29074,0.656671 6.24706,1.732307 2.34722,1.290563 4.8621,3.65571 6.18167,5.813616 2.09928,3.432982 3.12265,7.910769 2.7099,11.85718 -0.56607,5.412213 -2.21445,9.247915 -6.86378,15.971601 -3.59207,5.194705 -5.24926,8.247404 -6.00306,11.058103 -0.37108,1.383698 -0.50333,3.623201 -0.2817,4.770609 0.24532,1.270132 1.03767,2.791944 1.87959,3.610048 1.1566,1.12387 2.13134,1.35619 3.29464,0.785246 z m -28.56398,-1.133505 c 2.9976,-2.769073 6.57166,-4.304219 10.14409,-4.357141 0.88533,-0.01308 1.55842,-0.0738 1.49574,-0.134812 -0.23119,-0.225121 -2.31409,-0.433271 -3.60401,-0.36015 -3.83112,0.217163 -8.61273,2.901666 -9.03419,5.071991 -0.0807,0.415417 -0.12656,0.755303 -0.10199,0.755303 0.0246,0 0.51974,-0.438837 1.10036,-0.975191 z m -21.796023,0.04781 c 0,-0.504498 -0.14375,-0.762791 -0.84694,-1.521803 -3.30104,-3.56311 -10.0004,-4.839972 -14.65277,-2.792723 -0.61816,0.272007 -1.09899,0.518554 -1.06851,0.547884 0.0305,0.02932 0.49885,-0.102902 1.04082,-0.293821 1.49745,-0.527495 5.64321,-0.61146 7.52972,-0.152513 2.64134,0.642585 5.09192,1.996998 6.99609,3.866689 0.50517,0.496027 0.93719,0.913582 0.96004,0.927899 0.0228,0.01425 0.0416,-0.247413 0.0416,-0.581607 z m 42.408913,-3.197472 c -0.11023,-2.640567 0.42174,-4.961726 1.90761,-8.323345 0.97976,-2.216613 1.98465,-3.901595 4.5667,-7.657322 4.21209,-6.126738 5.46696,-8.51161 6.55732,-12.462159 0.58523,-2.120391 0.75017,-6.417847 0.32902,-8.572883 -0.97904,-5.009879 -3.84297,-8.852593 -8.15497,-10.942013 -3.26659,-1.582864 -7.01964,-1.676481 -9.76538,-0.243586 -0.86574,0.451799 -2.51191,1.795883 -2.7719,2.263237 -0.12557,0.22573 -0.004,0.259249 0.96164,0.264694 3.36096,0.01896 5.84849,3.530076 4.70849,6.646005 -0.92843,2.537695 -2.76742,3.799267 -5.55915,3.813642 -1.50263,0.0078 -2.86752,-0.441567 -4.06271,-1.33739 l -0.72687,-0.544801 -0.91982,0.922929 c -0.5059,0.50761 -1.04979,1.130459 -1.20863,1.384107 -0.58797,0.938831 -1.50784,3.234614 -2.04261,5.097871 l -0.55067,1.918632 0.0305,5.971448 c 0.0265,5.167957 0.0656,6.008684 0.29084,6.248144 0.14315,0.15218 0.26028,0.496054 0.26028,0.764158 0,0.268103 0.11218,0.57703 0.2493,0.686499 0.13709,0.109476 0.24928,0.336386 0.24928,0.504257 0,0.167865 0.11218,0.346622 0.2493,0.397238 0.13711,0.05061 0.24928,0.266467 0.24928,0.479661 0,0.213196 0.11219,0.42904 0.2493,0.479657 0.1371,0.05061 0.24928,0.26063 0.24928,0.466699 0,0.206064 0.11224,0.43509 0.24944,0.508952 0.13719,0.07386 0.38495,0.390009 0.55058,0.702557 0.33941,0.640465 2.53219,3.490659 2.9297,3.808027 0.14242,0.113711 0.25895,0.279865 0.25895,0.369235 0,0.266214 1.72263,1.869231 2.01298,1.87321 0.14738,0.0018 0.82408,0.535208 1.50377,1.184875 0.67969,0.649668 1.37849,1.207647 1.55288,1.239963 0.17441,0.0323 0.3605,0.235613 0.41354,0.451784 0.0601,0.245004 0.25033,0.427993 0.50499,0.485831 0.22476,0.05106 0.43653,0.232519 0.47073,0.403391 0.0342,0.170828 0.34364,0.581382 0.68765,0.912337 0.67476,0.649144 1.36737,0.793673 1.63107,0.340346 0.13203,-0.22697 0.26989,-0.175545 1.04698,0.390535 0.4922,0.358553 0.89756,0.656046 0.9008,0.661089 0.003,0.0054 -0.0235,-0.695832 -0.0595,-1.557511 z M 92.419887,87.243309 c 0.13938,-0.212941 0.11771,-0.337865 -0.094,-0.541487 -0.49787,-0.478975 -1.24066,0.147001 -0.79182,0.667296 0.25841,0.29955 0.6431,0.244914 0.88577,-0.125809 z m 20.518593,0.216306 c 0.12226,-0.07452 0.19705,-0.30729 0.16619,-0.517182 -0.0419,-0.285458 -0.16022,-0.381639 -0.4693,-0.381639 -0.46991,0 -0.64746,0.436843 -0.32803,0.807115 0.22983,0.266413 0.32255,0.279883 0.63114,0.09171 z M 93.770067,84.575488 c 0,-0.124618 -0.14958,-0.244563 -0.33239,-0.266549 -3.91173,-0.470431 -7.52001,-1.157801 -10.55332,-2.010395 -2.41234,-0.67805 -2.49534,-0.689219 -1.76113,-0.236966 1.16114,0.715237 5.74957,2.031705 8.65819,2.48412 2.42325,0.376921 3.98865,0.388613 3.98865,0.02977 z m 19.860203,-0.102127 c 2.78902,-0.400865 5.7082,-1.377716 6.81394,-2.280174 0.36298,-0.296248 0.24745,-0.277374 -0.91406,0.149311 -1.24762,0.458315 -3.75888,1.111664 -5.06891,1.318759 -2.09506,0.331198 -3.7378,0.578774 -3.84846,0.579992 -0.06,5.77e-4 -0.0721,0.137411 -0.0268,0.303871 0.0921,0.338768 0.20683,0.336062 3.0443,-0.07172 z M 94.684137,83.363087 c 0,-0.138223 -0.15842,-0.245402 -0.37394,-0.25298 -0.20566,-0.0072 -0.5609,-0.0397 -0.78942,-0.07217 -0.22852,-0.03248 -1.38772,-0.175853 -2.57601,-0.318613 -2.74052,-0.329259 -4.90911,-0.746814 -7.03686,-1.354927 -1.94733,-0.556554 -2.29619,-0.592776 -1.60523,-0.166669 0.57879,0.356929 2.84408,1.143051 4.40415,1.528344 2.95741,0.73043 7.97731,1.131295 7.97731,0.637037 z m 18.613743,-0.09759 c 2.11467,-0.298612 4.79444,-1.138918 5.94506,-1.864224 0.62568,-0.394396 0.33036,-0.379492 -0.93981,0.04745 -1.54013,0.51767 -3.01549,0.814252 -5.97491,1.201088 -2.55025,0.333355 -2.68662,0.369947 -2.68662,0.720948 0,0.25713 1.3691,0.217723 3.65628,-0.105248 z M 97.583017,81.25078 c 0.0552,-0.138493 0.08,-0.270283 0.0549,-0.292856 -0.025,-0.02255 -0.71854,-0.08616 -1.5412,-0.141272 -3.90758,-0.261821 -6.04473,-0.46353 -8.70772,-0.821875 -1.59001,-0.21396 -2.97358,-0.383754 -3.07459,-0.377329 -0.46074,0.02933 1.83882,0.676527 3.6388,1.024164 2.66244,0.514205 5.50386,0.810282 8.08853,0.842823 1.16958,0.0148 1.45968,-0.02923 1.5412,-0.233655 z m 13.305043,0.0175 c 1.21704,-0.1235 2.40435,-0.30924 3.49008,-0.545962 0.90344,-0.196991 2.62085,-0.819918 1.99433,-0.723367 -0.27422,0.04231 -0.9847,0.15144 -1.57884,0.242632 -0.59415,0.09118 -2.59888,0.265249 -4.45496,0.3868 -1.85607,0.121559 -3.41715,0.261866 -3.46906,0.311802 -0.0519,0.04989 -0.0477,0.207852 0.009,0.35092 0.0896,0.224633 0.31361,0.246583 1.64092,0.160822 0.84544,-0.05467 1.9111,-0.137275 2.36814,-0.183647 z m 1.24646,-1.400686 c 1.54495,-0.261295 5.41978,-1.336588 5.2847,-1.466545 -0.0375,-0.03615 -0.32889,0.0034 -0.6474,0.08815 -0.31852,0.08461 -1.54831,0.304896 -2.73286,0.489523 -1.89421,0.295237 -3.09498,0.345726 -9.96484,0.418982 -8.750223,0.0933 -12.450943,-0.05368 -16.827673,-0.668321 -1.57705,-0.221479 -2.96061,-0.396817 -3.07459,-0.389645 -0.27552,0.01735 0.80346,0.473033 1.5378,0.649477 1.22695,0.294791 2.93579,0.636473 3.57318,0.714442 0.36562,0.04475 0.76349,0.112628 0.88415,0.150899 0.12067,0.03825 0.94333,0.115397 1.82814,0.171432 0.88481,0.05603 1.64614,0.134361 1.69185,0.174093 0.0457,0.0397 3.85986,0.04123 8.475893,0.0036 6.86056,-0.0563 8.68105,-0.11759 9.97165,-0.335863 z m -7.67895,-9.08445 c -0.0374,-4.024563 -0.11797,-7.365531 -0.17913,-7.424372 -0.0611,-0.05884 -0.22519,-0.01597 -0.36451,0.09526 -0.21999,0.17565 -0.25331,1.136767 -0.25331,7.308107 0,7.288552 0.0563,7.983994 0.61022,7.54171 0.2238,-0.178682 0.24643,-1.0899 0.18673,-7.520709 z m 1.21921,0.335159 c -0.0598,-7.089825 -0.13551,-8.095209 -0.57736,-7.6703 -0.22118,0.212709 -0.31119,10.125368 -0.11776,12.968621 0.11793,1.73343 0.22907,2.132519 0.56388,2.024901 0.14332,-0.0461 0.17685,-1.917207 0.13124,-7.323222 z m 2.89151,6.583288 c -0.49627,-2.21198 -0.7625,-5.141296 -0.86274,-9.492497 -0.0765,-3.321492 -0.16444,-4.743689 -0.29073,-4.702915 -0.26879,0.08679 -0.23387,10.428442 0.0425,12.582054 0.23597,1.83881 0.54428,2.554219 0.95834,2.22363 0.15567,-0.124288 0.21154,-0.347704 0.15263,-0.610272 z m -13.713463,0.382328 c 0.38007,-0.440579 0.66561,-3.916501 0.77293,-9.408971 0.10521,-5.384738 0.10395,-5.413765 -0.22736,-5.243179 -0.31791,0.163679 -0.33767,0.38234 -0.43163,4.775169 -0.0828,3.8707 -0.27421,6.546441 -0.6868,9.600074 -0.0769,0.569194 0.2037,0.70483 0.57286,0.276907 z m 1.47464,0.02447 c 0.37159,-0.430734 0.53837,-2.674301 0.63181,-8.498612 0.0824,-5.138193 0.0621,-5.945076 -0.15398,-6.11761 -0.53659,-0.428428 -0.61458,0.112673 -0.64168,4.452403 -0.0145,2.324556 -0.1246,5.125821 -0.24462,6.225038 -0.30002,2.747771 -0.30299,4.157038 -0.009,4.157038 0.12592,0 0.31367,-0.09821 0.41723,-0.218257 z m 2.90923,-0.03464 c 0.16166,-0.405296 0.11677,-14.588167 -0.0465,-14.685234 -0.42939,-0.255306 -0.49067,0.602704 -0.54447,7.623418 -0.0513,6.700358 -0.0331,7.314835 0.21702,7.314782 0.15018,-3.4e-5 0.31845,-0.113864 0.37394,-0.252966 z m 1.596633,-7.261731 c 0,-5.912924 -0.0374,-7.021082 -0.24613,-7.284227 -0.21304,-0.268632 -0.26857,-0.278114 -0.41295,-0.07053 -0.264693,0.380552 -0.229993,14.661922 0.0358,14.757735 0.58134,0.209523 0.62324,-0.28811 0.62324,-7.402978 z m 1.32954,0.129794 c 0,-7.150223 -0.0596,-7.90138 -0.59326,-7.475297 -0.19964,0.159403 -0.2377,1.333342 -0.2377,7.333101 0,7.300306 0.0415,7.798488 0.61097,7.343773 0.17643,-0.14087 0.21999,-1.567015 0.21999,-7.201577 z m 7.80941,7.0251 c -9e-4,-0.197856 -0.1452,-1.151176 -0.32055,-2.118487 -0.5695,-3.141596 -0.77966,-5.56517 -0.82375,-9.499306 -0.0172,-1.531252 -0.0721,-2.84781 -0.12217,-2.925683 -0.05,-0.07788 -0.20798,-0.04816 -0.35099,0.06603 -0.229,0.182842 -0.24727,0.71319 -0.1531,4.444599 0.15413,6.107349 0.55147,9.393404 1.22201,10.106222 0.36278,0.385646 0.55062,0.360521 0.54855,-0.07337 z m -17.654873,-0.15989 c 0.26902,-0.530735 0.57057,-1.997605 0.78063,-3.797292 0.0462,-0.395717 0.13171,-1.115204 0.19005,-1.598862 0.2693,-2.232423 0.41311,-8.672201 0.19831,-8.879657 -0.0646,-0.0624 -0.23288,-0.07086 -0.37394,-0.01878 -0.21182,0.0782 -0.2566,0.436462 -0.25729,2.058299 -9.9e-4,1.999622 -0.37151,6.686613 -0.65474,8.279119 -0.086,0.483653 -0.28013,1.546702 -0.43137,2.362326 -0.15123,0.815629 -0.23264,1.589075 -0.18091,1.718778 0.13978,0.35041 0.52173,0.285501 0.72926,-0.123931 z m 20.257083,0.116184 c 0.0534,-0.133959 -0.17121,-1.482996 -0.4992,-2.997862 -0.74021,-3.418758 -0.92575,-4.894896 -1.0532,-8.379456 -0.10219,-2.793562 -0.18228,-3.227035 -0.55529,-3.005257 -0.28547,0.169733 -0.10302,6.756685 0.24789,8.950179 0.31584,1.97415 1.08309,5.206493 1.29984,5.476095 0.21661,0.269422 0.44208,0.251827 0.55996,-0.04368 z M 90.847977,77.782919 c 0.28974,-0.335863 0.94185,-3.838571 1.25315,-6.731088 0.17136,-1.592276 0.25604,-3.511671 0.22426,-5.083506 -0.0477,-2.359724 -0.0699,-2.511758 -0.33758,-2.318347 -0.25087,0.181236 -0.28967,0.56502 -0.31186,3.084933 -0.0304,3.457915 -0.32412,6.3191 -0.89216,8.692005 -0.55847,2.332965 -0.5388,3.054985 0.0642,2.356003 z m -2.22112,-0.591861 c 0.87811,-1.633631 1.45833,-5.30133 1.67025,-10.558157 0.11182,-2.773854 0.10785,-2.823077 -0.24256,-3.003487 -0.35574,-0.183164 -0.35623,-0.180536 -0.35623,1.907633 0,3.473865 -0.60796,7.91717 -1.50333,10.987206 -0.17783,0.609763 -0.13921,1.162848 0.0812,1.162848 0.0462,0 0.20403,-0.22322 0.35068,-0.496043 z m 24.903623,-1.064686 c -0.74245,-2.55102 -1.24108,-5.953086 -1.3645,-9.309662 -0.10637,-2.893202 -0.13725,-3.120101 -0.43205,-3.17441 -0.30543,-0.05627 -0.31357,0.04096 -0.21423,2.556318 0.12911,3.2688 0.35419,5.271372 0.87264,7.764042 0.58651,2.819915 1.00347,3.88271 1.42496,3.632104 0.0659,-0.03916 -0.0632,-0.699954 -0.28682,-1.468392 z M 87.440527,76.91403 c 0.28646,-0.532921 1.03366,-3.309167 1.16896,-4.343279 0.0518,-0.395717 0.16889,-1.115204 0.26026,-1.598862 0.22152,-1.172502 0.50202,-7.240673 0.34213,-7.401502 -0.34358,-0.345611 -0.47885,0.51844 -0.558,3.564239 -0.0953,3.666094 -0.47077,5.941919 -1.47014,8.909855 -0.28971,0.860404 -0.30925,1.322847 -0.0559,1.322847 0.038,0 0.17867,-0.203987 0.31268,-0.453298 z m 28.101543,-0.07145 c -0.87919,-2.517672 -1.44497,-5.152197 -1.98186,-9.228293 -0.0406,-0.30778 -0.0787,-1.373271 -0.0849,-2.367755 -0.007,-1.162132 -0.0706,-1.772846 -0.17741,-1.709337 -0.39179,0.232944 -0.0461,5.19073 0.5964,8.553898 0.24807,1.298484 0.75968,3.305366 1.05974,4.157037 0.0775,0.219841 0.18471,0.530185 0.23833,0.689646 0.0536,0.159468 0.16955,0.247096 0.25761,0.194739 0.0881,-0.05234 0.12952,-0.182829 0.0921,-0.289933 z M 86.030797,75.413636 c 0.20318,-0.55231 0.47579,-1.230915 0.60581,-1.508019 0.13003,-0.277103 0.23691,-0.672821 0.23751,-0.879375 4.7e-4,-0.206549 0.14304,-1.168551 0.31652,-2.137777 0.39272,-2.194161 0.63996,-7.017289 0.36801,-7.178988 -0.13276,-0.07893 -0.18819,0.27437 -0.19098,1.21728 -0.0117,3.964693 -0.76637,8.614446 -1.75393,10.807165 -0.26748,0.59391 -0.30424,0.893148 -0.0944,0.76838 0.0781,-0.04644 0.3083,-0.536357 0.51147,-1.088666 z m 30.570023,0.340543 c -0.17675,-0.447549 -0.53892,-1.688661 -0.80479,-2.758032 -0.64707,-2.60255 -0.74339,-3.200829 -1.00287,-6.229046 -0.0964,-1.125481 -0.13897,-2.102951 -0.0945,-2.17216 0.0444,-0.06921 0.0156,-0.335515 -0.064,-0.59179 -0.21473,-0.690796 -0.21517,1.505903 -4.8e-4,3.681369 0.31385,3.184707 1.69042,8.883379 2.14582,8.883379 0.0783,0 -0.003,-0.366172 -0.17897,-0.81372 z M 84.933647,75.089716 c 0.49176,-1.352814 0.8423,-2.566515 1.09693,-3.798055 0.1,-0.483652 0.22778,-1.059244 0.28395,-1.279088 0.0562,-0.219843 0.12212,-1.802714 0.14656,-3.517491 l 0.0444,-3.117776 -0.12699,2.558175 c -0.17608,3.546938 -0.49359,5.271929 -1.64058,8.91323 -0.56537,1.794832 -0.42982,1.961761 0.19569,0.241005 z M 113.79646,61.74083 c 0.61214,-0.117125 0.1748,-0.169632 -2.40982,-0.28933 -4.377,-0.202703 -23.729583,-0.179566 -24.679813,0.0295 l -0.74788,0.164549 0.74788,0.176397 c 0.91106,0.214891 25.934173,0.139955 27.089633,-0.08112 z m -7.2979,-1.121557 4.05711,-0.119914 -2.32671,-0.100407 c -3.3703,-0.145441 -19.003653,-0.160846 -19.961653,-0.01967 l -0.81261,0.119753 0.91407,0.09402 c 1.39691,0.143678 13.560653,0.161269 18.129793,0.02623 z m 0.23465,-0.997309 c 3.56487,-0.0865 6.96769,-0.207173 7.56183,-0.268167 l 1.08026,-0.110896 -0.74787,-0.119379 c -0.41133,-0.06566 -7.0487,-0.124712 -14.749723,-0.13123 -12.34077,-0.01044 -14.00185,0.0166 -14.00185,0.227979 0,0.189133 0.25469,0.244411 1.2049,0.261508 0.6627,0.01193 2.10236,0.07126 3.19924,0.131867 3.17046,0.175171 9.44584,0.178343 16.453213,0.0083 z M 90.354327,57.549902 c 0.4313,-0.414933 0.72643,-1.524845 0.62826,-2.362753 -0.078,-0.665485 -0.91119,-2.534708 -1.06423,-2.387475 -0.0428,0.04113 0.0398,0.407886 0.1835,0.815015 0.14368,0.407129 0.25449,0.899606 0.24624,1.094391 -0.0121,0.28516 -0.0433,0.26071 -0.16047,-0.125503 -0.08,-0.263812 -0.37284,-0.731477 -0.65071,-1.039258 l -0.50522,-0.559602 0.34138,0.865017 c 0.36839,0.933467 0.39551,1.938737 0.0297,1.10136 -0.25328,-0.579788 -1.04203,-1.772141 -1.12163,-1.695561 -0.035,0.03366 0.0419,0.346239 0.1709,0.694621 0.12898,0.348383 0.23411,0.813295 0.23363,1.033138 -4.7e-4,0.298712 -0.14234,0.134715 -0.56069,-0.649001 -0.73485,-1.376649 -1.24411,-1.813718 -0.67775,-0.581681 0.22417,0.487643 0.59603,1.511979 0.82636,2.276303 0.23032,0.764323 0.50469,1.489273 0.6097,1.611002 0.27714,0.32126 1.09558,0.271179 1.47102,-0.09001 z m 3.90405,0.126863 c 0.86986,-0.38129 1.45575,-2.34165 1.09221,-3.654443 -0.33267,-1.201308 -1.1707,-1.720607 -1.48094,-0.91769 -0.18349,0.474885 -0.0556,0.759458 0.34122,0.759458 0.28217,0 0.30768,0.07439 0.20562,0.599573 -0.21369,1.099496 -0.33593,1.398631 -0.5909,1.445893 -0.28536,0.05289 -1.03715,-1.419195 -1.22266,-2.394134 -0.11754,-0.617692 -0.37599,-0.829509 -0.74467,-0.610304 -0.53012,0.315196 0.56779,3.743054 1.47991,4.620561 0.40834,0.392835 0.3795,0.3881 0.92021,0.151086 z m 8.539223,-0.06909 c 0.54001,-0.363882 1.13089,-1.329006 1.44006,-2.352159 0.28217,-0.933755 0.68553,-1.450601 0.81924,-1.049691 0.04,0.119826 0.11749,0.542127 0.17229,0.938448 0.14054,1.016586 0.82882,2.37325 1.29005,2.542865 0.82239,0.30243 1.95509,-1.43576 2.08753,-3.203427 0.0699,-0.933922 0.0364,-1.100532 -0.28409,-1.408834 -0.47318,-0.455224 -0.90998,-0.369854 -0.97728,0.191006 -0.0289,0.241076 0.0272,0.438319 0.12465,0.438319 0.29218,0 0.20052,0.928131 -0.15854,1.605231 -0.18467,0.348245 -0.40372,0.633173 -0.48679,0.633173 -0.18249,0 -0.67319,-1.562135 -0.67319,-2.143097 0,-0.550854 -0.54865,-1.054622 -1.14858,-1.054622 -0.62936,0 -1.22241,0.670445 -1.95289,2.207741 -0.30536,0.642664 -0.61987,1.130044 -0.69888,1.083067 -0.079,-0.04698 -0.49979,-0.695861 -0.93505,-1.441962 -0.43527,-0.746101 -0.92842,-1.475843 -1.09589,-1.621647 -0.442163,-0.384954 -1.116043,-0.182112 -1.245203,0.374808 -0.0558,0.240487 -0.2013,0.725046 -0.3234,1.076796 -0.12209,0.351749 -0.26599,0.837402 -0.31977,1.079229 -0.0964,0.433295 -0.47336,0.590784 -0.67243,0.280909 -0.0561,-0.08733 -0.19912,-0.519019 -0.31784,-0.959316 -0.16933,-0.628002 -0.17177,-0.800538 -0.0112,-0.800538 0.57842,0 0.70737,-0.975758 0.15587,-1.179356 -0.43891,-0.162034 -0.70502,0.07137 -0.89086,0.781372 -0.26607,1.016575 -0.22647,1.713372 0.1528,2.688586 0.58528,1.504933 1.38867,1.795453 2.11014,0.763054 0.34831,-0.498437 0.48595,-0.874974 0.78404,-2.144934 0.16792,-0.715361 0.591573,-0.469975 0.915463,0.530252 0.37884,1.169878 0.75902,1.845717 1.20873,2.148756 0.45666,0.307714 0.46852,0.307664 0.93109,-0.0041 z m 8.04891,0.031 c 0.15997,-0.116819 0.29275,-0.348364 0.29506,-0.514544 0.003,-0.16618 0.17717,-1.147542 0.38854,-2.180806 0.21138,-1.033262 0.3622,-1.87866 0.33518,-1.87866 -0.13644,0 -0.87619,1.426613 -0.97414,1.87866 -0.062,0.285797 -0.18786,0.51963 -0.27983,0.51963 -0.16581,0 -0.0675,-1.799334 0.13543,-2.478233 0.0645,-0.215929 0.0406,-0.26785 -0.0737,-0.159886 -0.33661,0.317841 -0.89622,2.427142 -0.98623,3.717349 l -0.092,1.31906 0.48046,-0.0051 c 0.26426,-0.0028 0.61133,-0.100664 0.7713,-0.217485 z M 85.454607,56.125238 c -0.27118,-0.97726 -1.15493,-3.060576 -1.29832,-3.060576 -0.0338,0 0.28293,1.008067 0.70382,2.240147 0.77555,2.270319 1.13414,2.765181 0.5945,0.820429 z m 1.58461,1.130052 c 0,-0.756938 -1.39217,-4.503459 -1.59937,-4.304124 -0.0307,0.02949 0.15983,0.696652 0.42331,1.482567 0.26349,0.785912 0.52929,1.680755 0.59068,1.988534 0.17808,0.892877 0.26511,1.119202 0.43038,1.119202 0.0852,0 0.155,-0.128782 0.155,-0.286179 z m 25.095303,0.19138 c 0,-0.377413 0.71054,-3.329134 0.91436,-3.798435 0.46002,-1.059181 -0.0535,-0.606658 -0.65321,0.575601 -0.70177,1.383493 -1.01272,3.317633 -0.53339,3.317633 0.14973,0 0.27224,-0.04265 0.27224,-0.0948 z m 2.40107,-1.03523 c 0.15702,-0.621516 0.46183,-1.628798 0.67735,-2.238404 0.21551,-0.609605 0.36017,-1.108374 0.32146,-1.108374 -0.19553,0 -0.96135,1.771273 -1.31413,3.039482 -0.30137,1.083375 -0.34692,1.437325 -0.185,1.437325 0.12846,0 0.32962,-0.454352 0.50032,-1.130029 z m 1.24833,0.0508 c 0.11673,-0.50564 0.3799,-1.351037 0.58483,-1.87866 0.6004,-1.545852 0.62233,-1.628945 0.26835,-1.017189 -0.73367,1.267921 -1.53132,3.815193 -1.1947,3.815193 0.0711,0 0.2248,-0.413705 0.34152,-0.919344 z m -12.81525,-2.987299 c 0.0841,-0.424246 -0.42413,-0.766675 -0.82875,-0.55835 -0.35787,0.184258 -0.39792,0.47864 -0.10362,0.761761 0.29479,0.283604 0.86025,0.160236 0.93237,-0.203411 z m 15.05275,-2.270711 c 0.25234,-0.143481 -0.27121,-0.209432 -2.49289,-0.314032 -3.44844,-0.162357 -30.125353,-0.156256 -31.706623,0.0072 -1.13931,0.117807 -1.29597,0.319021 -0.35587,0.457074 0.27422,0.04026 8.0895,0.06379 17.367293,0.05227 12.25843,-0.01522 16.95598,-0.07058 17.18809,-0.202565 z m 0.72521,-1.602684 c 0.53066,-0.06057 0.85415,-0.170306 0.81713,-0.277181 -0.0442,-0.127636 -5.46201,-0.188232 -19.4506,-0.217549 -17.166653,-0.03598 -19.389323,-0.01306 -19.389323,0.199857 0,0.132271 0.0187,0.250662 0.0416,0.26309 0.4583,0.249259 35.816733,0.278846 37.981243,0.03178 z m 0.54,-4.472717 c 0.1405,-0.135219 -0.92503,-0.209501 -4.18816,-0.291969 -5.93971,-0.150113 -33.570733,-0.04109 -33.852243,0.13357 -0.18985,0.117791 -0.18985,0.162365 0,0.282056 0.35318,0.222667 37.807053,0.100915 38.040403,-0.123657 z m -6.48733,-1.118691 c 4.94172,-0.119749 4.64376,-0.10455 4.56145,-0.232693 -0.11223,-0.174696 -4.75089,-0.226003 -20.432993,-0.226003 -8.22661,0 -15.17195,0.05746 -15.43411,0.127696 -0.26215,0.07024 -0.42428,0.178156 -0.36027,0.239829 0.28423,0.273877 21.594113,0.335231 31.665923,0.09117 z m 2.90157,-1.261136 c 2.19003,-0.131833 4.04401,-0.299501 4.11999,-0.372594 0.26121,-0.2513 -10.21894,-0.353965 -24.811773,-0.24306 -8.07243,0.06135 -14.61764,0.173283 -14.61764,0.249981 0,0.07639 0.0941,0.17365 0.20923,0.216132 0.65408,0.241466 5.83027,0.348797 17.73973,0.367842 10.219653,0.01635 14.318823,-0.0352 17.360463,-0.218301 z M 98.781967,40.674974 c 1.06073,-0.303047 1.854883,-0.818071 2.350273,-1.524201 l 0.38992,-0.555797 -2.573653,-0.102627 c -4.11505,-0.164093 -7.02262,-0.881604 -9.16709,-2.262195 -1.54744,-0.996222 -2.08936,-1.496092 -3.68271,-3.396939 -1.76011,-2.099796 -2.89356,-3.076829 -4.4864,-3.867299 -2.43101,-1.206423 -5.00484,-1.65086 -7.74601,-1.337543 -2.35643,0.269343 -3.45014,0.559096 -5.23207,1.386114 -1.785902,0.828858 -3.76798,2.451504 -3.416515,2.796957 0.156918,0.154231 0.280414,0.139732 0.581682,-0.06829 0.210356,-0.145253 0.793801,-0.550654 1.296536,-0.900889 1.002837,-0.69863 2.874327,-1.458372 4.613997,-1.873068 1.74809,-0.416704 5.25981,-0.364067 6.85747,0.102791 2.82963,0.826854 4.26392,1.876413 6.89476,5.045345 1.52961,1.842462 3.12655,3.077796 5.34891,4.137701 2.19299,1.045896 4.53902,1.488619 7.05674,1.331692 0.83058,-0.05177 1.46977,-0.02905 1.46977,0.05227 0,0.306346 -0.78684,0.521744 -2.1863,0.59851 -2.35441,0.129146 -4.54641,-0.394701 -7.30361,-1.745425 -1.88394,-0.922924 -3.5118,-2.30079 -5.61791,-4.755158 -1.79649,-2.093551 -3.14337,-3.042762 -5.14816,-3.628141 -1.08022,-0.315414 -1.06944,-0.27985 0.0909,0.2998 1.6766,0.837597 2.92536,1.897846 4.59113,3.898066 2.43851,2.928101 3.81237,4.038626 6.51642,5.26736 2.6471,1.202856 6.43048,1.692788 8.50197,1.100971 z m 10.527253,0.07807 c 0.50274,-0.07331 1.73673,-0.243431 2.7422,-0.378038 2.32387,-0.311105 3.3497,-0.60753 4.90272,-1.4167 2.50977,-1.307649 3.46859,-2.090882 6.26127,-5.114581 1.10801,-1.199687 2.11837,-2.118844 2.80973,-2.556139 1.31305,-0.830516 1.13369,-0.987684 -0.29953,-0.26246 -0.79625,0.402923 -1.69307,1.157978 -3.78565,3.187272 -3.96706,3.847086 -5.81112,4.844175 -10.48685,5.670267 -2.64529,0.46736 -5.0417,0.565935 -6.01651,0.247487 -1.11791,-0.365197 -0.63071,-0.534547 1.46928,-0.510725 2.37239,0.02691 5.50614,-0.425534 7.47226,-1.078827 2.63152,-0.874394 4.84202,-2.402122 6.91677,-4.780326 2.66028,-3.049383 4.19698,-4.180611 6.46938,-4.762396 2.34804,-0.601147 5.25349,0.02846 6.961,1.508416 0.64817,0.561808 0.72577,0.582329 0.99996,0.26449 0.26742,-0.309993 0.0307,-0.709738 -0.84913,-1.434324 -1.55995,-1.284575 -3.59995,-1.80352 -6.0546,-1.5402 -3.37009,0.361525 -5.22158,1.521736 -8.62906,5.407274 -1.3753,1.568264 -2.55989,2.502387 -4.1817,3.297529 -2.78613,1.365997 -5.21871,1.854505 -9.81768,1.971576 -1.85098,0.04712 -3.36543,0.115481 -3.36543,0.151915 0,0.271692 0.58484,1.046996 1.00893,1.337513 1.2921,0.885137 3.06743,1.141728 5.47264,0.790977 z m 11.73895,-1.078835 c 0.67466,-1.428931 2.34882,-3.898293 3.46708,-5.113911 0.88377,-0.960713 3.02183,-2.371469 3.96391,-2.615515 0.9509,-0.246334 0.59844,-0.373087 -0.39798,-0.143122 -2.15752,0.497934 -4.80443,2.970518 -6.87218,6.419559 -0.76072,1.268899 -1.19878,2.692105 -0.82861,2.692105 0.0455,0 0.34601,-0.557602 0.66778,-1.239116 z m -40.989103,0.69803 c 0,-0.753783 -1.30179,-2.915402 -2.49758,-4.14725 -1.05567,-1.087492 -2.72757,-2.329587 -2.9054,-2.158502 -0.0397,0.03816 0.46798,0.526266 1.12812,1.084661 1.94155,1.642288 3.19658,3.309245 3.76647,5.002719 0.22711,0.674875 0.50839,0.795692 0.50839,0.218372 z m 1.76392,-0.138429 c -0.17483,-0.858923 -1.37054,-3.105698 -2.21596,-4.163863 -1.57016,-1.965257 -2.74858,-2.798009 -5.61404,-3.967244 -0.46915,-0.191436 -2.1901,-0.309685 -1.89548,-0.130242 0.12844,0.07823 0.4205,0.143399 0.64902,0.144813 1.04057,0.0064 3.95144,1.722518 5.32632,3.140081 1.30842,1.349041 2.65009,3.441391 3.13977,4.896512 0.26265,0.780468 0.76638,0.846446 0.61037,0.07994 z m 3.65801,0.285746 c 0.20451,-0.512721 -0.96649,-3.179133 -2.1804,-4.964879 -1.00026,-1.471447 -2.76911,-3.074274 -3.97154,-3.59879 -1.14587,-0.499843 -2.97722,-1.004273 -2.83343,-0.780445 0.0511,0.0796 0.17286,0.144722 0.27049,0.144722 0.43795,0 2.64107,1.189512 3.58659,1.93647 1.78969,1.413861 3.64014,4.135415 4.28194,6.29766 0.15661,0.527624 0.31739,1.013277 0.3573,1.07923 0.11997,0.198284 0.38955,0.13546 0.48905,-0.113968 z m 31.916583,-0.01834 c 0.13023,-0.326518 -0.34044,-0.779325 -0.67984,-0.654028 -0.1442,0.05324 -0.26217,0.278917 -0.26217,0.501521 0,0.326462 0.0813,0.404733 0.42069,0.404733 0.23139,0 0.46598,-0.113502 0.52132,-0.252226 z m 7.03511,-3.685961 c 0.40387,-0.516082 1.07396,-1.294084 1.48906,-1.728881 0.60265,-0.631231 0.65324,-0.722672 0.25102,-0.453736 -0.71752,0.479756 -1.92616,1.756953 -2.63613,2.785667 -0.5054,0.732304 -1.44406,2.812648 -1.42523,3.15875 0.003,0.05305 0.36112,-0.560534 0.79609,-1.363509 0.43497,-0.802974 1.1213,-1.882204 1.52519,-2.398291 z m -40.732793,3.39648 c 0.35916,-0.416343 -0.36753,-1.403471 -0.83053,-1.128182 -0.0832,0.04945 -0.1512,0.287111 -0.1512,0.528147 0,0.716132 0.57722,1.068934 0.98173,0.600035 z m 3.66411,-0.0091 c 0.10961,-0.127063 0.17486,-0.396872 0.14499,-0.599573 -0.0429,-0.291288 -0.15881,-0.36854 -0.55288,-0.36854 -0.39408,0 -0.50997,0.07725 -0.55289,0.368546 -0.0595,0.403808 0.22459,0.830599 0.55289,0.830599 0.11472,0 0.29827,-0.103963 0.40789,-0.231028 z m 31.999953,-0.585708 c 0,-0.236753 -0.11167,-0.398717 -0.29883,-0.433388 -0.61851,-0.114596 -1.02848,0.628737 -0.58308,1.057226 0.28822,0.277281 0.88191,-0.142678 0.88191,-0.623838 z M 82.452117,36.983988 c -0.265,-0.499267 -0.84218,-1.29184 -1.28261,-1.76128 -0.76603,-0.816472 -2.25636,-1.983909 -2.53263,-1.983909 -0.0722,0 0.42706,0.557607 1.10939,1.239118 0.68232,0.681516 1.49233,1.634833 1.80001,2.118491 0.30769,0.483654 0.6668,1.048947 0.79804,1.256209 0.16751,0.264566 0.29089,0.326527 0.41412,0.207977 0.12322,-0.118548 0.032,-0.439292 -0.30632,-1.076606 z M 68.148907,178.00481 c -0.14756,-0.36994 0.16404,-0.58083 0.85825,-0.58083 0.75285,0 1.05558,0.23489 0.75372,0.5848 -0.28896,0.33496 -1.47794,0.33204 -1.61197,-0.004 z m 65.653993,0.0184 c -0.16828,-0.42188 0.11102,-0.56727 1.08966,-0.56727 0.96819,0 1.49738,0.26535 1.26149,0.63255 -0.17322,0.26964 -2.24046,0.21224 -2.35115,-0.0653 z m -6.40593,-1.79406 c -0.46872,-0.11943 -0.49029,-0.51254 -0.0435,-0.79415 0.3332,-0.21003 0.49903,-0.22684 0.82563,-0.0837 0.53063,0.2326 0.52214,0.63207 -0.0176,0.82951 -0.23446,0.0857 -0.44014,0.14758 -0.45702,0.13737 -0.0169,-0.0102 -0.15525,-0.0503 -0.30743,-0.089 z"
       id="path873" />
    <path
       style="fill:#ff0000;fill-opacity:1;stroke:#000000;stroke-width:0.264583px;stroke-linecap:butt;stroke-linejoin:miter;stroke-opacity:1"
       d="m 131.67871,50.890238 2.07188,-5.226267 -9.3179,-8.848717 v 0 l 4.63622,2.050855 4.73897,-0.16055 2.93293,0.202589 6.095,2.986865 4.266,6.255348 0.29227,7.64123 -1.60706,7.98585 -4.23739,6.79128 -4.35655,7.560675 -2.85203,3.488013 -0.33991,4.187481 0.85651,2.920373 -4.23602,-2.786703 -4.75154,-3.709098 -3.74295,-3.311883 -2.06603,-4.489987 -1.92519,-5.673219 -0.28538,-7.604406 0.53819,-4.555455 2.14553,-4.817951 1.91047,-2.262005 3.73431,2.069547 z"
       id="path1208"
       sodipodi:nodetypes="ccccccccccccccccccccccccccc" />
  </g>
</svg>
